<svg width="107" height="111" viewBox="0 0 107 111" fill="none" xmlns="http://www.w3.org/2000/svg">
<path d="M106.903 55.3885C106.903 61.3005 103.723 66.8085 98.604 69.7665L31.433 108.548C27.133 111.029 21.996 111.459 17.342 109.728C12.687 107.996 9.084 104.315 7.455 99.6255C2.507 85.4035 -1.75974e-06 70.5175 -2.42109e-06 55.3875C-3.08266e-06 40.2525 2.507 25.3665 7.455 11.1505C9.084 6.46147 12.687 2.77948 17.345 1.04748C21.999 -0.683523 27.133 -0.254523 31.433 2.22648L98.604 41.0095C103.723 43.9695 106.903 49.4775 106.903 55.3885Z" fill="#4B3B8D"/>
<path d="M7.92724 99.4612L7.92732 99.4614C9.50735 104.01 13.001 107.58 17.5164 109.26C22.0307 110.939 27.0121 110.522 31.183 108.115L7.92724 99.4612ZM7.92724 99.4612C2.99772 85.2923 0.499998 70.4619 0.499998 55.3875C0.499997 40.3081 2.99772 25.4776 7.92721 11.3148L7.92731 11.3146C9.50733 6.76653 13.001 3.19617 17.5193 1.51613L17.345 1.04748L17.5193 1.51611C22.0338 -0.162995 27.0123 0.253066 31.1831 2.65956L98.3537 41.4423C103.318 44.313 106.403 49.6562 106.403 55.3885C106.403 61.1218 103.318 66.4647 98.354 69.3335C98.3539 69.3335 98.3539 69.3335 98.3538 69.3335L31.1831 108.115L7.92724 99.4612Z" stroke="white" stroke-opacity="0.3"/>
</svg>
