<svg width="1637" height="1121" viewBox="0 0 1637 1121" fill="none" xmlns="http://www.w3.org/2000/svg">
<path fill-rule="evenodd" clip-rule="evenodd" d="M1371.82 680.221C1370.23 682.141 1368.36 683.749 1366.29 685C1368.36 686.253 1370.23 687.859 1371.82 689.78C1375.95 694.782 1377.62 701.315 1376.4 707.701C1373.87 720.998 1369.15 733.716 1362.36 745.501C1355.58 757.292 1346.96 767.752 1336.75 776.595C1332.82 780 1327.79 781.876 1322.59 781.876C1321.4 781.876 1320.19 781.775 1319 781.575C1316.54 781.163 1314.21 780.339 1312.09 779.164C1312.05 781.59 1311.59 784.021 1310.73 786.357C1308.47 792.44 1303.67 797.159 1297.55 799.299C1284.8 803.746 1271.46 806 1257.89 806C1244.33 806 1230.99 803.746 1218.24 799.299C1212.12 797.159 1207.32 792.439 1205.06 786.35C1204.19 784.016 1203.74 781.59 1203.69 779.164C1201.58 780.336 1199.25 781.16 1196.8 781.575C1195.59 781.775 1194.38 781.876 1193.2 781.876H1193.19C1187.99 781.874 1182.97 779.994 1179.04 776.588C1168.82 767.735 1160.2 757.275 1153.43 745.501C1146.64 733.709 1141.92 720.99 1139.39 707.701C1138.17 701.326 1139.84 694.789 1143.97 689.778C1145.56 687.855 1147.43 686.247 1149.5 684.997C1147.43 683.746 1145.56 682.139 1143.97 680.216C1139.84 675.207 1138.18 668.673 1139.39 662.293C1141.92 648.999 1146.64 636.284 1153.43 624.499C1160.21 612.714 1168.83 602.253 1179.04 593.404C1182.97 589.997 1188 588.12 1193.2 588.12C1194.38 588.12 1195.59 588.221 1196.79 588.423C1199.25 588.838 1201.58 589.661 1203.7 590.838C1203.74 588.412 1204.19 585.985 1205.06 583.647C1207.32 577.554 1212.13 572.837 1218.25 570.703C1231 566.254 1244.34 564 1257.9 564C1271.46 564 1284.8 566.254 1297.55 570.702C1303.67 572.833 1308.48 577.553 1310.73 583.651C1311.6 585.984 1312.05 588.412 1312.09 590.832C1314.21 589.659 1316.54 588.837 1318.99 588.422C1320.18 588.224 1321.39 588.123 1322.59 588.123C1327.79 588.123 1332.82 590 1336.75 593.409C1346.96 602.249 1355.58 612.71 1362.37 624.501C1369.15 636.287 1373.87 649.004 1376.4 662.298C1377.62 668.68 1375.95 675.214 1371.82 680.221ZM1268.41 703.268C1268.47 699.63 1269.43 696.007 1271.3 692.762C1273.17 689.517 1275.81 686.869 1278.92 685C1275.81 683.131 1273.17 680.482 1271.3 677.239C1269.43 673.993 1268.47 670.371 1268.41 666.732C1265.24 668.499 1261.63 669.474 1257.9 669.474C1254.16 669.474 1250.55 668.5 1247.38 666.732C1247.32 670.37 1246.36 673.996 1244.49 677.239C1242.62 680.481 1239.98 683.131 1236.86 685C1239.98 686.869 1242.63 689.522 1244.49 692.767C1246.36 696.009 1247.32 699.633 1247.38 703.268C1250.55 701.501 1254.16 700.529 1257.89 700.529C1261.63 700.529 1265.24 701.503 1268.41 703.268ZM1244.93 685C1244.93 677.818 1250.74 671.996 1257.9 671.996C1265.06 671.996 1270.86 677.818 1270.86 685C1270.86 692.181 1265.06 698.003 1257.9 698.003C1250.74 698.003 1244.93 692.181 1244.93 685ZM1257.9 661.714C1252.94 661.714 1248.32 659.038 1245.84 654.731L1213.3 598.209C1211.22 594.591 1210.86 590.269 1212.31 586.352C1213.77 582.435 1216.85 579.404 1220.79 578.033C1232.72 573.869 1245.21 571.76 1257.9 571.76C1270.59 571.76 1283.08 573.869 1295.01 578.033C1298.94 579.404 1302.03 582.435 1303.48 586.355C1304.93 590.271 1304.57 594.591 1302.49 598.209L1269.96 654.731C1267.48 659.038 1262.86 661.714 1257.9 661.714ZM1149.93 675.274C1152.59 678.497 1156.5 680.343 1160.67 680.343L1225.73 680.34C1230.69 680.34 1235.31 677.665 1237.79 673.356C1240.27 669.048 1240.27 663.695 1237.79 659.387L1205.26 602.866C1203.18 599.246 1199.63 596.771 1195.52 596.076C1194.75 595.948 1193.97 595.88 1193.2 595.88C1189.86 595.88 1186.63 597.089 1184.1 599.28C1174.54 607.553 1166.48 617.344 1160.13 628.379C1153.78 639.406 1149.36 651.309 1146.99 663.751C1146.21 667.856 1147.28 672.056 1149.93 675.274ZM1355.12 680.343H1290.06C1285.1 680.343 1280.48 677.665 1278 673.357C1275.52 669.049 1275.52 663.696 1278 659.39L1310.53 602.866C1312.61 599.246 1316.16 596.771 1320.27 596.076C1321.04 595.948 1321.81 595.883 1322.59 595.883C1325.93 595.883 1329.17 597.088 1331.69 599.28C1341.25 607.559 1349.32 617.352 1355.66 628.381C1362.01 639.411 1366.43 651.314 1368.8 663.753C1369.59 667.858 1368.51 672.056 1365.86 675.273C1363.2 678.497 1359.29 680.343 1355.12 680.343ZM1184.1 770.719C1186.63 772.909 1189.86 774.116 1193.2 774.118C1193.97 774.118 1194.75 774.05 1195.52 773.924C1199.63 773.228 1203.18 770.755 1205.26 767.134L1237.79 710.613C1240.27 706.304 1240.27 700.951 1237.79 696.645C1235.31 692.334 1230.69 689.66 1225.73 689.66L1160.66 689.656C1156.5 689.656 1152.59 691.503 1149.93 694.726C1147.28 697.945 1146.21 702.146 1146.99 706.248C1149.36 718.691 1153.78 730.59 1160.13 741.62C1166.47 752.647 1174.54 762.437 1184.1 770.719ZM1322.59 774.118C1321.82 774.118 1321.04 774.051 1320.27 773.923C1316.17 773.23 1312.61 770.755 1310.53 767.136L1278 710.612C1275.52 706.307 1275.52 700.953 1278 696.644C1280.48 692.337 1285.1 689.659 1290.06 689.659H1355.13C1359.29 689.659 1363.2 691.504 1365.86 694.725C1368.51 697.945 1369.58 702.145 1368.8 706.247C1366.43 718.69 1362.01 730.589 1355.67 741.619C1349.31 752.653 1341.25 762.444 1331.69 770.721C1329.17 772.913 1325.93 774.118 1322.59 774.118ZM1257.89 798.239C1245.19 798.239 1232.71 796.13 1220.79 791.97C1216.85 790.595 1213.76 787.563 1212.31 783.646C1210.86 779.731 1211.22 775.41 1213.3 771.79L1245.83 715.268C1248.31 710.963 1252.94 708.287 1257.89 708.287C1262.85 708.287 1267.48 710.963 1269.95 715.268L1302.49 771.79C1304.57 775.412 1304.93 779.731 1303.48 783.646C1302.03 787.562 1298.94 790.595 1295 791.97C1283.08 796.13 1270.59 798.239 1257.89 798.239Z" fill="white" fill-opacity="0.21"/>
<path fill-rule="evenodd" clip-rule="evenodd" d="M1633.61 588.196C1632.68 589.323 1631.59 590.266 1630.37 591C1631.58 591.735 1632.68 592.678 1633.61 593.805C1636.03 596.74 1637.01 600.574 1636.3 604.321C1634.82 612.123 1632.04 619.586 1628.07 626.501C1624.08 633.419 1619.03 639.557 1613.03 644.746C1610.73 646.744 1607.78 647.845 1604.73 647.845C1604.03 647.845 1603.32 647.786 1602.62 647.668C1601.18 647.426 1599.81 646.943 1598.57 646.254C1598.54 647.677 1598.27 649.103 1597.77 650.474C1596.44 654.043 1593.62 656.812 1590.03 658.068C1582.55 660.677 1574.72 662 1566.76 662C1558.8 662 1550.98 660.677 1543.5 658.068C1539.9 656.812 1537.09 654.043 1535.76 650.47C1535.25 649.1 1534.99 647.677 1534.96 646.254C1533.72 646.941 1532.36 647.425 1530.92 647.668C1530.21 647.786 1529.5 647.845 1528.8 647.845H1528.8C1525.75 647.843 1522.8 646.74 1520.49 644.742C1514.5 639.547 1509.44 633.409 1505.47 626.501C1501.48 619.581 1498.71 612.118 1497.23 604.321C1496.51 600.579 1497.49 596.744 1499.92 593.804C1500.85 592.675 1501.94 591.732 1503.16 590.998C1501.94 590.264 1500.85 589.321 1499.92 588.193C1497.5 585.254 1496.52 581.42 1497.23 577.676C1498.71 569.875 1501.49 562.414 1505.47 555.499C1509.45 548.585 1514.5 542.446 1520.5 537.254C1522.8 535.254 1525.75 534.153 1528.8 534.153C1529.5 534.153 1530.21 534.213 1530.91 534.331C1532.35 534.574 1533.72 535.057 1534.96 535.748C1534.99 534.325 1535.25 532.9 1535.76 531.529C1537.09 527.953 1539.91 525.185 1543.5 523.933C1550.98 521.323 1558.81 520 1566.77 520C1574.72 520 1582.55 521.323 1590.03 523.933C1593.62 525.183 1596.44 527.952 1597.77 531.531C1598.28 532.9 1598.54 534.324 1598.57 535.744C1599.81 535.056 1601.17 534.574 1602.61 534.331C1603.31 534.214 1604.02 534.155 1604.73 534.155C1607.78 534.155 1610.73 535.256 1613.04 537.257C1619.03 542.444 1624.08 548.582 1628.07 555.5C1632.05 562.416 1634.82 569.878 1636.3 577.679C1637.02 581.424 1636.03 585.258 1633.61 588.196ZM1572.93 601.719C1572.97 599.585 1573.53 597.459 1574.63 595.555C1575.73 593.651 1577.28 592.097 1579.1 591C1577.28 589.903 1575.73 588.349 1574.63 586.446C1573.53 584.542 1572.97 582.416 1572.93 580.281C1571.07 581.317 1568.96 581.89 1566.77 581.89C1564.57 581.89 1562.46 581.318 1560.6 580.281C1560.56 582.416 1560 584.543 1558.9 586.446C1557.8 588.348 1556.25 589.903 1554.42 591C1556.25 592.097 1557.81 593.653 1558.9 595.558C1560 597.46 1560.56 599.586 1560.6 601.719C1562.46 600.683 1564.57 600.112 1566.76 600.112C1568.96 600.112 1571.07 600.684 1572.93 601.719ZM1559.16 591C1559.16 586.786 1562.56 583.369 1566.77 583.369C1570.97 583.369 1574.37 586.786 1574.37 591C1574.37 595.214 1570.97 598.63 1566.77 598.63C1562.56 598.63 1559.16 595.214 1559.16 591ZM1566.77 577.336C1563.86 577.336 1561.14 575.766 1559.69 573.239L1540.6 540.073C1539.38 537.95 1539.17 535.414 1540.02 533.116C1540.87 530.818 1542.68 529.039 1544.99 528.234C1551.99 525.791 1559.32 524.553 1566.77 524.553C1574.22 524.553 1581.54 525.791 1588.54 528.234C1590.85 529.039 1592.66 530.818 1593.51 533.117C1594.37 535.415 1594.16 537.95 1592.93 540.073L1573.84 573.239C1572.39 575.766 1569.68 577.336 1566.77 577.336ZM1503.42 585.293C1504.98 587.184 1507.27 588.267 1509.71 588.267L1547.89 588.265C1550.8 588.265 1553.51 586.696 1554.97 584.168C1556.42 581.64 1556.42 578.499 1554.97 575.971L1535.88 542.806C1534.66 540.682 1532.58 539.229 1530.17 538.822C1529.72 538.747 1529.26 538.707 1528.8 538.707C1526.84 538.707 1524.95 539.416 1523.46 540.701C1517.86 545.556 1513.12 551.301 1509.4 557.776C1505.67 564.247 1503.08 571.231 1501.69 578.532C1501.23 580.94 1501.86 583.405 1503.42 585.293ZM1623.82 588.267H1585.64C1582.73 588.267 1580.02 586.696 1578.56 584.168C1577.11 581.64 1577.11 578.499 1578.56 575.973L1597.65 542.806C1598.87 540.682 1600.95 539.23 1603.37 538.822C1603.81 538.747 1604.27 538.708 1604.73 538.708C1606.69 538.708 1608.58 539.415 1610.07 540.701C1615.68 545.559 1620.41 551.306 1624.13 557.777C1627.86 564.25 1630.45 571.234 1631.84 578.533C1632.3 580.942 1631.67 583.405 1630.11 585.293C1628.56 587.184 1626.26 588.267 1623.82 588.267ZM1523.46 641.298C1524.95 642.583 1526.84 643.291 1528.8 643.292C1529.26 643.292 1529.71 643.252 1530.16 643.178C1532.57 642.77 1534.66 641.319 1535.88 639.194L1554.97 606.029C1556.42 603.501 1556.42 600.36 1554.97 597.833C1553.51 595.303 1550.8 593.734 1547.89 593.734L1509.71 593.732C1507.27 593.732 1504.97 594.816 1503.42 596.707C1501.86 598.596 1501.23 601.061 1501.69 603.468C1503.08 610.769 1505.67 617.751 1509.4 624.223C1513.12 630.694 1517.85 636.438 1523.46 641.298ZM1604.73 643.292C1604.27 643.292 1603.82 643.253 1603.37 643.178C1600.96 642.772 1598.87 641.319 1597.65 639.195L1578.56 606.028C1577.11 603.502 1577.11 600.361 1578.56 597.833C1580.02 595.305 1582.73 593.734 1585.64 593.734H1623.82C1626.26 593.734 1628.56 594.816 1630.11 596.707C1631.67 598.596 1632.3 601.06 1631.84 603.467C1630.45 610.768 1627.86 617.75 1624.13 624.223C1620.41 630.697 1615.68 636.442 1610.07 641.299C1608.58 642.585 1606.69 643.292 1604.73 643.292ZM1566.76 657.446C1559.31 657.446 1551.98 656.208 1544.99 653.767C1542.68 652.961 1540.87 651.182 1540.02 648.883C1539.16 646.586 1539.37 644.05 1540.6 641.926L1559.69 608.76C1561.14 606.234 1563.85 604.664 1566.76 604.664C1569.67 604.664 1572.39 606.234 1573.84 608.76L1592.93 641.926C1594.15 644.052 1594.37 646.586 1593.51 648.883C1592.66 651.181 1590.85 652.961 1588.54 653.767C1581.54 656.208 1574.21 657.446 1566.76 657.446Z" fill="white" fill-opacity="0.21"/>
<path fill-rule="evenodd" clip-rule="evenodd" d="M1446.11 249.719C1443.28 253.151 1439.94 256.025 1436.24 258.26C1439.94 260.499 1443.28 263.37 1446.11 266.804C1453.49 275.743 1456.47 287.421 1454.31 298.834C1449.78 322.599 1441.34 345.331 1429.21 366.393C1417.09 387.466 1401.68 406.161 1383.43 421.967C1376.42 428.052 1367.43 431.406 1358.13 431.406C1356.01 431.406 1353.84 431.226 1351.71 430.868C1347.32 430.131 1343.15 428.658 1339.37 426.559C1339.29 430.895 1338.48 435.239 1336.92 439.414C1332.89 450.286 1324.31 458.72 1313.37 462.546C1290.58 470.493 1266.74 474.522 1242.5 474.522C1218.25 474.522 1194.41 470.493 1171.63 462.546C1160.68 458.72 1152.1 450.285 1148.06 439.401C1146.51 435.23 1145.71 430.895 1145.62 426.559C1141.84 428.654 1137.69 430.126 1133.31 430.868C1131.15 431.226 1128.99 431.406 1126.86 431.406H1126.86C1117.56 431.401 1108.58 428.042 1101.56 421.954C1083.3 406.131 1067.9 387.436 1055.79 366.393C1043.66 345.317 1035.22 322.586 1030.7 298.834C1028.52 287.439 1031.5 275.757 1038.89 266.801C1041.72 263.363 1045.06 260.49 1048.76 258.256C1045.06 256.019 1041.72 253.147 1038.89 249.71C1031.51 240.758 1028.53 229.08 1030.7 217.677C1035.22 193.917 1043.66 171.191 1055.79 150.129C1067.91 129.066 1083.31 110.368 1101.57 94.5529C1108.59 88.4635 1117.57 85.1098 1126.86 85.1098C1128.99 85.1098 1131.15 85.2903 1133.29 85.6512C1137.68 86.3927 1141.84 87.8635 1145.63 89.9675C1145.71 85.6317 1146.52 81.2929 1148.07 77.115C1152.11 66.2251 1160.7 57.7942 1171.63 53.9803C1194.43 46.0291 1218.27 42.0001 1242.5 42.0001C1266.74 42.0001 1290.59 46.0291 1313.37 53.9788C1324.31 57.7867 1332.9 66.2221 1336.94 77.1225C1338.48 81.2914 1339.29 85.6302 1339.37 89.9554C1343.15 87.8605 1347.31 86.3911 1351.69 85.6497C1353.82 85.2948 1355.98 85.1143 1358.13 85.1143C1367.43 85.1143 1376.42 88.4696 1383.44 94.5619C1401.69 110.362 1417.09 129.059 1429.22 150.132C1441.34 171.197 1449.78 193.926 1454.31 217.686C1456.48 229.093 1453.49 240.771 1446.11 249.719ZM1261.29 290.91C1261.4 284.409 1263.12 277.933 1266.46 272.134C1269.79 266.335 1274.52 261.602 1280.08 258.262C1274.52 254.92 1269.79 250.186 1266.46 244.39C1263.12 238.589 1261.4 232.115 1261.29 225.612C1255.62 228.768 1249.17 230.511 1242.5 230.511C1235.83 230.511 1229.38 228.77 1223.71 225.612C1223.6 232.113 1221.88 238.593 1218.54 244.39C1215.2 250.184 1210.47 254.92 1204.91 258.262C1210.48 261.602 1215.21 266.342 1218.54 272.143C1221.88 277.937 1223.61 284.413 1223.71 290.91C1229.38 287.753 1235.83 286.015 1242.5 286.015C1249.17 286.015 1255.62 287.756 1261.29 290.91ZM1219.33 258.26C1219.33 245.424 1229.7 235.019 1242.5 235.019C1255.3 235.019 1265.67 245.424 1265.67 258.26C1265.67 271.096 1255.3 281.502 1242.5 281.502C1229.7 281.502 1219.33 271.096 1219.33 258.26ZM1242.5 216.642C1233.64 216.642 1225.38 211.86 1220.95 204.161L1162.8 103.142C1159.08 96.6749 1158.43 88.9493 1161.03 81.9501C1163.63 74.9493 1169.15 69.5307 1176.18 67.0809C1197.5 59.6395 1219.82 55.8692 1242.5 55.8692C1265.2 55.8692 1287.51 59.6395 1308.83 67.0809C1315.86 69.5307 1321.38 74.9493 1323.98 81.9546C1326.57 88.9538 1325.93 96.6749 1322.21 103.142L1264.06 204.161C1259.62 211.86 1251.36 216.642 1242.5 216.642ZM1049.54 240.878C1054.29 246.638 1061.28 249.937 1068.73 249.937L1185.02 249.931C1193.88 249.931 1202.13 245.15 1206.57 237.45C1211 229.75 1211 220.182 1206.57 212.484L1148.43 111.464C1144.7 104.995 1138.36 100.571 1131.02 99.3293C1129.65 99.1007 1128.25 98.9788 1126.87 98.9788C1120.9 98.9788 1115.12 101.138 1110.6 105.055C1093.53 119.841 1079.11 137.341 1067.76 157.063C1056.41 176.772 1048.51 198.045 1044.28 220.283C1042.88 227.619 1044.8 235.127 1049.54 240.878ZM1416.28 249.937H1299.99C1291.12 249.937 1282.86 245.152 1278.43 237.452C1274 229.752 1274 220.184 1278.43 212.488L1336.57 111.464C1340.29 104.995 1346.64 100.572 1353.98 99.3293C1355.35 99.1007 1356.74 98.9834 1358.12 98.9834C1364.1 98.9834 1369.88 101.137 1374.39 105.055C1391.48 119.852 1405.89 137.354 1417.24 157.066C1428.58 176.781 1436.49 198.054 1440.72 220.286C1442.12 227.624 1440.2 235.125 1435.45 240.876C1430.71 246.638 1423.72 249.937 1416.28 249.937ZM1110.6 411.465C1115.12 415.379 1120.89 417.537 1126.87 417.54C1128.25 417.54 1129.65 417.418 1131.01 417.192C1138.36 415.949 1144.7 411.529 1148.42 405.057L1206.57 304.038C1211 296.338 1211 286.77 1206.57 279.074C1202.14 271.368 1193.88 266.589 1185.01 266.589L1068.72 266.583C1061.28 266.583 1054.29 269.884 1049.54 275.644C1044.8 281.398 1042.88 288.905 1044.28 296.237C1048.51 318.475 1056.41 339.742 1067.76 359.457C1079.1 379.166 1093.52 396.662 1110.6 411.465ZM1358.13 417.54C1356.75 417.54 1355.35 417.419 1353.98 417.191C1346.64 415.953 1340.3 411.529 1336.57 405.06L1278.43 304.036C1274 296.342 1274 286.773 1278.43 279.073C1282.86 271.374 1291.12 266.587 1299.99 266.587H1416.28C1423.72 266.587 1430.71 269.885 1435.46 275.642C1440.2 281.396 1442.12 288.904 1440.72 296.235C1436.49 318.474 1428.59 339.741 1417.24 359.456C1405.89 379.175 1391.48 396.674 1374.4 411.468C1369.88 415.386 1364.1 417.54 1358.13 417.54ZM1242.5 460.651C1219.8 460.651 1197.48 456.881 1176.17 449.445C1169.14 446.989 1163.62 441.569 1161.03 434.569C1158.43 427.571 1159.07 419.848 1162.79 413.378L1220.94 312.357C1225.38 304.663 1233.64 299.881 1242.5 299.881C1251.36 299.881 1259.62 304.663 1264.05 312.357L1322.2 413.378C1325.92 419.853 1326.57 427.572 1323.97 434.569C1321.37 441.568 1315.85 446.989 1308.82 449.445C1287.51 456.881 1265.19 460.651 1242.5 460.651Z" fill="white" fill-opacity="0.21"/>
<path fill-rule="evenodd" clip-rule="evenodd" d="M450.335 365.69C452.665 364.818 455.089 364.36 457.508 364.313C456.341 362.193 455.523 359.866 455.113 357.411C454.039 351.015 455.859 344.522 460.103 339.598C468.945 329.349 479.395 320.696 491.16 313.882C502.932 307.063 515.627 302.314 528.892 299.761C533.994 298.776 539.287 299.665 543.79 302.265C544.82 302.859 545.818 303.552 546.755 304.324C548.676 305.909 550.28 307.787 551.527 309.863C552.78 307.785 554.388 305.907 556.308 304.318C561.302 300.178 567.821 298.492 574.192 299.699C587.458 302.224 600.139 306.942 611.884 313.723C623.632 320.506 634.058 329.129 642.872 339.351C647.106 344.267 648.906 350.756 647.816 357.159C647.401 359.614 646.579 361.94 645.405 364.064C647.824 364.107 650.249 364.555 652.578 365.421C653.727 365.853 654.824 366.37 655.852 366.964L655.856 366.966C660.358 369.568 663.77 373.709 665.469 378.623C669.89 391.398 672.123 404.765 672.104 418.349C672.085 431.955 669.817 445.331 665.362 458.104C663.23 464.235 658.517 469.062 652.432 471.335C650.099 472.209 647.675 472.666 645.258 472.714C646.424 474.832 647.241 477.159 647.65 479.616C648.721 486.018 646.899 492.511 642.658 497.429C633.819 507.677 623.371 516.327 611.603 523.14C599.836 529.954 587.142 534.706 573.874 537.263C568.769 538.25 563.477 537.361 558.975 534.762C557.945 534.167 556.949 533.475 556.011 532.701C554.09 531.113 552.485 529.236 551.239 527.157C549.986 529.235 548.381 531.112 546.463 532.703C541.459 536.85 534.939 538.532 528.572 537.32C515.303 534.797 502.623 530.079 490.882 523.3C479.135 516.518 468.708 507.895 459.892 497.669C455.659 492.765 453.855 486.273 454.949 479.863C455.367 477.41 456.19 475.082 457.36 472.964C454.941 472.92 452.516 472.47 450.184 471.603C449.055 471.18 447.956 470.662 446.917 470.062C442.41 467.46 438.993 463.32 437.294 458.403C432.874 445.643 430.64 432.274 430.66 418.671C430.677 405.071 432.946 391.697 437.4 378.918C439.539 372.783 444.255 367.961 450.335 365.69ZM551.412 397.435C549.541 400.555 546.896 403.211 543.655 405.087C540.417 406.964 536.8 407.934 533.173 407.998C534.931 411.172 535.899 414.789 535.893 418.53C535.888 422.275 534.912 425.894 533.145 429.075C536.774 429.131 540.386 430.091 543.619 431.957C546.853 433.824 549.492 436.473 551.354 439.589C553.225 436.468 555.872 433.81 559.111 431.935C562.349 430.061 565.967 429.09 569.596 429.026C567.834 425.851 566.867 422.23 566.873 418.486C566.879 414.746 567.854 411.125 569.622 407.948C565.992 407.892 562.381 406.93 559.149 405.064C555.914 403.196 553.275 400.548 551.412 397.435ZM562.609 424.993C559.018 431.213 551.081 433.353 544.88 429.773C538.679 426.193 536.564 418.249 540.155 412.029C543.746 405.81 551.683 403.67 557.884 407.25C564.084 410.83 566.2 418.774 562.609 424.993ZM539.738 438.677C544.033 441.157 546.697 445.784 546.692 450.755L546.606 515.971C546.599 520.145 544.75 524.069 541.535 526.734C538.318 529.4 534.128 530.482 530.035 529.701C517.622 527.342 505.752 522.925 494.761 516.579C483.765 510.231 474.006 502.16 465.76 492.592C463.038 489.438 461.879 485.268 462.581 481.147C463.281 477.03 465.753 473.468 469.365 471.375L525.801 438.694C530.105 436.205 535.444 436.198 539.738 438.677ZM640.016 480.915C639.327 476.795 636.862 473.241 633.255 471.158L576.905 438.628C572.61 436.149 567.274 436.156 562.97 438.647C558.669 441.138 555.992 445.774 555.984 450.743L555.898 515.959C555.893 520.136 557.729 524.053 560.938 526.709C561.538 527.203 562.18 527.652 562.852 528.04C565.746 529.711 569.148 530.28 572.432 529.646C584.843 527.258 596.724 522.812 607.742 516.431C618.753 510.055 628.533 501.958 636.806 492.366C639.534 489.202 640.704 485.027 640.016 480.915ZM464.851 373.93L521.199 406.463C525.496 408.943 528.159 413.572 528.152 418.543C528.145 423.514 525.468 428.15 521.168 430.639L464.733 463.325C461.119 465.418 456.808 465.786 452.902 464.334C452.176 464.062 451.469 463.73 450.798 463.343C447.903 461.671 445.705 459.011 444.613 455.849C440.474 443.899 438.386 431.386 438.403 418.661C438.421 405.935 440.542 393.415 444.712 381.459C446.085 377.512 449.115 374.414 453.023 372.955C456.933 371.49 461.244 371.847 464.851 373.93ZM658.153 381.175C657.059 378.015 654.865 375.354 651.972 373.682C651.3 373.294 650.591 372.963 649.865 372.69C645.958 371.238 641.649 371.606 638.034 373.699L581.6 406.383C577.298 408.874 574.622 413.51 574.616 418.479C574.607 423.452 577.273 428.079 581.568 430.559L637.915 463.094C641.522 465.177 645.832 465.533 649.743 464.069C653.652 462.609 656.682 459.508 658.055 455.564C662.224 443.603 664.345 431.088 664.363 418.362C664.381 405.639 662.29 393.127 658.153 381.175ZM539.911 308.984C540.581 309.371 541.224 309.819 541.824 310.314C545.035 312.967 546.873 316.887 546.869 321.063L546.78 386.28C546.773 391.247 544.096 395.884 539.795 398.375C535.494 400.866 530.153 400.875 525.857 398.395L469.508 365.862C465.901 363.779 463.435 360.225 462.747 356.108C462.058 351.993 463.23 347.819 465.958 344.657C474.231 335.066 484.009 326.972 495.021 320.593C506.037 314.213 517.917 309.766 530.332 307.376C533.617 306.741 537.018 307.313 539.911 308.984ZM608.003 320.444C619.004 326.795 628.762 334.865 637.006 344.428C639.726 347.585 640.885 351.756 640.184 355.874C639.486 359.992 637.014 363.554 633.399 365.648L576.963 398.33C572.661 400.818 567.321 400.824 563.028 398.345C558.733 395.866 556.068 391.237 556.073 386.269L556.158 321.053C556.166 316.874 558.013 312.953 561.23 310.29C564.446 307.625 568.636 306.542 572.731 307.319C585.139 309.679 597.007 314.095 608.003 320.444Z" fill="white" fill-opacity="0.21"/>
<path fill-rule="evenodd" clip-rule="evenodd" d="M141.52 422.983C142.887 422.472 144.309 422.203 145.729 422.175C145.044 420.931 144.564 419.566 144.324 418.125C143.693 414.373 144.762 410.562 147.251 407.673C152.44 401.66 158.571 396.582 165.475 392.583C172.382 388.582 179.832 385.796 187.616 384.298C190.609 383.72 193.715 384.241 196.357 385.767C196.962 386.116 197.547 386.522 198.097 386.975C199.224 387.905 200.165 389.007 200.897 390.226C201.632 389.006 202.576 387.904 203.702 386.972C206.633 384.542 210.458 383.553 214.196 384.261C221.981 385.743 229.422 388.512 236.313 392.491C243.206 396.47 249.325 401.53 254.496 407.528C256.981 410.413 258.037 414.221 257.397 417.978C257.154 419.418 256.671 420.783 255.983 422.029C257.402 422.055 258.825 422.318 260.192 422.826C260.865 423.079 261.509 423.382 262.113 423.731L262.115 423.732C264.756 425.259 266.759 427.689 267.756 430.572C270.35 438.068 271.66 445.912 271.649 453.883C271.638 461.866 270.307 469.715 267.693 477.21C266.442 480.807 263.676 483.64 260.106 484.973C258.737 485.486 257.315 485.754 255.896 485.782C256.581 487.025 257.06 488.391 257.3 489.832C257.928 493.589 256.859 497.399 254.37 500.285C249.184 506.298 243.054 511.374 236.148 515.372C229.244 519.37 221.795 522.158 214.01 523.658C211.014 524.237 207.909 523.716 205.267 522.191C204.663 521.842 204.078 521.436 203.528 520.981C202.401 520.05 201.459 518.948 200.728 517.729C199.993 518.948 199.051 520.049 197.926 520.983C194.989 523.416 191.164 524.403 187.427 523.692C179.642 522.211 172.201 519.443 165.312 515.465C158.419 511.486 152.301 506.426 147.128 500.426C144.644 497.548 143.585 493.739 144.228 489.977C144.472 488.538 144.955 487.172 145.642 485.929C144.222 485.904 142.8 485.639 141.431 485.13C140.769 484.883 140.124 484.579 139.514 484.227C136.87 482.7 134.865 480.27 133.868 477.385C131.274 469.898 129.963 462.053 129.975 454.071C129.985 446.091 131.316 438.244 133.93 430.745C135.185 427.145 137.952 424.316 141.52 422.983ZM200.83 441.611C199.732 443.441 198.179 445 196.278 446.101C194.378 447.202 192.256 447.771 190.127 447.809C191.159 449.671 191.727 451.794 191.723 453.989C191.721 456.186 191.148 458.31 190.111 460.176C192.24 460.209 194.36 460.772 196.257 461.867C198.154 462.963 199.703 464.517 200.796 466.345C201.894 464.515 203.447 462.955 205.347 461.855C207.247 460.755 209.37 460.185 211.5 460.148C210.466 458.285 209.898 456.16 209.902 453.963C209.905 451.768 210.477 449.643 211.515 447.78C209.385 447.747 207.266 447.182 205.369 446.087C203.471 444.991 201.923 443.437 200.83 441.611ZM207.4 457.781C205.293 461.431 200.635 462.687 196.997 460.586C193.358 458.485 192.117 453.824 194.224 450.174C196.331 446.525 200.989 445.269 204.627 447.37C208.265 449.47 209.507 454.132 207.4 457.781ZM193.98 465.81C196.5 467.266 198.063 469.981 198.06 472.898L198.01 511.165C198.006 513.614 196.921 515.916 195.034 517.48C193.146 519.045 190.688 519.679 188.286 519.222C181.002 517.837 174.038 515.245 167.588 511.522C161.136 507.797 155.409 503.061 150.571 497.446C148.974 495.596 148.294 493.149 148.706 490.731C149.117 488.315 150.567 486.225 152.686 484.997L185.801 465.82C188.327 464.36 191.46 464.356 193.98 465.81ZM252.821 490.595C252.416 488.177 250.97 486.092 248.853 484.87L215.788 465.782C213.268 464.327 210.137 464.331 207.612 465.793C205.088 467.254 203.517 469.975 203.512 472.89L203.462 511.158C203.459 513.609 204.536 515.907 206.419 517.465C206.771 517.755 207.148 518.019 207.543 518.247C209.24 519.227 211.237 519.561 213.164 519.189C220.446 517.788 227.418 515.179 233.883 511.435C240.344 507.693 246.082 502.942 250.937 497.314C252.538 495.458 253.224 493.008 252.821 490.595ZM150.038 427.818L183.102 446.908C185.623 448.363 187.185 451.08 187.181 453.996C187.177 456.913 185.606 459.633 183.083 461.094L149.968 480.273C147.848 481.502 145.318 481.718 143.026 480.865C142.6 480.706 142.185 480.511 141.792 480.284C140.093 479.303 138.803 477.742 138.162 475.887C135.733 468.875 134.509 461.533 134.519 454.066C134.529 446.598 135.774 439.252 138.22 432.236C139.026 429.92 140.804 428.102 143.097 427.246C145.391 426.387 147.921 426.596 150.038 427.818ZM263.463 432.07C262.821 430.216 261.533 428.654 259.836 427.673C259.442 427.445 259.026 427.251 258.6 427.091C256.307 426.239 253.778 426.455 251.657 427.683L218.543 446.861C216.019 448.323 214.449 451.043 214.445 453.959C214.44 456.877 216.004 459.592 218.525 461.047L251.588 480.138C253.704 481.36 256.233 481.569 258.528 480.71C260.822 479.853 262.6 478.034 263.405 475.719C265.852 468.701 267.096 461.358 267.107 453.89C267.117 446.424 265.89 439.083 263.463 432.07ZM194.081 389.709C194.474 389.937 194.852 390.2 195.204 390.49C197.088 392.047 198.166 394.347 198.164 396.797L198.112 435.065C198.107 437.98 196.537 440.7 194.013 442.162C191.489 443.624 188.355 443.629 185.834 442.174L152.77 423.084C150.654 421.862 149.207 419.777 148.803 417.361C148.399 414.946 149.087 412.497 150.687 410.642C155.541 405.014 161.279 400.264 167.741 396.521C174.205 392.778 181.176 390.168 188.46 388.766C190.388 388.394 192.384 388.729 194.081 389.709ZM234.036 396.434C240.491 400.161 246.217 404.896 251.054 410.508C252.65 412.36 253.33 414.807 252.919 417.224C252.509 419.64 251.059 421.73 248.938 422.958L215.822 442.136C213.298 443.595 210.165 443.599 207.645 442.145C205.126 440.69 203.561 437.974 203.564 435.059L203.615 396.791C203.619 394.339 204.703 392.039 206.591 390.476C208.477 388.912 210.937 388.277 213.339 388.733C220.62 390.117 227.584 392.709 234.036 396.434Z" fill="white" fill-opacity="0.21"/>
<path fill-rule="evenodd" clip-rule="evenodd" d="M325.959 84.7129C327.73 84.0496 329.574 83.702 331.413 83.666C330.526 82.0539 329.904 80.2847 329.592 78.418C328.775 73.5552 330.16 68.6179 333.386 64.8743C340.109 57.082 348.054 50.5027 357 45.3213C365.95 40.137 375.603 36.5266 385.689 34.5854C389.568 33.8358 393.592 34.5121 397.016 36.4887C397.799 36.9409 398.558 37.4676 399.27 38.0545C400.731 39.2598 401.95 40.6872 402.899 42.2663C403.851 40.6861 405.074 39.2579 406.534 38.0499C410.331 34.9018 415.287 33.6203 420.131 34.5375C430.218 36.4576 439.86 40.0452 448.79 45.201C457.722 50.3578 465.65 56.9141 472.351 64.6867C475.57 68.4246 476.939 73.3585 476.11 78.2265C475.795 80.093 475.17 81.8619 474.277 83.4765C476.116 83.5093 477.96 83.8503 479.731 84.5087C480.604 84.837 481.438 85.23 482.22 85.6813L482.223 85.6829C485.646 87.6615 488.241 90.8099 489.532 94.5462C492.894 104.259 494.591 114.423 494.577 124.751C494.563 135.096 492.838 145.267 489.451 154.978C487.829 159.64 484.246 163.31 479.619 165.038C477.846 165.703 476.003 166.05 474.165 166.086C475.052 167.697 475.673 169.466 475.984 171.334C476.798 176.202 475.413 181.139 472.188 184.878C465.468 192.67 457.524 199.247 448.576 204.427C439.63 209.608 429.978 213.221 419.889 215.165C416.008 215.915 411.985 215.24 408.561 213.263C407.779 212.811 407.021 212.285 406.308 211.696C404.847 210.489 403.627 209.062 402.679 207.481C401.727 209.061 400.507 210.488 399.049 211.698C395.244 214.851 390.286 216.13 385.445 215.209C375.357 213.29 365.715 209.703 356.788 204.549C347.857 199.392 339.929 192.836 333.226 185.061C330.007 181.332 328.635 176.396 329.468 171.522C329.785 169.657 330.411 167.887 331.301 166.277C329.461 166.244 327.617 165.901 325.844 165.241C324.986 164.92 324.15 164.526 323.36 164.07C319.933 162.092 317.336 158.944 316.044 155.205C312.683 145.503 310.985 135.339 310.999 124.996C311.012 114.655 312.738 104.487 316.125 94.7704C317.751 90.1057 321.336 86.4393 325.959 84.7129ZM402.811 108.85C401.389 111.222 399.377 113.242 396.913 114.668C394.451 116.095 391.702 116.832 388.943 116.881C390.28 119.294 391.016 122.044 391.012 124.889C391.008 127.736 390.265 130.488 388.922 132.907C391.681 132.949 394.428 133.679 396.886 135.098C399.344 136.517 401.351 138.531 402.767 140.9C404.19 138.528 406.202 136.507 408.665 135.081C411.127 133.656 413.878 132.918 416.637 132.87C415.298 130.455 414.562 127.702 414.567 124.856C414.571 122.012 415.312 119.258 416.656 116.843C413.897 116.801 411.151 116.069 408.694 114.65C406.234 113.23 404.228 111.217 402.811 108.85ZM411.325 129.803C408.594 134.532 402.559 136.159 397.845 133.437C393.13 130.715 391.522 124.675 394.252 119.946C396.982 115.217 403.017 113.59 407.732 116.312C412.446 119.034 414.055 125.074 411.325 129.803ZM393.935 140.207C397.201 142.093 399.226 145.611 399.222 149.391L399.157 198.976C399.152 202.15 397.746 205.133 395.301 207.16C392.855 209.187 389.67 210.009 386.558 209.416C377.119 207.622 368.095 204.264 359.737 199.438C351.377 194.612 343.957 188.475 337.687 181.2C335.618 178.802 334.737 175.632 335.27 172.499C335.803 169.368 337.682 166.66 340.428 165.069L383.338 140.22C386.611 138.327 390.67 138.322 393.935 140.207ZM470.18 172.322C469.656 169.19 467.782 166.487 465.039 164.904L422.194 140.17C418.929 138.285 414.871 138.291 411.599 140.184C408.329 142.078 406.294 145.603 406.287 149.381L406.222 198.967C406.218 202.143 407.614 205.121 410.054 207.14C410.51 207.516 410.999 207.858 411.51 208.153C413.71 209.423 416.296 209.855 418.794 209.374C428.23 207.558 437.264 204.177 445.641 199.326C454.013 194.478 461.448 188.321 467.739 181.029C469.813 178.623 470.703 175.449 470.18 172.322ZM336.996 90.9779L379.84 115.714C383.106 117.6 385.131 121.119 385.126 124.899C385.12 128.678 383.085 132.203 379.816 134.096L336.907 158.947C334.159 160.539 330.88 160.819 327.911 159.715C327.359 159.508 326.821 159.256 326.311 158.961C324.11 157.69 322.439 155.668 321.609 153.264C318.461 144.178 316.874 134.664 316.887 124.989C316.901 115.312 318.513 105.793 321.684 96.7027C322.728 93.7012 325.031 91.3461 328.003 90.2367C330.975 89.1227 334.254 89.3945 336.996 90.9779ZM483.97 96.4866C483.138 94.0841 481.469 92.0609 479.27 90.7895C478.759 90.4945 478.22 90.2432 477.668 90.0354C474.698 88.9313 471.421 89.2107 468.672 90.8027L425.764 115.653C422.493 117.547 420.458 121.072 420.454 124.85C420.447 128.631 422.474 132.149 425.74 134.035L468.582 158.772C471.324 160.356 474.602 160.626 477.575 159.514C480.547 158.403 482.851 156.045 483.895 153.047C487.065 143.953 488.678 134.437 488.692 124.761C488.705 115.087 487.115 105.574 483.97 96.4866ZM394.066 41.5973C394.576 41.8916 395.065 42.2328 395.521 42.6085C397.962 44.6259 399.36 47.6063 399.357 50.7818L399.289 100.368C399.284 104.145 397.248 107.67 393.978 109.565C390.708 111.458 386.647 111.465 383.381 109.579L340.537 84.8435C337.795 83.2601 335.92 80.5576 335.397 77.4276C334.872 74.2984 335.764 71.1252 337.838 68.7211C344.128 61.4286 351.562 55.2742 359.936 50.4241C368.311 45.5733 377.344 42.1921 386.784 40.3748C389.281 39.8923 391.867 40.3273 394.066 41.5973ZM445.839 50.311C454.203 55.1399 461.623 61.2756 467.891 68.547C469.959 70.9475 470.84 74.1186 470.307 77.2498C469.776 80.3809 467.897 83.0892 465.148 84.6806L422.238 109.53C418.968 111.422 414.907 111.427 411.643 109.542C408.378 107.657 406.351 104.137 406.355 100.36L406.42 50.7737C406.426 47.5966 407.83 44.6154 410.276 42.5909C412.721 40.5643 415.907 39.7408 419.021 40.332C428.454 42.126 437.478 45.4839 445.839 50.311Z" fill="white" fill-opacity="0.21"/>
<path fill-rule="evenodd" clip-rule="evenodd" d="M112.435 732.367C116.599 730.808 120.931 729.991 125.254 729.906C123.17 726.117 121.708 721.958 120.975 717.57C119.055 706.139 122.309 694.533 129.893 685.733C145.697 667.416 164.373 651.95 185.402 639.771C206.44 627.584 229.13 619.097 252.839 614.534C261.957 612.772 271.418 614.362 279.465 619.008C281.307 620.071 283.09 621.309 284.764 622.689C288.197 625.522 291.064 628.878 293.294 632.589C295.532 628.875 298.407 625.518 301.839 622.678C310.765 615.278 322.415 612.266 333.802 614.422C357.512 618.935 380.177 627.368 401.169 639.488C422.165 651.61 440.8 667.022 456.553 685.292C464.12 694.079 467.337 705.677 465.389 717.12C464.648 721.507 463.178 725.665 461.081 729.461C465.404 729.538 469.737 730.339 473.9 731.887C475.953 732.659 477.914 733.583 479.751 734.643L479.758 734.647C487.805 739.298 493.904 746.699 496.94 755.482C504.841 778.314 508.833 802.206 508.799 826.484C508.765 850.801 504.711 874.709 496.748 897.537C492.937 908.495 484.515 917.122 473.638 921.184C469.469 922.746 465.137 923.562 460.817 923.648C462.902 927.434 464.361 931.594 465.093 935.984C467.006 947.427 463.75 959.031 456.17 967.822C440.372 986.137 421.699 1001.6 400.666 1013.77C379.636 1025.95 356.948 1034.45 333.233 1039.02C324.109 1040.78 314.652 1039.19 306.605 1034.55C304.765 1033.48 302.984 1032.25 301.308 1030.86C297.874 1028.02 295.006 1024.67 292.778 1020.95C290.539 1024.67 287.671 1028.02 284.243 1030.87C275.299 1038.28 263.646 1041.28 252.266 1039.12C228.552 1034.61 205.888 1026.18 184.904 1014.06C163.908 1001.94 145.273 986.527 129.517 968.251C121.951 959.486 118.726 947.883 120.682 936.426C121.428 932.043 122.899 927.882 124.991 924.096C120.667 924.018 116.333 923.212 112.165 921.663C110.148 920.908 108.183 919.981 106.326 918.909C98.2706 914.259 92.1641 906.859 89.1271 898.07C81.2266 875.265 77.2348 851.371 77.2695 827.058C77.3005 802.752 81.3559 778.848 89.3174 756.009C93.1396 745.044 101.568 736.425 112.435 732.367ZM293.089 789.104C289.744 794.681 285.016 799.428 279.223 802.78C273.436 806.135 266.973 807.869 260.49 807.982C263.632 813.655 265.362 820.121 265.351 826.807C265.343 833.5 263.597 839.969 260.439 845.654C266.926 845.754 273.382 847.469 279.16 850.805C284.939 854.142 289.656 858.876 292.985 864.444C296.329 858.868 301.06 854.116 306.849 850.766C312.635 847.416 319.103 845.681 325.588 845.567C322.44 839.892 320.711 833.42 320.722 826.729C320.731 820.043 322.474 813.572 325.634 807.894C319.147 807.794 312.692 806.075 306.916 802.74C301.134 799.402 296.418 794.668 293.089 789.104ZM313.1 838.359C306.682 849.475 292.496 853.3 281.413 846.902C270.331 840.503 266.55 826.305 272.968 815.189C279.386 804.072 293.573 800.248 304.655 806.646C315.737 813.044 319.518 827.243 313.1 838.359ZM272.224 862.815C279.9 867.247 284.661 875.518 284.652 884.403L284.498 1000.96C284.486 1008.42 281.182 1015.43 275.435 1020.2C269.686 1024.96 262.197 1026.9 254.882 1025.5C232.695 1021.28 211.481 1013.39 191.836 1002.05C172.184 990.702 154.741 976.278 140.003 959.176C135.14 953.539 133.068 946.087 134.322 938.721C135.574 931.362 139.992 924.997 146.446 921.257L247.313 862.845C255.006 858.397 264.549 858.384 272.224 862.815ZM451.449 938.306C450.217 930.943 445.812 924.59 439.365 920.868L338.65 862.728C330.975 858.296 321.437 858.31 313.746 862.761C306.058 867.213 301.274 875.499 301.259 884.38L301.107 1000.94C301.097 1008.4 304.378 1015.41 310.114 1020.15C311.186 1021.04 312.334 1021.84 313.535 1022.53C318.707 1025.52 324.787 1026.53 330.657 1025.4C352.838 1021.13 374.074 1013.19 393.766 1001.78C413.445 990.388 430.924 975.915 445.71 958.773C450.587 953.118 452.678 945.656 451.449 938.306ZM138.379 747.094L239.09 805.239C246.769 809.673 251.528 817.946 251.516 826.83C251.503 835.714 246.719 844 239.034 848.449L138.169 906.867C131.71 910.609 124.003 911.267 117.022 908.671C115.725 908.186 114.462 907.592 113.263 906.9C108.089 903.913 104.16 899.158 102.208 893.507C94.8098 872.149 91.0793 849.785 91.11 827.042C91.1421 804.295 94.9319 781.92 102.385 760.551C104.84 753.496 110.254 747.959 117.239 745.352C124.227 742.733 131.933 743.372 138.379 747.094ZM483.864 760.043C481.908 754.395 477.987 749.64 472.817 746.651C471.616 745.958 470.349 745.367 469.052 744.878C462.069 742.283 454.367 742.94 447.906 746.682L347.043 805.096C339.354 809.549 334.57 817.835 334.561 826.715C334.545 835.604 339.309 843.874 346.986 848.306L447.693 906.456C454.14 910.178 461.844 910.814 468.833 908.198C475.82 905.588 481.235 900.046 483.688 892.996C491.141 871.62 494.932 849.252 494.964 826.506C494.996 803.766 491.258 781.405 483.864 760.043ZM272.532 631.017C273.731 631.709 274.879 632.511 275.952 633.394C281.69 638.136 284.975 645.142 284.968 652.607L284.809 769.167C284.796 778.044 280.012 786.332 272.325 790.785C264.637 795.236 255.092 795.253 247.413 790.819L146.703 732.674C140.256 728.952 135.849 722.599 134.62 715.242C133.387 707.886 135.483 700.427 140.357 694.776C155.143 677.634 172.619 663.167 192.302 651.766C211.991 640.363 233.224 632.415 255.413 628.143C261.284 627.009 267.362 628.032 272.532 631.017ZM394.232 651.5C413.893 662.851 431.334 677.274 446.068 694.366C450.93 700.009 453.001 707.463 451.748 714.824C450.501 722.184 446.082 728.55 439.622 732.291L338.754 790.704C331.067 795.15 321.522 795.162 313.849 790.731C306.173 786.3 301.409 778.027 301.418 769.148L301.571 652.588C301.584 645.119 304.886 638.111 310.635 633.352C316.383 628.589 323.873 626.653 331.192 628.043C353.367 632.26 374.579 640.153 394.232 651.5Z" fill="white" fill-opacity="0.21"/>
</svg>
