<svg width="1440" height="966" viewBox="0 0 1440 966" fill="none" xmlns="http://www.w3.org/2000/svg">
<path fill-rule="evenodd" clip-rule="evenodd" d="M1205.94 680.221C1204.36 682.141 1202.49 683.749 1200.42 684.999C1202.49 686.252 1204.36 687.859 1205.94 689.78C1210.07 694.781 1211.74 701.315 1210.53 707.701C1208 720.998 1203.27 733.716 1196.49 745.501C1189.71 757.291 1181.08 767.752 1170.87 776.595C1166.95 780 1161.92 781.876 1156.72 781.876C1155.53 781.876 1154.32 781.775 1153.12 781.575C1150.67 781.163 1148.34 780.339 1146.22 779.164C1146.17 781.59 1145.72 784.021 1144.85 786.357C1142.6 792.44 1137.79 797.159 1131.67 799.299C1118.92 803.746 1105.58 806 1092.02 806C1078.45 806 1065.11 803.746 1052.37 799.299C1046.24 797.159 1041.44 792.439 1039.18 786.349C1038.32 784.016 1037.86 781.59 1037.82 779.164C1035.7 780.336 1033.38 781.16 1030.93 781.575C1029.72 781.775 1028.51 781.876 1027.32 781.876H1027.32C1022.12 781.874 1017.09 779.994 1013.16 776.588C1002.95 767.735 994.33 757.275 987.554 745.501C980.768 733.709 976.044 720.99 973.516 707.701C972.297 701.325 973.965 694.789 978.099 689.778C979.682 687.855 981.552 686.247 983.622 684.997C981.552 683.746 979.682 682.139 978.099 680.216C973.97 675.207 972.302 668.673 973.516 662.293C976.047 648.999 980.77 636.283 987.554 624.499C994.337 612.714 1002.96 602.252 1013.17 593.404C1017.1 589.997 1022.12 588.12 1027.32 588.12C1028.51 588.12 1029.72 588.221 1030.92 588.423C1033.38 588.838 1035.7 589.661 1037.82 590.838C1037.87 588.412 1038.32 585.985 1039.19 583.647C1041.45 577.554 1046.25 572.837 1052.37 570.703C1065.12 566.254 1078.46 564 1092.02 564C1105.59 564 1118.93 566.254 1131.68 570.702C1137.79 572.833 1142.6 577.552 1144.86 583.651C1145.72 585.984 1146.18 588.411 1146.22 590.831C1148.34 589.659 1150.66 588.837 1153.12 588.422C1154.3 588.224 1155.52 588.123 1156.72 588.123C1161.92 588.123 1166.95 590 1170.88 593.409C1181.09 602.249 1189.71 612.71 1196.49 624.501C1203.28 636.287 1208 649.004 1210.53 662.298C1211.74 668.68 1210.07 675.214 1205.94 680.221ZM1102.53 703.267C1102.59 699.63 1103.56 696.007 1105.43 692.762C1107.29 689.517 1109.94 686.869 1113.05 685C1109.94 683.131 1107.29 680.482 1105.43 677.239C1103.56 673.993 1102.59 670.371 1102.53 666.732C1099.36 668.499 1095.75 669.474 1092.02 669.474C1088.29 669.474 1084.68 668.499 1081.51 666.732C1081.45 670.37 1080.48 673.996 1078.62 677.239C1076.75 680.481 1074.1 683.131 1070.99 685C1074.1 686.869 1076.75 689.521 1078.62 692.767C1080.48 696.009 1081.45 699.632 1081.51 703.267C1084.68 701.501 1088.29 700.529 1092.02 700.529C1095.75 700.529 1099.36 701.503 1102.53 703.267ZM1079.06 684.999C1079.06 677.818 1084.86 671.996 1092.02 671.996C1099.18 671.996 1104.99 677.818 1104.99 684.999C1104.99 692.181 1099.18 698.003 1092.02 698.003C1084.86 698.003 1079.06 692.181 1079.06 684.999ZM1092.02 661.714C1087.06 661.714 1082.44 659.038 1079.96 654.731L1047.43 598.209C1045.35 594.591 1044.99 590.268 1046.44 586.352C1047.89 582.435 1050.98 579.404 1054.91 578.033C1066.84 573.869 1079.33 571.76 1092.02 571.76C1104.72 571.76 1117.21 573.869 1129.13 578.033C1133.07 579.404 1136.15 582.435 1137.61 586.355C1139.06 590.271 1138.7 594.591 1136.62 598.209L1104.08 654.731C1101.6 659.038 1096.98 661.714 1092.02 661.714ZM984.06 675.274C986.717 678.497 990.629 680.343 994.794 680.343L1059.86 680.339C1064.82 680.339 1069.44 677.664 1071.92 673.356C1074.4 669.048 1074.4 663.695 1071.92 659.387L1039.39 602.866C1037.3 599.246 1033.75 596.771 1029.65 596.076C1028.88 595.948 1028.1 595.88 1027.32 595.88C1023.98 595.88 1020.75 597.088 1018.22 599.28C1008.67 607.553 1000.6 617.344 994.253 628.379C987.905 639.406 983.484 651.308 981.115 663.751C980.334 667.856 981.409 672.056 984.06 675.274ZM1189.25 680.343H1124.19C1119.22 680.343 1114.6 677.665 1112.12 673.357C1109.64 669.049 1109.64 663.696 1112.12 659.39L1144.66 602.866C1146.74 599.246 1150.29 596.771 1154.4 596.076C1155.16 595.948 1155.94 595.883 1156.71 595.883C1160.06 595.883 1163.29 597.088 1165.82 599.28C1175.38 607.559 1183.44 617.352 1189.79 628.381C1196.14 639.411 1200.56 651.314 1202.93 663.753C1203.71 667.858 1202.64 672.055 1199.98 675.273C1197.33 678.497 1193.42 680.343 1189.25 680.343ZM1018.22 770.719C1020.75 772.909 1023.98 774.116 1027.32 774.118C1028.1 774.118 1028.88 774.05 1029.64 773.924C1033.75 773.228 1037.3 770.755 1039.38 767.134L1071.92 710.612C1074.4 706.304 1074.4 700.951 1071.92 696.645C1069.44 692.334 1064.82 689.659 1059.86 689.659L994.79 689.656C990.625 689.656 986.715 691.503 984.06 694.726C981.405 697.945 980.331 702.146 981.114 706.248C983.483 718.69 987.904 730.589 994.252 741.62C1000.6 752.647 1008.66 762.437 1018.22 770.719ZM1156.72 774.118C1155.95 774.118 1155.16 774.051 1154.4 773.923C1150.29 773.23 1146.74 770.755 1144.65 767.136L1112.12 710.612C1109.65 706.307 1109.65 700.953 1112.12 696.644C1114.6 692.337 1119.22 689.659 1124.19 689.659H1189.25C1193.42 689.659 1197.33 691.504 1199.98 694.725C1202.64 697.944 1203.71 702.145 1202.93 706.247C1200.56 718.69 1196.14 730.589 1189.79 741.619C1183.44 752.652 1175.38 762.444 1165.82 770.721C1163.29 772.913 1160.06 774.118 1156.72 774.118ZM1092.02 798.239C1079.32 798.239 1066.83 796.13 1054.91 791.969C1050.98 790.595 1047.89 787.563 1046.44 783.646C1044.98 779.73 1045.34 775.41 1047.42 771.79L1079.96 715.267C1082.44 710.963 1087.06 708.287 1092.02 708.287C1096.98 708.287 1101.6 710.963 1104.08 715.267L1136.61 771.79C1138.7 775.412 1139.06 779.731 1137.6 783.646C1136.15 787.562 1133.06 790.595 1129.13 791.969C1117.2 796.13 1104.72 798.239 1092.02 798.239Z" fill="white" fill-opacity="0.21"/>
<path fill-rule="evenodd" clip-rule="evenodd" d="M1467.74 588.196C1466.81 589.322 1465.71 590.266 1464.5 591C1465.71 591.735 1466.81 592.677 1467.74 593.805C1470.16 596.74 1471.14 600.573 1470.43 604.32C1468.94 612.123 1466.17 619.586 1462.19 626.501C1458.21 633.419 1453.15 639.557 1447.16 644.746C1444.86 646.744 1441.91 647.845 1438.85 647.845C1438.16 647.845 1437.45 647.785 1436.74 647.668C1435.3 647.426 1433.94 646.943 1432.69 646.253C1432.67 647.677 1432.4 649.103 1431.89 650.474C1430.57 654.043 1427.75 656.812 1424.16 658.068C1416.68 660.677 1408.85 662 1400.89 662C1392.93 662 1385.1 660.677 1377.62 658.068C1374.03 656.812 1371.21 654.043 1369.89 650.469C1369.38 649.1 1369.11 647.677 1369.09 646.253C1367.84 646.941 1366.48 647.425 1365.04 647.668C1364.33 647.785 1363.62 647.845 1362.93 647.845H1362.92C1359.87 647.843 1356.92 646.74 1354.62 644.742C1348.62 639.547 1343.57 633.409 1339.59 626.501C1335.61 619.581 1332.84 612.118 1331.35 604.32C1330.64 600.579 1331.62 596.744 1334.04 593.804C1334.97 592.675 1336.07 591.732 1337.28 590.998C1336.07 590.264 1334.97 589.321 1334.04 588.193C1331.62 585.253 1330.64 581.42 1331.35 577.676C1332.84 569.875 1335.61 562.414 1339.59 555.499C1343.57 548.584 1348.63 542.446 1354.62 537.253C1356.93 535.254 1359.88 534.153 1362.93 534.153C1363.62 534.153 1364.33 534.212 1365.04 534.331C1366.48 534.574 1367.85 535.057 1369.09 535.748C1369.12 534.325 1369.38 532.9 1369.89 531.528C1371.21 527.953 1374.03 525.185 1377.63 523.933C1385.11 521.323 1392.94 520 1400.89 520C1408.85 520 1416.68 521.323 1424.16 523.933C1427.75 525.183 1430.57 527.952 1431.89 531.531C1432.4 532.9 1432.67 534.324 1432.69 535.744C1433.94 535.056 1435.3 534.574 1436.74 534.33C1437.44 534.214 1438.15 534.155 1438.85 534.155C1441.91 534.155 1444.86 535.256 1447.16 537.256C1453.15 542.444 1458.21 548.582 1462.19 555.5C1466.17 562.416 1468.94 569.878 1470.43 577.679C1471.14 581.424 1470.16 585.258 1467.74 588.196ZM1407.06 601.719C1407.09 599.584 1407.66 597.458 1408.76 595.555C1409.85 593.651 1411.4 592.097 1413.23 591C1411.4 589.903 1409.85 588.349 1408.76 586.446C1407.66 584.541 1407.09 582.416 1407.06 580.281C1405.2 581.317 1403.08 581.89 1400.89 581.89C1398.7 581.89 1396.58 581.318 1394.72 580.281C1394.69 582.415 1394.12 584.543 1393.02 586.446C1391.93 588.348 1390.38 589.903 1388.55 591C1390.38 592.097 1391.93 593.653 1393.03 595.557C1394.12 597.46 1394.69 599.586 1394.72 601.719C1396.58 600.683 1398.7 600.112 1400.89 600.112C1403.08 600.112 1405.2 600.684 1407.06 601.719ZM1393.28 591C1393.28 586.786 1396.69 583.369 1400.89 583.369C1405.09 583.369 1408.5 586.786 1408.5 591C1408.5 595.214 1405.09 598.63 1400.89 598.63C1396.69 598.63 1393.28 595.214 1393.28 591ZM1400.89 577.336C1397.98 577.336 1395.27 575.766 1393.81 573.239L1374.72 540.073C1373.5 537.95 1373.29 535.414 1374.14 533.116C1375 530.817 1376.81 529.038 1379.12 528.234C1386.12 525.791 1393.44 524.553 1400.89 524.553C1408.34 524.553 1415.67 525.791 1422.67 528.234C1424.98 529.038 1426.79 530.817 1427.64 533.117C1428.49 535.415 1428.28 537.95 1427.06 540.073L1407.97 573.239C1406.51 575.766 1403.8 577.336 1400.89 577.336ZM1337.54 585.293C1339.1 587.184 1341.4 588.267 1343.84 588.267L1382.02 588.265C1384.93 588.265 1387.64 586.696 1389.09 584.168C1390.55 581.64 1390.55 578.498 1389.1 575.971L1370.01 542.806C1368.78 540.681 1366.7 539.229 1364.29 538.822C1363.84 538.746 1363.38 538.706 1362.93 538.706C1360.97 538.706 1359.07 539.416 1357.59 540.701C1351.98 545.556 1347.25 551.301 1343.52 557.776C1339.8 564.247 1337.2 571.231 1335.81 578.532C1335.36 580.94 1335.99 583.405 1337.54 585.293ZM1457.94 588.267H1419.76C1416.85 588.267 1414.14 586.696 1412.69 584.168C1411.23 581.64 1411.23 578.499 1412.69 575.973L1431.78 542.806C1433 540.681 1435.08 539.229 1437.49 538.822C1437.94 538.746 1438.4 538.708 1438.85 538.708C1440.81 538.708 1442.71 539.415 1444.19 540.701C1449.8 545.559 1454.53 551.305 1458.26 557.777C1461.98 564.249 1464.58 571.234 1465.97 578.533C1466.43 580.942 1465.8 583.404 1464.24 585.292C1462.68 587.184 1460.39 588.267 1457.94 588.267ZM1357.59 641.298C1359.07 642.583 1360.97 643.291 1362.93 643.292C1363.38 643.292 1363.84 643.252 1364.29 643.178C1366.7 642.77 1368.78 641.319 1370.01 639.194L1389.09 606.029C1390.55 603.501 1390.55 600.36 1389.09 597.833C1387.64 595.303 1384.93 593.734 1382.02 593.734L1343.84 593.732C1341.39 593.732 1339.1 594.816 1337.54 596.707C1335.98 598.596 1335.35 601.061 1335.81 603.468C1337.2 610.769 1339.8 617.751 1343.52 624.223C1347.25 630.694 1351.98 636.438 1357.59 641.298ZM1438.85 643.292C1438.4 643.292 1437.94 643.253 1437.49 643.178C1435.08 642.771 1433 641.319 1431.77 639.195L1412.69 606.028C1411.23 603.502 1411.23 600.361 1412.69 597.833C1414.14 595.305 1416.85 593.734 1419.76 593.734H1457.94C1460.39 593.734 1462.68 594.816 1464.24 596.706C1465.8 598.595 1466.43 601.06 1465.97 603.467C1464.58 610.768 1461.98 617.75 1458.26 624.223C1454.53 630.697 1449.8 636.442 1444.19 641.299C1442.71 642.585 1440.81 643.292 1438.85 643.292ZM1400.89 657.446C1393.44 657.446 1386.11 656.208 1379.12 653.767C1376.81 652.961 1374.99 651.181 1374.14 648.883C1373.29 646.586 1373.5 644.05 1374.72 641.926L1393.81 608.76C1395.27 606.234 1397.98 604.664 1400.89 604.664C1403.8 604.664 1406.51 606.234 1407.97 608.76L1427.06 641.926C1428.28 644.052 1428.49 646.586 1427.64 648.883C1426.79 651.181 1424.97 652.961 1422.66 653.767C1415.67 656.208 1408.34 657.446 1400.89 657.446Z" fill="white" fill-opacity="0.21"/>
<path fill-rule="evenodd" clip-rule="evenodd" d="M1280.23 249.719C1277.41 253.151 1274.06 256.025 1270.36 258.26C1274.06 260.499 1277.41 263.37 1280.24 266.804C1287.61 275.743 1290.6 287.421 1288.43 298.834C1283.9 322.599 1275.46 345.331 1263.34 366.393C1251.21 387.466 1235.81 406.161 1217.56 421.967C1210.54 428.052 1201.55 431.406 1192.26 431.406C1190.13 431.406 1187.97 431.225 1185.83 430.867C1181.44 430.131 1177.28 428.658 1173.49 426.559C1173.41 430.895 1172.6 435.239 1171.05 439.414C1167.02 450.286 1158.44 458.72 1147.5 462.546C1124.71 470.493 1100.86 474.522 1076.62 474.522C1052.38 474.522 1028.53 470.493 1005.76 462.546C994.809 458.72 986.224 450.284 982.19 439.401C980.638 435.23 979.831 430.895 979.75 426.559C975.968 428.654 971.815 430.126 967.435 430.867C965.272 431.225 963.111 431.406 960.99 431.406H960.982C951.688 431.401 942.706 428.042 935.684 421.954C917.426 406.131 902.024 387.436 889.914 366.393C877.784 345.317 869.342 322.585 864.823 298.834C862.644 287.439 865.625 275.757 873.014 266.801C875.843 263.363 879.186 260.49 882.885 258.255C879.186 256.019 875.843 253.147 873.014 249.71C865.636 240.757 862.653 229.08 864.823 217.677C869.346 193.916 877.787 171.191 889.914 150.128C902.037 129.066 917.439 110.368 935.692 94.5527C942.712 88.4634 951.695 85.1097 960.988 85.1097C963.113 85.1097 965.273 85.2901 967.417 85.6511C971.81 86.3925 975.971 87.8633 979.758 89.9673C979.84 85.6315 980.647 81.2927 982.193 77.1148C986.233 66.225 994.821 57.794 1005.76 53.9801C1028.55 46.0289 1052.4 41.9999 1076.63 41.9999C1100.87 41.9999 1124.71 46.0289 1147.5 53.9786C1158.43 57.7865 1167.03 66.222 1171.06 77.1224C1172.61 81.2912 1173.41 85.63 1173.49 89.9553C1177.28 87.8603 1181.43 86.391 1185.82 85.6496C1187.94 85.2946 1190.11 85.1142 1192.25 85.1142C1201.55 85.1142 1210.54 88.4694 1217.57 94.5618C1235.81 110.362 1251.22 129.059 1263.34 150.131C1275.47 171.197 1283.91 193.925 1288.43 217.686C1290.61 229.093 1287.62 240.771 1280.23 249.719ZM1095.41 290.91C1095.52 284.409 1097.24 277.933 1100.58 272.134C1103.92 266.335 1108.65 261.602 1114.21 258.262C1108.65 254.92 1103.92 250.185 1100.58 244.389C1097.24 238.589 1095.52 232.114 1095.41 225.611C1089.75 228.768 1083.3 230.511 1076.63 230.511C1069.95 230.511 1063.5 228.77 1057.83 225.611C1057.73 232.113 1056 238.593 1052.67 244.389C1049.33 250.184 1044.6 254.92 1039.04 258.262C1044.6 261.602 1049.33 266.342 1052.67 272.143C1056 277.937 1057.73 284.413 1057.83 290.91C1063.5 287.753 1069.95 286.015 1076.62 286.015C1083.3 286.015 1089.75 287.756 1095.41 290.91ZM1053.46 258.26C1053.46 245.424 1063.83 235.018 1076.63 235.018C1089.42 235.018 1099.8 245.424 1099.8 258.26C1099.8 271.096 1089.42 281.502 1076.63 281.502C1063.83 281.502 1053.46 271.096 1053.46 258.26ZM1076.63 216.642C1067.76 216.642 1059.51 211.86 1055.07 204.161L996.925 103.142C993.205 96.6748 992.56 88.9491 995.156 81.9499C997.752 74.9492 1003.27 69.5306 1010.3 67.0807C1031.63 59.6393 1053.94 55.869 1076.63 55.869C1099.32 55.869 1121.64 59.6393 1142.95 67.0807C1149.98 69.5306 1155.5 74.9492 1158.1 81.9544C1160.7 88.9537 1160.05 96.6748 1156.33 103.142L1098.19 204.161C1093.75 211.86 1085.49 216.642 1076.63 216.642ZM883.669 240.878C888.417 246.638 895.409 249.937 902.853 249.937L1019.14 249.931C1028.01 249.931 1036.26 245.15 1040.7 237.45C1045.13 229.75 1045.13 220.182 1040.7 212.484L982.553 111.464C978.828 104.994 972.486 100.571 965.146 99.3291C963.775 99.1005 962.379 98.9787 960.993 98.9787C955.021 98.9787 949.247 101.138 944.73 105.055C927.654 119.841 913.237 137.341 901.886 157.063C890.54 176.772 882.639 198.045 878.405 220.283C877.009 227.619 878.93 235.127 883.669 240.878ZM1250.4 249.937H1134.11C1125.24 249.937 1116.99 245.152 1112.55 237.452C1108.12 229.752 1108.12 220.184 1112.55 212.488L1170.7 111.464C1174.42 104.994 1180.76 100.571 1188.11 99.3291C1189.47 99.1005 1190.87 98.9832 1192.25 98.9832C1198.22 98.9832 1204 101.137 1208.52 105.055C1225.61 119.852 1240.02 137.354 1251.36 157.066C1262.71 176.781 1270.61 198.054 1274.84 220.286C1276.25 227.624 1274.33 235.125 1269.58 240.876C1264.84 246.638 1257.85 249.937 1250.4 249.937ZM944.728 411.465C949.246 415.379 955.019 417.537 960.991 417.54C962.378 417.54 963.771 417.418 965.138 417.192C972.483 415.949 978.825 411.529 982.55 405.057L1040.69 304.038C1045.12 296.338 1045.12 286.77 1040.69 279.074C1036.26 271.368 1028 266.589 1019.14 266.589L902.847 266.583C895.403 266.583 888.413 269.884 883.668 275.644C878.922 281.398 877.003 288.905 878.404 296.237C882.638 318.475 890.539 339.742 901.884 359.457C913.226 379.166 927.644 396.662 944.728 411.465ZM1192.26 417.54C1190.88 417.54 1189.48 417.419 1188.11 417.191C1180.77 415.953 1174.42 411.528 1170.7 405.06L1112.55 304.036C1108.13 296.342 1108.13 286.773 1112.56 279.073C1116.99 271.374 1125.25 266.587 1134.11 266.587H1250.4C1257.85 266.587 1264.84 269.885 1269.58 275.642C1274.33 281.396 1276.24 288.904 1274.85 296.235C1270.61 318.474 1262.71 339.741 1251.37 359.455C1240.02 379.175 1225.6 396.674 1208.52 411.468C1204.01 415.386 1198.23 417.54 1192.26 417.54ZM1076.62 460.651C1053.92 460.651 1031.61 456.88 1010.3 449.445C1003.27 446.989 997.746 441.569 995.151 434.568C992.551 427.571 993.195 419.848 996.919 413.378L1055.07 312.357C1059.5 304.663 1067.76 299.881 1076.62 299.881C1085.48 299.881 1093.75 304.663 1098.18 312.357L1156.33 413.378C1160.05 419.853 1160.69 427.572 1158.09 434.568C1155.5 441.568 1149.98 446.989 1142.95 449.445C1121.63 456.88 1099.32 460.651 1076.62 460.651Z" fill="white" fill-opacity="0.21"/>
<path fill-rule="evenodd" clip-rule="evenodd" d="M284.461 365.69C286.79 364.818 289.214 364.36 291.633 364.313C290.467 362.193 289.649 359.866 289.239 357.411C288.165 351.015 289.985 344.522 294.228 339.598C303.071 329.349 313.52 320.696 325.286 313.881C337.057 307.063 349.753 302.314 363.018 299.761C368.12 298.775 373.413 299.665 377.916 302.265C378.946 302.859 379.944 303.552 380.88 304.324C382.801 305.909 384.405 307.787 385.653 309.863C386.905 307.785 388.514 305.907 390.434 304.318C395.428 300.177 401.947 298.492 408.317 299.698C421.584 302.224 434.265 306.942 446.01 313.723C457.757 320.505 468.184 329.128 476.998 339.351C481.232 344.267 483.032 350.756 481.942 357.159C481.527 359.614 480.705 361.94 479.531 364.064C481.95 364.107 484.374 364.555 486.704 365.421C487.852 365.853 488.95 366.37 489.978 366.964L489.981 366.966C494.484 369.568 497.896 373.709 499.595 378.623C504.016 391.398 506.249 404.765 506.23 418.349C506.211 431.955 503.943 445.331 499.488 458.104C497.355 464.235 492.643 469.062 486.557 471.335C484.225 472.209 481.801 472.665 479.384 472.714C480.55 474.832 481.367 477.159 481.776 479.616C482.847 486.018 481.025 492.511 476.783 497.429C467.945 507.677 457.497 516.327 445.729 523.14C433.962 529.954 421.268 534.706 407.999 537.263C402.894 538.249 397.603 537.361 393.1 534.762C392.071 534.167 391.075 533.475 390.137 532.701C388.216 531.112 386.611 529.236 385.364 527.157C384.112 529.235 382.507 531.111 380.589 532.703C375.585 536.85 369.065 538.532 362.697 537.32C349.429 534.797 336.749 530.079 325.008 523.3C313.261 516.518 302.834 507.895 294.018 497.669C289.785 492.765 287.981 486.273 289.075 479.863C289.492 477.41 290.315 475.082 291.486 472.964C289.066 472.92 286.641 472.47 284.31 471.602C283.181 471.18 282.082 470.662 281.043 470.062C276.536 467.46 273.119 463.32 271.42 458.402C266.999 445.642 264.766 432.274 264.785 418.67C264.803 405.071 267.072 391.697 271.526 378.918C273.665 372.783 278.38 367.96 284.461 365.69ZM385.538 397.435C383.667 400.555 381.021 403.211 377.78 405.087C374.542 406.964 370.926 407.934 367.299 407.997C369.057 411.172 370.025 414.789 370.019 418.53C370.014 422.275 369.037 425.894 367.27 429.075C370.9 429.131 374.512 430.09 377.745 431.957C380.978 433.824 383.617 436.473 385.48 439.588C387.351 436.468 389.998 433.81 393.237 431.935C396.475 430.061 400.093 429.09 403.722 429.026C401.96 425.851 400.993 422.23 400.999 418.486C401.005 414.746 401.979 411.125 403.747 407.948C400.118 407.892 396.506 406.93 393.274 405.064C390.039 403.196 387.401 400.548 385.538 397.435ZM396.735 424.993C393.144 431.213 385.206 433.353 379.006 429.773C372.805 426.193 370.69 418.249 374.281 412.029C377.871 405.81 385.809 403.67 392.01 407.25C398.21 410.83 400.326 418.774 396.735 424.993ZM373.864 438.677C378.159 441.157 380.823 445.784 380.818 450.755L380.732 515.971C380.725 520.145 378.876 524.069 375.661 526.734C372.444 529.4 368.254 530.481 364.161 529.701C351.747 527.342 339.878 522.925 328.886 516.579C317.891 510.231 308.131 502.16 299.885 492.592C297.164 489.438 296.005 485.268 296.707 481.147C297.407 477.03 299.879 473.468 303.49 471.375L359.926 438.693C364.23 436.205 369.57 436.198 373.864 438.677ZM474.142 480.915C473.453 476.795 470.988 473.241 467.381 471.158L411.03 438.628C406.736 436.149 401.399 436.156 397.096 438.647C392.795 441.138 390.118 445.774 390.11 450.743L390.024 515.959C390.019 520.136 391.854 524.053 395.064 526.708C395.664 527.203 396.306 527.652 396.978 528.04C399.872 529.711 403.274 530.279 406.558 529.646C418.969 527.258 430.85 522.812 441.868 516.431C452.879 510.055 462.658 501.957 470.931 492.366C473.66 489.202 474.83 485.027 474.142 480.915ZM298.977 373.93L355.325 406.462C359.622 408.943 362.284 413.572 362.278 418.543C362.27 423.513 359.594 428.15 355.294 430.639L298.859 463.324C295.245 465.418 290.933 465.786 287.027 464.334C286.302 464.062 285.595 463.73 284.924 463.343C282.029 461.671 279.831 459.011 278.739 455.849C274.599 443.899 272.512 431.386 272.529 418.661C272.547 405.934 274.668 393.415 278.838 381.459C280.211 377.511 283.24 374.414 287.149 372.955C291.058 371.49 295.37 371.847 298.977 373.93ZM492.279 381.175C491.184 378.015 488.991 375.354 486.098 373.682C485.426 373.294 484.717 372.963 483.991 372.69C480.084 371.238 475.775 371.605 472.16 373.699L415.726 406.382C411.424 408.874 408.748 413.51 408.742 418.479C408.733 423.452 411.399 428.079 415.694 430.559L472.041 463.094C475.648 465.177 479.958 465.533 483.869 464.069C487.778 462.609 490.808 459.508 492.18 455.563C496.35 443.603 498.471 431.088 498.489 418.361C498.507 405.638 496.416 393.127 492.279 381.175ZM374.037 308.983C374.707 309.371 375.35 309.819 375.95 310.313C379.161 312.967 380.999 316.887 380.994 321.063L380.906 386.28C380.899 391.247 378.221 395.884 373.921 398.375C369.619 400.866 364.279 400.875 359.982 398.394L303.634 365.862C300.027 363.779 297.561 360.225 296.873 356.108C296.183 351.993 297.356 347.819 300.083 344.657C308.356 335.066 318.134 326.972 329.147 320.593C340.163 314.213 352.043 309.766 364.458 307.376C367.743 306.741 371.144 307.313 374.037 308.983ZM442.129 320.444C453.129 326.795 462.888 334.865 471.132 344.428C473.852 347.585 475.01 351.756 474.309 355.874C473.612 359.992 471.139 363.554 467.525 365.647L411.088 398.33C406.787 400.818 401.447 400.824 397.153 398.345C392.859 395.866 390.193 391.237 390.198 386.269L390.284 321.052C390.292 316.874 392.139 312.953 395.356 310.29C398.571 307.625 402.762 306.542 406.857 307.319C419.264 309.679 431.133 314.095 442.129 320.444Z" fill="white" fill-opacity="0.21"/>
<path fill-rule="evenodd" clip-rule="evenodd" d="M-24.3543 422.983C-22.9874 422.471 -21.565 422.203 -20.1456 422.175C-20.8301 420.931 -21.3099 419.566 -21.5507 418.125C-22.181 414.372 -21.1128 410.562 -18.6228 407.673C-13.4344 401.659 -7.30288 396.582 -0.398891 392.583C6.50808 388.582 13.9575 385.796 21.7413 384.298C24.7347 383.719 27.8408 384.241 30.4829 385.767C31.0874 386.116 31.6729 386.522 32.2225 386.975C33.3497 387.905 34.2909 389.007 35.0231 390.226C35.7578 389.006 36.7017 387.904 37.8282 386.972C40.7587 384.542 44.5836 383.553 48.3219 384.261C56.1063 385.743 63.5473 388.511 70.4391 392.49C77.3321 396.47 83.4504 401.53 88.622 407.528C91.1063 410.413 92.1625 414.221 91.523 417.977C91.2796 419.418 90.7972 420.783 90.1085 422.029C91.5279 422.054 92.9504 422.318 94.3173 422.826C94.9912 423.079 95.6351 423.382 96.2383 423.731L96.2404 423.732C98.8822 425.259 100.885 427.689 101.882 430.572C104.475 438.068 105.786 445.912 105.775 453.883C105.764 461.866 104.433 469.715 101.818 477.21C100.567 480.807 97.8022 483.64 94.2313 484.973C92.8626 485.486 91.4404 485.754 90.0219 485.782C90.7065 487.025 91.1855 488.391 91.4258 489.832C92.054 493.589 90.9849 497.399 88.4962 500.285C83.3098 506.298 77.1793 511.374 70.274 515.371C63.3696 519.37 55.921 522.158 48.1353 523.658C45.1399 524.237 42.035 523.716 39.3929 522.191C38.7889 521.842 38.2042 521.436 37.6539 520.981C36.5266 520.049 35.5851 518.948 34.8537 517.728C34.1185 518.948 33.1769 520.049 32.0516 520.983C29.1151 523.416 25.2894 524.403 21.5532 523.692C13.7676 522.211 6.32698 519.443 -0.562212 515.465C-7.45524 511.486 -13.5735 506.426 -18.7464 500.426C-21.2302 497.548 -22.2889 493.739 -21.6467 489.977C-21.4019 488.538 -20.919 487.172 -20.232 485.929C-21.6519 485.904 -23.0747 485.639 -24.4429 485.13C-25.1052 484.883 -25.7504 484.578 -26.36 484.226C-29.0046 482.7 -31.0094 480.27 -32.0065 477.385C-34.6003 469.898 -35.9108 462.053 -35.8995 454.071C-35.8893 446.091 -34.5579 438.243 -31.944 430.745C-30.6892 427.145 -27.9222 424.316 -24.3543 422.983ZM34.9555 441.61C33.8576 443.441 32.3052 445 30.4035 446.1C28.5035 447.202 26.3816 447.771 24.2531 447.808C25.2848 449.671 25.8525 451.793 25.8491 453.989C25.8463 456.186 25.2733 458.31 24.2365 460.176C26.3661 460.209 28.4856 460.772 30.3826 461.867C32.28 462.963 33.8284 464.517 34.9213 466.345C36.0193 464.514 37.5724 462.954 39.4732 461.855C41.3729 460.755 43.4961 460.185 45.6253 460.148C44.5917 458.285 44.024 456.16 44.0277 453.963C44.0309 451.768 44.6028 449.643 45.6403 447.779C43.5108 447.747 41.3915 447.182 39.495 446.087C37.5967 444.991 36.0487 443.437 34.9555 441.61ZM41.5255 457.781C39.4184 461.431 34.7608 462.686 31.1225 460.586C27.4841 458.485 26.2428 453.824 28.3499 450.174C30.4569 446.525 35.1145 445.269 38.7528 447.37C42.3912 449.47 43.6325 454.132 41.5255 457.781ZM28.1055 465.81C30.6257 467.265 32.1886 469.981 32.1858 472.898L32.1353 511.165C32.1314 513.614 31.0465 515.916 29.1596 517.48C27.2721 519.044 24.8135 519.679 22.412 519.221C15.1279 517.837 8.1633 515.245 1.7136 511.522C-4.73822 507.797 -10.465 503.061 -15.3035 497.446C-16.9002 495.596 -17.5803 493.149 -17.1687 490.731C-16.7577 488.315 -15.3073 486.225 -13.1882 484.997L19.9272 465.82C22.4527 464.36 25.5857 464.356 28.1055 465.81ZM86.9463 490.595C86.5418 488.177 85.0957 486.092 82.9792 484.87L49.9138 465.782C47.394 464.327 44.2625 464.331 41.7376 465.793C39.2135 467.254 37.6429 469.975 37.638 472.89L37.5879 511.158C37.5847 513.608 38.6618 515.907 40.545 517.465C40.8971 517.755 41.274 518.019 41.6683 518.247C43.3662 519.227 45.3623 519.561 47.2896 519.189C54.5718 517.788 61.5436 515.179 68.0085 511.435C74.4694 507.693 80.208 502.942 85.0623 497.314C86.6635 495.457 87.3498 493.008 86.9463 490.595ZM-15.8367 427.818L17.2273 446.908C19.7483 448.363 21.3107 451.079 21.3068 453.996C21.3025 456.913 19.7319 459.633 17.209 461.094L-15.9058 480.273C-18.0263 481.501 -20.5564 481.717 -22.8483 480.865C-23.2742 480.706 -23.689 480.511 -24.0825 480.284C-25.7812 479.303 -27.071 477.742 -27.7119 475.887C-30.1408 468.875 -31.3656 461.532 -31.3555 454.066C-31.345 446.598 -30.1008 439.252 -27.6538 432.236C-26.8479 429.92 -25.0704 428.102 -22.7771 427.246C-20.483 426.387 -17.9532 426.596 -15.8367 427.818ZM97.5884 432.07C96.9464 430.215 95.659 428.654 93.9616 427.673C93.5673 427.445 93.1513 427.251 92.7255 427.091C90.433 426.239 87.9042 426.454 85.783 427.683L52.669 446.861C50.1449 448.323 48.5743 451.043 48.5711 453.958C48.5658 456.877 50.1301 459.592 52.6503 461.047L85.7133 480.138C87.8298 481.36 90.359 481.569 92.6537 480.71C94.9474 479.853 96.7255 478.033 97.5308 475.719C99.9775 468.701 101.222 461.357 101.233 453.89C101.243 446.424 100.016 439.083 97.5884 432.07ZM28.2067 389.709C28.6002 389.936 28.9773 390.2 29.3294 390.49C31.2133 392.047 32.2919 394.347 32.2894 396.797L32.2373 435.065C32.2331 437.979 30.6623 440.7 28.1386 442.162C25.6148 443.624 22.481 443.629 19.96 442.174L-13.104 423.084C-15.2205 421.862 -16.6673 419.776 -17.071 417.361C-17.4757 414.946 -16.7877 412.497 -15.1873 410.642C-10.3329 405.014 -4.59539 400.264 1.86656 396.521C8.33054 392.778 15.3015 390.168 22.5862 388.766C24.5137 388.393 26.5093 388.729 28.2067 389.709ZM68.1617 396.434C74.6165 400.161 80.3424 404.896 85.1798 410.507C86.776 412.36 87.4558 414.807 87.0445 417.224C86.635 419.64 85.1844 421.73 83.0635 422.958L49.9479 442.136C47.4239 443.595 44.2905 443.599 41.7711 442.145C39.2514 440.69 37.6872 437.974 37.6901 435.059L37.7404 396.791C37.7447 394.339 38.8286 392.038 40.7163 390.476C42.6031 388.912 45.0622 388.277 47.4651 388.733C54.7453 390.117 61.7094 392.709 68.1617 396.434Z" fill="white" fill-opacity="0.21"/>
<path fill-rule="evenodd" clip-rule="evenodd" d="M160.085 84.7127C161.856 84.0495 163.699 83.7018 165.538 83.6659C164.652 82.0538 164.03 80.2846 163.718 78.4178C162.901 73.5551 164.285 68.6178 167.512 64.8741C174.235 57.0818 182.18 50.5025 191.126 45.3212C200.076 40.1369 209.728 36.5264 219.814 34.5852C223.693 33.8357 227.718 34.512 231.142 36.4886C231.925 36.9408 232.684 37.4674 233.396 38.0544C234.856 39.2597 236.076 40.6871 237.025 42.2661C237.977 40.686 239.2 39.2578 240.659 38.0498C244.457 34.9016 249.413 33.6202 254.257 34.5374C264.344 36.4575 273.986 40.0451 282.916 45.2009C291.848 50.3577 299.776 56.914 306.477 64.6866C309.696 68.4245 311.064 73.3584 310.236 78.2263C309.92 80.0929 309.295 81.8618 308.403 83.4764C310.242 83.5092 312.085 83.8501 313.857 84.5085C314.73 84.8368 315.564 85.2299 316.346 85.6812L316.349 85.6828C319.772 87.6614 322.366 90.8097 323.658 94.5461C327.019 104.259 328.717 114.423 328.703 124.751C328.688 135.096 326.964 145.267 323.576 154.978C321.955 159.64 318.372 163.31 313.745 165.038C311.972 165.702 310.129 166.05 308.291 166.086C309.178 167.697 309.799 169.466 310.11 171.334C310.924 176.202 309.539 181.138 306.314 184.878C299.593 192.67 291.65 199.247 282.702 204.427C273.755 209.608 264.104 213.221 254.015 215.165C250.134 215.915 246.111 215.24 242.687 213.263C241.904 212.811 241.147 212.285 240.434 211.696C238.973 210.489 237.753 209.062 236.805 207.481C235.853 209.061 234.632 210.488 233.174 211.698C229.369 214.851 224.412 216.13 219.571 215.209C209.482 213.29 199.841 209.703 190.914 204.549C181.982 199.392 174.054 192.836 167.352 185.061C164.133 181.332 162.761 176.396 163.593 171.522C163.911 169.657 164.536 167.887 165.427 166.277C163.587 166.243 161.743 165.901 159.97 165.241C159.112 164.92 158.276 164.526 157.486 164.07C154.059 162.092 151.461 158.944 150.169 155.205C146.808 145.503 145.11 135.338 145.125 124.995C145.138 114.655 146.863 104.486 150.25 94.7703C151.876 90.1056 155.462 86.4391 160.085 84.7127ZM236.937 108.849C235.514 111.222 233.503 113.241 231.039 114.667C228.577 116.095 225.827 116.832 223.069 116.88C224.406 119.294 225.142 122.044 225.137 124.889C225.134 127.736 224.391 130.488 223.048 132.907C225.807 132.949 228.554 133.679 231.012 135.098C233.47 136.517 235.477 138.531 236.893 140.9C238.316 138.528 240.328 136.506 242.791 135.081C245.253 133.656 248.004 132.918 250.763 132.869C249.423 130.455 248.688 127.702 248.693 124.855C248.697 122.011 249.438 119.258 250.782 116.843C248.023 116.8 245.277 116.069 242.819 114.65C240.36 113.23 238.354 111.216 236.937 108.849ZM245.45 129.803C242.72 134.532 236.685 136.159 231.97 133.437C227.256 130.715 225.647 124.675 228.378 119.946C231.108 115.217 237.143 113.59 241.858 116.312C246.572 119.034 248.181 125.074 245.45 129.803ZM228.061 140.207C231.327 142.092 233.352 145.611 233.348 149.391L233.283 198.976C233.278 202.15 231.872 205.133 229.427 207.16C226.981 209.186 223.795 210.009 220.684 209.416C211.245 207.622 202.22 204.263 193.863 199.438C185.503 194.612 178.082 188.475 171.813 181.2C169.744 178.802 168.863 175.632 169.396 172.498C169.929 169.368 171.808 166.66 174.554 165.069L217.464 140.22C220.736 138.327 224.796 138.322 228.061 140.207ZM304.306 172.322C303.781 169.19 301.907 166.487 299.165 164.903L256.32 140.17C253.055 138.285 248.997 138.29 245.725 140.184C242.455 142.078 240.419 145.603 240.413 149.381L240.348 198.967C240.344 202.143 241.74 205.121 244.18 207.14C244.636 207.516 245.124 207.858 245.635 208.153C247.835 209.423 250.422 209.855 252.919 209.373C262.355 207.558 271.389 204.177 279.766 199.326C288.138 194.478 295.574 188.321 301.864 181.029C303.939 178.623 304.828 175.449 304.306 172.322ZM171.122 90.9778L213.965 115.713C217.232 117.599 219.257 121.119 219.252 124.899C219.246 128.678 217.211 132.203 213.942 134.096L171.032 158.947C168.285 160.539 165.006 160.819 162.036 159.715C161.485 159.508 160.947 159.256 160.437 158.961C158.236 157.69 156.565 155.667 155.734 153.264C152.587 144.178 151 134.664 151.013 124.988C151.027 115.312 152.639 105.793 155.81 96.7026C156.854 93.7011 159.157 91.3459 162.129 90.2365C165.101 89.1226 168.379 89.3944 171.122 90.9778ZM318.095 96.4865C317.263 94.0839 315.595 92.0607 313.396 90.7894C312.885 90.4944 312.346 90.243 311.794 90.0353C308.823 88.9311 305.547 89.2106 302.798 90.8026L259.89 115.653C256.619 117.547 254.584 121.072 254.58 124.85C254.573 128.631 256.6 132.149 259.866 134.034L302.708 158.772C305.45 160.356 308.728 160.626 311.701 159.514C314.673 158.403 316.977 156.045 318.021 153.046C321.191 143.953 322.804 134.437 322.817 124.761C322.831 115.087 321.241 105.574 318.095 96.4865ZM228.192 41.5971C228.702 41.8915 229.191 42.2327 229.647 42.6084C232.088 44.6258 233.486 47.6061 233.483 50.7817L233.415 100.368C233.41 104.144 231.374 107.67 228.104 109.564C224.834 111.458 220.773 111.465 217.506 109.579L174.663 84.8433C171.92 83.26 170.046 80.5575 169.522 77.4275C168.998 74.2983 169.89 71.1251 171.963 68.7209C178.254 61.4285 185.688 55.2741 194.061 50.424C202.437 45.5732 211.47 42.192 220.909 40.3747C223.407 39.8922 225.993 40.3272 228.192 41.5971ZM279.965 50.3108C288.329 55.1398 295.748 61.2755 302.017 68.5468C304.085 70.9473 304.966 74.1184 304.433 77.2496C303.902 80.3807 302.022 83.0891 299.274 84.6805L256.364 109.53C253.093 111.421 249.033 111.426 245.769 109.542C242.504 107.657 240.477 104.137 240.48 100.36L240.546 50.7736C240.551 47.5965 241.956 44.6153 244.402 42.5907C246.847 40.5641 250.033 39.7406 253.147 40.3319C262.58 42.1258 271.604 45.4838 279.965 50.3108Z" fill="white" fill-opacity="0.21"/>
<path fill-rule="evenodd" clip-rule="evenodd" d="M-53.439 732.367C-49.2755 730.808 -44.943 729.991 -40.6197 729.906C-42.7046 726.117 -44.1659 721.958 -44.8993 717.57C-46.8193 706.139 -43.5655 694.533 -35.9814 685.733C-20.1777 667.416 -1.50165 651.95 19.5274 639.771C40.5655 627.584 63.2558 619.097 86.9647 614.534C96.0825 612.772 105.544 614.362 113.591 619.008C115.432 620.071 117.216 621.309 118.89 622.689C122.323 625.522 125.19 628.877 127.42 632.589C129.658 628.875 132.533 625.518 135.964 622.678C144.89 615.278 156.541 612.266 167.927 614.422C191.638 618.935 214.303 627.368 235.295 639.488C256.29 651.61 274.926 667.021 290.679 685.292C298.245 694.079 301.463 705.677 299.515 717.12C298.773 721.507 297.304 725.665 295.206 729.461C299.53 729.538 303.863 730.339 308.026 731.887C310.079 732.659 312.04 733.583 313.877 734.643L313.884 734.647C321.93 739.298 328.029 746.699 331.066 755.482C338.967 778.314 342.958 802.205 342.924 826.484C342.891 850.801 338.836 874.708 330.874 897.537C327.063 908.495 318.641 917.122 307.764 921.184C303.595 922.746 299.263 923.562 294.943 923.648C297.028 927.434 298.487 931.594 299.219 935.984C301.132 947.427 297.876 959.031 290.296 967.821C274.498 986.137 255.825 1001.6 234.792 1013.77C213.762 1025.95 191.074 1034.45 167.359 1039.02C158.235 1040.78 148.778 1039.19 140.73 1034.55C138.891 1033.48 137.11 1032.25 135.433 1030.86C132 1028.02 129.132 1024.67 126.904 1020.95C124.665 1024.67 121.797 1028.02 118.369 1030.87C109.425 1038.28 97.7721 1041.28 86.3918 1039.12C62.6774 1034.61 40.0139 1026.18 19.0299 1014.06C-1.96574 1001.94 -20.6015 986.527 -36.3577 968.251C-43.9232 959.486 -47.1481 947.883 -45.192 936.426C-44.4462 932.043 -42.9754 927.882 -40.8829 924.096C-45.2076 924.018 -49.5415 923.212 -53.7088 921.662C-55.7262 920.907 -57.6914 919.981 -59.5481 918.909C-67.6036 914.258 -73.7101 906.859 -76.7471 898.07C-84.6476 875.264 -88.6394 851.371 -88.6047 827.058C-88.5738 802.752 -84.5183 778.848 -76.5568 756.009C-72.7346 745.044 -64.3066 736.425 -53.439 732.367ZM127.214 789.104C123.87 794.68 119.142 799.428 113.349 802.78C107.562 806.135 101.099 807.869 94.6155 807.982C97.7579 813.655 99.4873 820.121 99.477 826.807C99.4683 833.5 97.723 839.969 94.565 845.654C101.051 845.754 107.508 847.469 113.286 850.805C119.065 854.141 123.781 858.875 127.11 864.444C130.454 858.868 135.185 854.116 140.975 850.766C146.761 847.416 153.228 845.681 159.714 845.567C156.565 839.892 154.836 833.42 154.848 826.729C154.857 820.043 156.599 813.572 159.76 807.894C153.273 807.794 146.818 806.075 141.041 802.74C135.259 799.401 130.544 794.668 127.214 789.104ZM147.226 838.359C140.808 849.475 126.621 853.3 115.539 846.901C104.457 840.503 100.676 826.305 107.094 815.189C113.512 804.072 127.699 800.248 138.781 806.646C149.863 813.044 153.644 827.243 147.226 838.359ZM106.35 862.815C114.026 867.247 118.787 875.518 118.778 884.402L118.624 1000.96C118.612 1008.42 115.308 1015.43 109.561 1020.2C103.811 1024.96 96.3225 1026.9 89.0079 1025.5C66.8209 1021.28 45.6072 1013.39 25.9619 1002.05C6.31014 990.702 -11.1332 976.277 -25.871 959.176C-30.7345 953.539 -32.806 946.086 -31.5522 938.721C-30.3002 931.362 -25.8826 924.997 -19.4278 921.256L81.4391 862.845C89.1317 858.397 98.6748 858.384 106.35 862.815ZM285.575 938.306C284.342 930.943 279.938 924.59 273.491 920.868L172.776 862.727C165.101 858.296 155.563 858.31 147.872 862.761C140.184 867.213 135.4 875.499 135.385 884.38L135.232 1000.94C135.223 1008.4 138.504 1015.41 144.24 1020.15C145.312 1021.04 146.46 1021.84 147.661 1022.53C152.833 1025.52 158.913 1026.53 164.783 1025.4C186.964 1021.13 208.2 1013.19 227.891 1001.78C247.571 990.388 265.05 975.915 279.836 958.773C284.713 953.118 286.803 945.656 285.575 938.306ZM-27.495 747.094L73.2154 805.239C80.8943 809.672 85.6534 817.946 85.6415 826.83C85.6284 835.714 80.8444 844 73.1598 848.449L-27.7055 906.867C-34.1644 910.609 -41.8709 911.267 -48.8518 908.671C-50.1489 908.186 -51.4126 907.592 -52.611 906.9C-57.7853 903.912 -61.7139 899.158 -63.6659 893.507C-71.0644 872.149 -74.7949 849.785 -74.7643 827.041C-74.7321 804.295 -70.9423 781.92 -63.489 760.551C-61.0342 753.495 -55.6201 747.959 -48.6351 745.351C-41.6474 742.733 -33.9417 743.372 -27.495 747.094ZM317.99 760.043C316.034 754.395 312.113 749.639 306.943 746.651C305.742 745.958 304.475 745.367 303.178 744.878C296.195 742.283 288.492 742.94 282.031 746.682L181.168 805.096C173.48 809.548 168.696 817.834 168.687 826.715C168.67 835.604 173.435 843.874 181.111 848.305L281.819 906.456C288.265 910.178 295.969 910.814 302.959 908.198C309.945 905.588 315.361 900.046 317.814 892.996C325.267 871.62 329.057 849.252 329.09 826.506C329.121 803.766 325.384 781.405 317.99 760.043ZM106.658 631.017C107.857 631.709 109.005 632.511 110.078 633.394C115.816 638.136 119.101 645.142 119.094 652.606L118.935 769.167C118.922 778.044 114.138 786.332 106.451 790.785C98.7632 795.236 89.2179 795.252 81.539 790.819L-19.1714 732.674C-25.6181 728.952 -30.025 722.599 -31.2547 715.242C-32.4873 707.886 -30.3916 700.427 -25.5169 694.776C-10.731 677.634 6.74518 663.167 26.4278 651.766C46.1166 640.363 67.3496 632.415 89.5383 628.143C95.4094 627.009 101.488 628.032 106.658 631.017ZM228.358 651.5C248.019 662.851 265.46 677.274 280.194 694.366C285.056 700.009 287.126 707.463 285.874 714.824C284.626 722.184 280.208 728.55 273.748 732.291L172.88 790.704C165.192 795.15 155.648 795.162 147.974 790.731C140.299 786.3 135.535 778.027 135.544 769.148L135.697 652.587C135.71 645.119 139.012 638.111 144.761 633.352C150.508 628.588 157.999 626.653 165.318 628.042C187.493 632.26 208.705 640.153 228.358 651.5Z" fill="white" fill-opacity="0.21"/>
</svg>
