<svg width="498" height="121" viewBox="0 0 498 121" fill="none" xmlns="http://www.w3.org/2000/svg">
<g filter="url(#filter0_d_91_151)">
<path d="M490.537 33.3319H490.962C491.234 33.3319 491.433 33.2915 491.433 32.9918C491.433 32.7298 491.159 32.6893 490.941 32.6893H490.537V33.3319ZM490.061 32.3067H490.971C491.575 32.3067 491.913 32.4998 491.913 33.035C491.913 33.4852 491.637 33.6615 491.28 33.6915L491.926 34.762H491.426L490.837 33.7145H490.537V34.762H490.061V32.3067ZM490.917 35.2659C491.81 35.2659 492.54 34.5397 492.54 33.5382C492.54 32.5423 491.81 31.821 490.917 31.821C490.017 31.821 489.295 32.5423 489.295 33.5382C489.295 34.5397 490.017 35.2659 490.917 35.2659ZM490.917 31.3533C492.086 31.3533 493.129 32.2092 493.129 33.5382C493.129 34.8728 492.086 35.7356 490.917 35.7356C489.748 35.7356 488.705 34.8728 488.705 33.5382C488.705 32.2092 489.748 31.3533 490.917 31.3533Z" fill="#13293E"/>
<path d="M455.41 49.0275C458.342 50.4025 461.778 48.2086 463.085 44.1313C464.391 40.0426 463.076 35.6143 460.14 34.2344C457.207 32.8587 453.766 35.0533 452.461 39.1338C451.159 43.2234 452.477 47.6442 455.41 49.0275Z" fill="#13293E"/>
<path d="M477.136 53.0381L485.679 53.0307L486.391 50.7464H477.802C480.253 42.4045 482.787 34.447 484.564 28.7419C480.629 28.9057 479.41 29.0611 476.001 29.0611C474.17 35.123 471.839 42.8874 469.621 50.7545H465.456L464.739 53.0462L468.982 53.0427C466.692 61.2732 464.603 69.452 463.432 75.7056C456.871 90.6622 453.092 91.399 453.21 84.5064C453.345 76.6339 460.631 53.4396 460.631 53.4396L450.593 53.5295C450.593 53.5295 443.34 77.8007 442.753 79.7339C441.785 82.9759 440.711 84.4234 439.023 86.536C436.083 90.2283 434.47 88.9632 434.752 84.5225C435.216 77.1057 438.098 66.0959 442.057 53.456L432.135 53.5415C429.865 61.077 428.322 66.9344 427.315 71.5428C425.688 78.9158 425.411 80.0649 423.71 83.0122C419.312 90.6707 416.755 90.0317 417.1 84.531C417.559 77.1226 420.435 66.1117 424.395 53.4641C420.992 53.5951 418.952 53.5458 415.008 53.5545C410.18 69.7706 406.333 78.2284 403.434 82.7788C403.577 82.0261 403.683 81.256 403.703 80.4294C404.015 67.6422 391.455 65.3916 391.804 59.4724C392.056 55.216 395.476 55.2728 395.873 55.2728C399.621 55.2728 399.559 59.8247 401.194 61.7518C403.614 64.6226 408.766 60.6277 405.777 56.1244C404.318 53.9188 401.022 52.7114 397.917 52.7114C394.043 52.7146 389.263 53.8651 386.659 57.8559C386.376 58.1956 386.081 58.6091 385.745 59.1253C384.115 62.3295 381.704 61.6013 380.925 59.0556C382.657 56.8693 385.466 54.5572 385.566 50.4232C385.66 46.8493 380.716 46.9481 378.627 52.1498C377.693 54.4629 377.657 57.1154 378.219 59.1035C376.505 61.7197 374.754 65.5795 373.394 68.6045C373.734 66.3654 373.893 64.8586 373.93 63.3858C374.115 56.9594 371.952 53.5866 367.282 53.5866C364.412 53.5912 362.046 55.8868 360.01 59.3172C356.02 66.0456 352.245 77.8438 348.128 85.4228C346.069 89.2094 344.169 89.9988 344.507 84.5761C344.971 77.1623 347.973 65.932 351.933 53.2836C348.002 53.4396 345.303 53.5951 341.89 53.5951C339.545 61.3721 337.985 67.3605 336.969 72.0386C335.503 78.8162 334.315 81.8707 332.541 84.6374C328.724 90.6045 326.554 89.6798 326.873 84.5878C327.348 77.1713 330.347 65.9402 334.302 53.292C330.367 53.4472 327.676 53.6027 324.256 53.6071C320.861 64.8871 318.757 73.5653 317.941 78.7631C316.261 89.532 318.441 93.2662 324.343 93.2662C327.471 93.2662 331.42 90.6045 335.338 83.2702C335.338 83.3364 335.326 83.4003 335.326 83.4619C335.137 89.8839 337.308 93.2577 341.969 93.2577C345.077 93.2493 347.645 90.5229 349.804 86.5972C354.177 78.6697 357.602 66.9719 361.652 60.6476C364.051 56.9025 365.026 57.9664 364.752 62.2723C364.289 69.6725 361.287 80.9164 357.331 93.5608C361.258 93.4048 363.961 93.2493 367.373 93.2493C370.117 83.6424 372.821 71.7688 379.386 60.971C380.666 62.981 382.927 64.1793 384.902 62.7964C384.819 63.4016 384.762 64.0324 384.738 64.7034C384.455 76.402 396.5 77.0659 396.283 86.0446C396.23 88.4936 393.798 91.4409 390.558 91.4471C385.983 91.4471 386.673 86.7326 385.873 83.7943C384.796 79.7952 379.247 80.7368 378.948 85.6523C378.787 88.4275 381.105 93.4208 389.648 93.4173C392.343 93.4132 395.14 92.652 397.536 91.1773C401.751 88.8609 406.399 83.0407 409.482 74.9934C408.794 78.6447 408.495 81.355 408.442 83.4172C408.258 89.8401 409.905 93.2117 414.561 93.2083C417.698 93.2083 421.662 90.539 425.583 83.1676C425.583 83.2417 425.574 83.3271 425.574 83.4093C425.381 89.8268 427.553 93.1998 432.217 93.1998C435.579 93.1998 440.568 90.4987 444.147 81.477C444.089 82.1647 444.048 82.8128 444.035 83.3968C443.843 89.8183 446.014 93.1916 450.68 93.1867C454.042 93.1832 458.367 90.1189 462.567 81.4359C462.503 82.1453 462.453 82.7949 462.437 83.3851C462.248 89.8066 464.414 93.1804 469.079 93.1756C473.142 93.1756 478.59 88.734 483.549 75.3168C484.054 73.9047 483.005 72.98 482.324 74.5682C475.373 90.5425 469.694 91.537 470.141 84.498C470.607 77.1378 473.711 64.8839 477.136 53.0381Z" fill="#13293E"/>
<path d="M159.799 58.7523C159.672 63.7819 161.19 64.7369 161.073 69.5011C160.758 82.279 146.255 94.3457 146.874 84.4569C147.345 77.057 150.117 65.5623 154.073 52.9074C150.146 53.0675 147.668 53.481 144.261 53.481C141.521 66.1531 136.778 77.7526 136.201 79.6844C135.225 82.9258 134.153 84.3796 132.465 86.4919C129.525 90.1837 127.92 88.9105 128.194 84.473C128.636 77.4005 131.393 66.8413 135.091 54.8888C135.267 54.3239 135.742 52.7435 135.923 52.1789C132.204 52.9978 128.412 53.4881 125.577 53.4924C122.481 63.9338 117.03 63.2709 115.482 59.3753C118.078 56.1451 119.844 54.5365 119.95 50.3535C120.04 46.7718 115.359 46.8741 113.271 52.0766C112.299 54.4954 112.353 56.9431 113.05 58.9892C111.661 61.0364 109.961 63.4764 107.959 68.1181C108.176 66.4806 108.278 64.4783 108.315 63.3123C108.5 56.8897 106.333 53.5213 101.668 53.5213C97.6053 53.5213 92.1333 57.7295 87.1984 71.3757C86.5436 73.201 87.7799 73.6755 88.4277 72.12C95.1388 56.006 99.5759 55.1506 99.1331 62.1948C98.6652 69.6072 95.6639 80.8436 91.7038 93.4857C95.6395 93.3302 98.3423 93.1832 101.745 93.1805C103.335 87.9192 104.559 83.4869 105.505 79.7173C108.548 69.7951 111.607 64.5437 114.121 61.1227C116.153 64.0645 119.794 65.1907 123.103 62.0758C120.106 73.0706 119.114 79.3819 119.016 83.3606C118.827 89.7786 120.999 93.1511 125.663 93.147C129.112 93.1426 134.276 90.3222 137.872 80.7082C137.777 81.6902 137.716 82.5698 137.695 83.3475C137.507 89.762 139.678 93.138 144.338 93.1345C156.965 93.1301 167.17 66.2634 167.359 58.7565C167.593 49.3711 160.024 49.7803 159.799 58.7523Z" fill="#13293E"/>
<path d="M135.041 34.4302C132.11 33.0517 128.673 35.2498 127.371 39.3262C126.056 43.4156 127.371 47.8403 130.311 49.2235C133.244 50.5989 136.676 48.4047 137.986 44.3287C139.289 40.2391 137.974 35.8102 135.041 34.4302Z" fill="#13293E"/>
<path d="M179.645 49.1954C182.577 50.5662 186.013 48.376 187.317 44.2952C188.631 40.2105 187.308 35.7816 184.372 34.4024C181.444 33.0225 178.011 35.2171 176.697 39.3018C175.394 43.3868 176.714 47.8157 179.645 49.1954Z" fill="#13293E"/>
<path d="M208.552 64.1018C205.983 73.8225 205.107 79.5861 205.021 83.3078C205.021 83.3231 205.021 83.3364 205.021 83.3517C202.613 87.3876 199.836 90.7314 197.428 90.7355C192.55 90.7355 196.449 69.8321 202.813 58.503C206.262 52.3589 209.051 56.0999 208.552 64.1018ZM313.665 10.2741C304.491 3.28255 289.673 -0.00833893 276.164 3.05176e-05C230.109 0.0244217 218.454 32.8231 230.552 50.2055C228.049 59.3096 225.695 68.5973 224.262 75.9601C217.795 90.5893 213.765 91.2354 214.199 84.4158C214.661 77.0167 217.663 65.776 221.62 53.1238C217.692 53.2836 214.993 53.4397 211.578 53.4397C210.98 55.4365 210.427 57.3201 209.923 59.0921C208.559 51.0981 202.326 52.4854 197.387 55.8911C191.014 60.291 186.735 70.0529 186.222 78.4816C180.432 90.6623 176.898 90.8507 177.303 84.4403C177.746 77.3184 180.538 66.6594 184.273 54.5936C184.425 54.1189 184.879 52.633 185.027 52.146C181.529 52.8176 178.093 53.4598 174.682 53.4641C169.718 69.9434 168.24 78.4155 168.117 83.3271C167.932 89.7451 170.103 93.1184 174.767 93.1184C178.019 93.1135 182.172 90.2441 186.247 82.1982C186.771 88.3828 189.798 93.1099 196.142 93.1059C199.52 93.1015 202.58 90.0797 205.132 86.2496C205.628 90.7481 207.777 93.0975 211.663 93.0939C214.981 93.0939 219.228 90.1189 223.372 81.7188C223.32 82.2916 223.279 82.8281 223.262 83.2945C223.074 89.7119 225.248 93.0858 229.913 93.0858C233.971 93.0814 239.422 88.6491 244.377 75.2276C245.058 73.3404 243.915 72.7181 243.153 74.4784C236.216 90.4742 230.155 91.4471 230.597 84.4082C230.986 78.1623 233.505 67.413 236.429 56.7792C240.304 59.3096 247.236 60.0746 251.484 59.9717C261.518 59.7346 272.489 54.5444 275.934 41.7459C279.611 28.0701 272.589 21.5016 267.043 19.9168C261.931 18.4525 251.013 20.2039 251.84 29.0862C251.84 29.0862 252.151 30.2487 252.84 29.0862C252.229 22.3644 263.087 17.6497 269.849 24.2893C273.685 28.0541 276.871 36.5022 271.457 46.4649C267.145 54.4017 257.226 58.6378 248.985 57.7614C245.795 57.4219 239.841 56.3698 237.104 54.4467C240.057 43.9639 243.49 32.9493 245.595 26.2358C241.663 26.3926 240.815 26.5438 237.4 26.5438C235.807 31.8237 233.768 38.6885 231.809 45.6379C224.487 29.3636 236.859 1.40781 275.929 1.38342C289.051 1.37576 301.62 5.4026 309.684 12.4346C324.256 25.1479 316.418 53.4271 306.629 61.2733C303.218 64.6049 298.361 65.301 295.011 64.5319C285.771 62.403 289.789 48.6834 296.358 48.6747C297.816 48.4627 298.197 47.3734 296.369 47.283C285.894 47.9214 281.471 67.3232 299.118 67.3115C321.669 67.2987 340.114 30.4243 313.665 10.2741Z" fill="#13293E"/>
<path d="M53.1323 52.507C51.0766 56.5994 46.8253 59.7757 39.8142 60.3569C38.1801 60.4968 35.3257 60.5172 31.9341 59.8086C28.1955 59.0178 24.0957 56.174 21.7934 52.8987C25.8608 50.5218 30.3455 48.9937 36.378 48.4381C43.9589 47.7414 49.446 49.4941 53.1323 52.507ZM54.5164 53.7753C60.4676 59.9553 60.3325 69.9679 55.8146 76.402C52.809 80.6837 47.6733 83.7322 41.2627 82.9258C36.3986 82.3133 35.5016 79.7255 35.7964 78.9066C36.0214 78.2927 35.4929 77.8438 35.0342 78.3672C34.5025 78.9841 34.9814 80.5444 35.5708 81.4601C36.7094 83.2367 40.2479 84.1544 42.558 84.2361C48.8609 84.4659 54.3652 81.911 58.1492 77.5359C64.7469 69.91 65.6319 57.377 56.1104 50.7834C57.6905 46.8044 57.5636 42.2895 55.2916 38.172C53.5425 35.0038 49.9701 32.6914 47.2388 31.9666C42.7059 30.7637 39.9209 31.7296 38.1221 32.7688C37.0611 33.3918 36.3324 34.111 35.9969 34.6323C35.0881 36.0192 36.2883 35.7453 36.7996 35.0937C37.103 34.7013 37.6099 34.0957 38.0483 33.8539C41.0059 32.2293 44.2744 32.8433 46.3995 33.4657C50.6135 34.6846 53.6319 38.8069 54.3812 43.0428C54.7705 45.2453 54.7138 47.4961 54.1936 49.6291C49.942 47.3483 44.0736 46.08 36.2679 46.4818C31.7091 46.7186 25.0829 48.6747 20.7294 51.2214C16.2532 43.2882 16.536 31.5868 24.1897 23.0362C32.246 14.0152 44.495 11.5348 59.2642 15.071C67.9871 17.1534 78.799 20.797 90.3558 23.3958C93.5258 24.1164 96.8347 24.653 100.169 25.0008C72.6801 31.0989 75.6582 65.0111 65.2304 83.2046C58.6655 94.653 48.0788 100.584 38.1629 101.006C30.8701 101.325 24.5713 99.7003 19.4222 95.9347C4.9004 86.1352 4.52286 64.6716 20.2751 53.8651C22.8348 57.3362 27.5927 60.5782 32.7456 61.3721C32.7456 61.3721 36.8487 61.986 40.2683 61.6748C46.7188 61.0854 51.6865 57.9664 54.5164 53.7753ZM135.598 17.4454C121.24 21.3914 89.9834 10.4295 67.4749 6.59361C48.7707 3.41283 32.8431 7.35953 24.0584 16.7485C11.0072 30.6738 13.6728 45.2284 19.066 52.4157C-1.87403 66.7017 0.15802 89.7544 18.1041 99.4708C23.5503 102.425 29.5139 103.56 37.5574 103.477C49.373 103.372 63.3016 96.667 72.0043 87.3067C87.4068 70.7114 85.7451 40.5423 97.8918 29.1838C99.8122 27.3787 103.404 25.8197 106.951 25.451C119.717 25.7953 132.527 22.7693 139.699 18.5988C144.482 15.807 146.988 15.1163 146.988 12.7948L135.598 17.4454Z" fill="#13293E"/>
<path d="M304.877 13.9866C287.624 17.6901 282.318 31.8112 278.789 46.8333C278.789 46.8333 277.953 50.6479 276.512 56.3621C276.512 56.3621 269.033 95.3862 255.596 106.375C248.321 112.323 242.907 110.563 240.405 107.002C238.292 103.99 238.444 99.675 239.59 97.6365C242.269 92.9058 248.255 93.9449 250.292 94.3541C250.681 94.4118 251.045 94.1532 251.099 93.7492C251.16 93.3392 250.886 92.9621 250.496 92.9058C250.496 92.9058 240.716 90.2199 237.26 97.0637C233.799 103.9 238.898 115.295 251.524 112.593C264.152 109.891 278.601 90.6087 283.478 70.4996C284.812 65.8169 285.956 61.1584 286.635 56.9106C286.635 56.9106 288.417 49.7067 288.703 48.618C292.795 32.6949 295.219 23.0118 301.297 18.4525C303.34 16.9214 304.25 16.3067 305.847 15.6516C308.672 14.4975 308.509 13.2123 304.877 13.9866Z" fill="#13293E"/>
</g>
<defs>
<filter id="filter0_d_91_151" x="0" y="0" width="497.129" height="121" filterUnits="userSpaceOnUse" color-interpolation-filters="sRGB">
<feFlood flood-opacity="0" result="BackgroundImageFix"/>
<feColorMatrix in="SourceAlpha" type="matrix" values="0 0 0 0 0 0 0 0 0 0 0 0 0 0 0 0 0 0 127 0" result="hardAlpha"/>
<feOffset dy="4"/>
<feGaussianBlur stdDeviation="2"/>
<feComposite in2="hardAlpha" operator="out"/>
<feColorMatrix type="matrix" values="0 0 0 0 0 0 0 0 0 0 0 0 0 0 0 0 0 0 0.25 0"/>
<feBlend mode="normal" in2="BackgroundImageFix" result="effect1_dropShadow_91_151"/>
<feBlend mode="normal" in="SourceGraphic" in2="effect1_dropShadow_91_151" result="shape"/>
</filter>
</defs>
</svg>
