<svg width="284" height="288" viewBox="0 0 284 288" fill="none" xmlns="http://www.w3.org/2000/svg">
<path d="M257.637 138.264H180.074C174.16 138.264 168.652 135.082 165.696 129.962C162.741 124.842 162.741 118.48 165.696 113.363L204.476 46.189C206.959 41.887 211.191 38.946 216.089 38.12C217 37.968 217.928 37.89 218.851 37.89C222.836 37.89 226.691 39.322 229.703 41.927C241.099 51.766 250.712 63.404 258.279 76.511C265.846 89.62 271.119 103.765 273.94 118.548C274.875 123.427 273.594 128.415 270.429 132.239C267.266 136.07 262.602 138.264 257.637 138.264Z" fill="#FCEA1E"/>
</svg>
