<svg width="284" height="288" viewBox="0 0 284 288" fill="none" xmlns="http://www.w3.org/2000/svg">
<path d="M25.83 138.264C20.865 138.264 16.202 136.07 13.035 132.24C9.87398 128.416 8.59298 123.424 9.52398 118.546C12.348 103.759 17.618 89.614 25.185 76.509C32.756 63.395 42.372 51.759 53.761 41.927C56.774 39.323 60.625 37.887 64.608 37.887C65.533 37.887 66.464 37.968 67.378 38.12C72.274 38.946 76.504 41.887 78.988 46.189L117.771 113.36C120.724 118.479 120.724 124.841 117.768 129.961C114.81 135.081 109.305 138.26 103.394 138.26L25.83 138.264Z" fill="#ED7E7F"/>
</svg>
