<svg width="284" height="288" viewBox="0 0 284 288" fill="none" xmlns="http://www.w3.org/2000/svg">
<path d="M218.858 249.708C217.935 249.708 217.004 249.628 216.09 249.476C211.194 248.653 206.96 245.711 204.475 241.41L165.695 174.236C162.742 169.12 162.742 162.757 165.697 157.637C168.653 152.518 174.161 149.335 180.075 149.335H257.638C262.603 149.335 267.267 151.528 270.431 155.356C273.596 159.182 274.873 164.174 273.942 169.049C271.118 183.836 265.848 197.977 258.281 211.086C250.711 224.198 241.097 235.834 229.705 245.671C226.692 248.276 222.84 249.708 218.858 249.708Z" fill="#4B3B8D"/>
</svg>
