<svg width="284" height="288" viewBox="0 0 284 288" fill="none" xmlns="http://www.w3.org/2000/svg">
<path d="M64.607 249.708C60.624 249.706 56.773 248.271 53.76 245.669C42.365 235.826 32.749 224.192 25.184 211.087C17.617 197.978 12.347 183.837 9.52304 169.05C8.58904 164.175 9.86904 159.183 13.034 155.357C16.199 151.527 20.861 149.332 25.826 149.332L103.389 149.336C109.301 149.336 114.811 152.514 117.766 157.638C120.722 162.755 120.722 169.117 117.766 174.237L78.986 241.408C76.502 245.711 72.272 248.65 67.373 249.477C66.461 249.627 65.532 249.708 64.607 249.708Z" fill="#259CD3"/>
</svg>
