<svg width="284" height="288" viewBox="0 0 284 288" fill="none" xmlns="http://www.w3.org/2000/svg">
<path d="M270.95 143.798C273.419 142.312 275.649 140.401 277.534 138.119C282.458 132.169 284.452 124.404 283.003 116.819C279.985 101.02 274.356 85.907 266.268 71.9C258.18 57.888 247.906 45.456 235.737 34.95C231.052 30.899 225.057 28.668 218.853 28.668C217.423 28.668 215.979 28.788 214.562 29.024C211.638 29.517 208.866 30.494 206.342 31.887C206.288 29.011 205.75 26.126 204.719 23.354C202.028 16.106 196.296 10.497 189.003 7.965C173.807 2.679 157.903 0 141.733 0C125.572 0 109.669 2.679 94.467 7.966C87.171 10.502 81.443 16.108 78.748 23.349C77.717 26.127 77.179 29.012 77.124 31.895C74.598 30.496 71.823 29.518 68.893 29.025C67.463 28.785 66.022 28.665 64.605 28.665C58.407 28.665 52.415 30.895 47.733 34.944C35.559 45.46 25.286 57.893 17.2 71.898C9.11199 85.903 3.48199 101.014 0.464986 116.813C-0.982014 124.395 1.00699 132.16 5.92799 138.113C7.81499 140.398 10.045 142.308 12.512 143.795C10.045 145.281 7.81499 147.191 5.92799 149.477C0.999986 155.432 -0.988014 163.2 0.464986 170.777C3.47899 186.57 9.10999 201.685 17.2 215.699C25.277 229.691 35.55 242.122 47.728 252.643C52.411 256.691 58.402 258.925 64.601 258.928C64.601 258.928 64.603 258.928 64.606 258.928C66.021 258.928 67.462 258.808 68.905 258.57C71.826 258.077 74.596 257.098 77.119 255.705C77.173 258.588 77.711 261.471 78.746 264.244C81.437 271.481 87.163 277.09 94.464 279.634C109.656 284.918 125.56 287.597 141.73 287.597C157.897 287.597 173.801 284.918 189.002 279.634C196.298 277.09 202.023 271.482 204.711 264.253C205.746 261.477 206.287 258.588 206.341 255.705C208.867 257.101 211.642 258.08 214.57 258.57C215.997 258.808 217.44 258.928 218.858 258.928C225.056 258.928 231.051 256.698 235.73 252.652C247.903 242.142 258.179 229.711 266.267 215.699C274.352 201.694 279.982 186.579 283.002 170.777C284.448 163.188 282.457 155.423 277.536 149.479C275.649 147.196 273.418 145.287 270.95 143.798ZM157.712 153.023C155.484 156.879 154.336 161.185 154.264 165.508C150.485 163.411 146.183 162.253 141.73 162.253C137.281 162.253 132.979 163.409 129.199 165.508C129.131 161.188 127.979 156.882 125.755 153.029C123.53 149.172 120.373 146.02 116.662 143.799C120.37 141.577 123.527 138.428 125.752 134.575C127.979 130.721 129.127 126.412 129.199 122.089C132.979 124.189 137.282 125.347 141.733 125.347C146.183 125.347 150.484 124.188 154.264 122.089C154.336 126.413 155.485 130.718 157.712 134.575C159.936 138.429 163.091 141.577 166.798 143.799C163.091 146.02 159.936 149.167 157.712 153.023ZM141.733 128.344C133.198 128.344 126.279 135.263 126.279 143.798C126.279 152.333 133.198 159.252 141.733 159.252C150.268 159.252 157.187 152.333 157.187 143.798C157.187 135.263 150.268 128.344 141.733 128.344Z" fill="#13293E"/>
<path d="M141.731 278.374C126.589 278.374 111.705 275.867 97.4941 270.923C92.8041 269.29 89.1221 265.686 87.3911 261.031C85.6571 256.378 86.0861 251.243 88.5701 246.941L127.353 179.769C130.311 174.653 135.82 171.473 141.73 171.473C147.641 171.473 153.152 174.653 156.108 179.769L194.891 246.941C197.374 251.246 197.804 256.379 196.07 261.031C194.339 265.685 190.658 269.29 185.967 270.923C171.752 275.867 156.867 278.374 141.731 278.374Z" fill="#F0871D"/>
<path d="M218.858 249.708C217.935 249.708 217.004 249.628 216.09 249.476C211.194 248.653 206.96 245.711 204.475 241.41L165.695 174.236C162.742 169.12 162.742 162.757 165.697 157.637C168.653 152.518 174.161 149.335 180.075 149.335H257.638C262.603 149.335 267.267 151.528 270.431 155.356C273.596 159.182 274.873 164.174 273.942 169.049C271.118 183.836 265.848 197.977 258.281 211.086C250.711 224.198 241.097 235.834 229.705 245.671C226.692 248.276 222.84 249.708 218.858 249.708Z" fill="#4B3B8D"/>
<path d="M64.607 249.708C60.624 249.706 56.773 248.271 53.76 245.669C42.365 235.826 32.749 224.192 25.184 211.087C17.617 197.978 12.347 183.837 9.52304 169.05C8.58904 164.175 9.86904 159.183 13.034 155.357C16.199 151.527 20.861 149.332 25.826 149.332L103.389 149.336C109.301 149.336 114.811 152.514 117.766 157.638C120.722 162.755 120.722 169.117 117.766 174.237L78.986 241.408C76.502 245.711 72.272 248.65 67.373 249.477C66.461 249.627 65.532 249.708 64.607 249.708Z" fill="#259CD3"/>
<path d="M257.637 138.264H180.074C174.16 138.264 168.652 135.082 165.696 129.962C162.741 124.842 162.741 118.48 165.696 113.363L204.476 46.189C206.959 41.887 211.191 38.946 216.089 38.12C217 37.968 217.928 37.89 218.851 37.89C222.836 37.89 226.691 39.322 229.703 41.927C241.099 51.766 250.712 63.404 258.279 76.511C265.846 89.62 271.119 103.765 273.94 118.548C274.875 123.427 273.594 128.415 270.429 132.239C267.266 136.07 262.602 138.264 257.637 138.264Z" fill="#FCEA1E"/>
<path d="M25.83 138.264C20.865 138.264 16.202 136.07 13.035 132.24C9.87398 128.416 8.59298 123.424 9.52398 118.546C12.348 103.759 17.618 89.614 25.185 76.509C32.756 63.395 42.372 51.759 53.761 41.927C56.774 39.323 60.625 37.887 64.608 37.887C65.533 37.887 66.464 37.968 67.378 38.12C72.274 38.946 76.504 41.887 78.988 46.189L117.771 113.36C120.724 118.479 120.724 124.841 117.768 129.961C114.81 135.081 109.305 138.26 103.394 138.26L25.83 138.264Z" fill="#ED7E7F"/>
<path d="M141.734 116.125C135.822 116.125 130.314 112.945 127.356 107.826L88.574 40.655C86.093 36.355 85.663 31.218 87.394 26.564C89.126 21.909 92.807 18.306 97.497 16.677C111.719 11.729 126.605 9.22198 141.735 9.22198C156.87 9.22198 171.756 11.729 185.972 16.677C190.661 18.306 194.343 21.909 196.075 26.567C197.806 31.221 197.377 36.355 194.896 40.655L156.113 107.826C153.153 112.945 147.645 116.125 141.734 116.125Z" fill="#3BAA63"/>
</svg>
