<svg width="398" height="406" viewBox="0 0 398 406" fill="none" xmlns="http://www.w3.org/2000/svg">
<g filter="url(#filter0_i_92_183)">
<path fill-rule="evenodd" clip-rule="evenodd" d="M389.672 194.702C387.026 197.919 383.895 200.613 380.428 202.707C383.893 204.806 387.026 207.497 389.675 210.716C396.584 219.095 399.38 230.041 397.35 240.739C393.109 263.014 385.204 284.321 373.853 304.064C362.497 323.816 348.069 341.34 330.977 356.155C324.408 361.859 315.99 365.002 307.288 365.002C305.297 365.002 303.271 364.833 301.267 364.498C297.156 363.807 293.26 362.427 289.714 360.459C289.638 364.523 288.878 368.596 287.425 372.509C283.651 382.699 275.613 390.605 265.369 394.191C244.026 401.64 221.696 405.416 198.996 405.416C176.293 405.416 153.963 401.64 132.632 394.191C122.381 390.605 114.342 382.698 110.563 372.496C109.11 368.587 108.355 364.523 108.279 360.459C104.737 362.423 100.847 363.803 96.7462 364.498C94.7201 364.833 92.6969 365.002 90.7102 365.002H90.7031C81.9994 364.998 73.5878 361.849 67.0126 356.143C49.914 341.312 35.4902 323.788 24.1497 304.064C12.7909 284.309 4.88468 263.002 0.652865 240.739C-1.38722 230.058 1.40403 219.107 8.3232 210.713C10.9726 207.49 14.1037 204.798 17.5675 202.703C14.1037 200.607 10.9726 197.915 8.3232 194.693C1.41386 186.302 -1.3788 175.356 0.652865 164.667C4.88889 142.396 12.7937 121.095 24.1497 101.352C35.5028 81.6099 49.9267 64.0835 67.0196 49.2594C73.5934 43.5517 82.0065 40.4081 90.7088 40.4081C92.6983 40.4081 94.7215 40.5773 96.7293 40.9156C100.843 41.6106 104.739 42.9892 108.286 44.9613C108.363 40.8973 109.119 36.8304 110.566 32.9143C114.35 22.7069 122.393 14.8043 132.637 11.2294C153.981 3.7765 176.31 0 199.001 0C221.704 0 244.034 3.7765 265.37 11.228C275.61 14.7973 283.658 22.7041 287.436 32.9214C288.884 36.829 289.639 40.8959 289.715 44.9501C293.259 42.9864 297.151 41.6092 301.256 40.9142C303.246 40.5815 305.273 40.4123 307.281 40.4123C315.992 40.4123 324.409 43.5573 330.987 49.2679C348.073 64.0778 362.498 81.6028 373.854 101.355C385.21 121.1 393.114 142.405 397.351 164.676C399.385 175.368 396.586 186.314 389.672 194.702Z" fill="#13293E"/>
</g>
<defs>
<filter id="filter0_i_92_183" x="0" y="0" width="398" height="409.416" filterUnits="userSpaceOnUse" color-interpolation-filters="sRGB">
<feFlood flood-opacity="0" result="BackgroundImageFix"/>
<feBlend mode="normal" in="SourceGraphic" in2="BackgroundImageFix" result="shape"/>
<feColorMatrix in="SourceAlpha" type="matrix" values="0 0 0 0 0 0 0 0 0 0 0 0 0 0 0 0 0 0 127 0" result="hardAlpha"/>
<feOffset dy="4"/>
<feGaussianBlur stdDeviation="2"/>
<feComposite in2="hardAlpha" operator="arithmetic" k2="-1" k3="1"/>
<feColorMatrix type="matrix" values="0 0 0 0 0 0 0 0 0 0 0 0 0 0 0 0 0 0 0.25 0"/>
<feBlend mode="normal" in2="shape" result="effect1_innerShadow_92_183"/>
</filter>
</defs>
</svg>
