<svg width="43" height="43" viewBox="0 0 43 43" fill="none" xmlns="http://www.w3.org/2000/svg">
<circle cx="21.5" cy="21.5" r="19.9074" fill="white"/>
<path d="M21.5 0C9.64454 0 0 9.64454 0 21.5C0 33.3555 9.64454 43 21.5 43C33.3555 43 43 33.3555 43 21.5C43 9.64454 33.3555 0 21.5 0ZM21.5 3.58333C31.4169 3.58333 39.4167 11.5831 39.4167 21.5C39.4167 31.4169 31.4169 39.4167 21.5 39.4167C11.5831 39.4167 3.58333 31.4169 3.58333 21.5C3.58333 11.5831 11.5831 3.58333 21.5 3.58333ZM13.4375 14.3333C12.7247 14.3333 12.0412 14.6165 11.5371 15.1205C11.0331 15.6245 10.75 16.3081 10.75 17.0208C10.75 17.7336 11.0331 18.4172 11.5371 18.9212C12.0412 19.4252 12.7247 19.7083 13.4375 19.7083C14.1503 19.7083 14.8338 19.4252 15.3378 18.9212C15.8419 18.4172 16.125 17.7336 16.125 17.0208C16.125 16.3081 15.8419 15.6245 15.3378 15.1205C14.8338 14.6165 14.1503 14.3333 13.4375 14.3333ZM25.0833 16.125V19.7083H34.0417V16.125H25.0833ZM30.4028 23.3472C30.4028 26.3644 29.1916 28.457 27.434 29.9549C25.6782 31.4527 23.3544 32.25 21.5 32.25C17.6999 32.25 15.1163 30.7092 13.1007 28.7222L10.5816 31.3004C13.081 33.7532 16.6983 35.8333 21.5 35.8333C24.286 35.8333 27.3444 34.7834 29.7865 32.6979C32.2285 30.6124 33.9861 27.3946 33.9861 23.3472H30.4028Z" fill="#5aa233"/>
<path d="M21.5 0C9.64454 0 0 9.64454 0 21.5C0 33.3555 9.64454 43 21.5 43C33.3555 43 43 33.3555 43 21.5C43 9.64454 33.3555 0 21.5 0ZM21.5 3.58333C31.4169 3.58333 39.4167 11.5831 39.4167 21.5C39.4167 31.4169 31.4169 39.4167 21.5 39.4167C11.5831 39.4167 3.58333 31.4169 3.58333 21.5C3.58333 11.5831 11.5831 3.58333 21.5 3.58333ZM13.4375 14.3333C12.7247 14.3333 12.0412 14.6165 11.5371 15.1205C11.0331 15.6245 10.75 16.3081 10.75 17.0208C10.75 17.7336 11.0331 18.4172 11.5371 18.9212C12.0412 19.4252 12.7247 19.7083 13.4375 19.7083C14.1503 19.7083 14.8338 19.4252 15.3378 18.9212C15.8419 18.4172 16.125 17.7336 16.125 17.0208C16.125 16.3081 15.8419 15.6245 15.3378 15.1205C14.8338 14.6165 14.1503 14.3333 13.4375 14.3333ZM25.0833 16.125V19.7083H34.0417V16.125H25.0833ZM30.4028 23.3472C30.4028 26.3644 29.1916 28.457 27.434 29.9549C25.6782 31.4527 23.3544 32.25 21.5 32.25C17.6999 32.25 15.1163 30.7092 13.1007 28.7222L10.5816 31.3004C13.081 33.7532 16.6983 35.8333 21.5 35.8333C24.286 35.8333 27.3444 34.7834 29.7865 32.6979C32.2285 30.6124 33.9861 27.3946 33.9861 23.3472H30.4028Z" fill="black" fill-opacity="0.2"/>
</svg>
