<svg width="390" height="458" viewBox="0 0 390 458" fill="none" xmlns="http://www.w3.org/2000/svg">
<rect width="389.031" height="457.677" fill="#FFFCFC"/>
<g filter="url(#filter0_d_292_341)">
<path d="M60.969 72.2228C57.8769 72.2228 54.996 70.5801 53.4489 67.9358L33.1648 33.2373C31.8672 31.0161 31.6423 28.3625 32.5477 25.9583C33.4535 23.5537 35.3788 21.6925 37.8318 20.851C45.2703 18.295 53.0561 17 60.9695 17C68.8856 17 76.6713 18.295 84.1067 20.851C86.5592 21.6925 88.485 23.5537 89.3909 25.9599C90.2962 28.364 90.0718 31.0161 88.7742 33.2373L68.4896 67.9358C66.9415 70.5801 64.0606 72.2228 60.969 72.2228Z" fill="#3BAA63"/>
<path d="M60.969 440.677C57.8769 440.677 54.996 439.034 53.4489 436.39L33.1648 401.691C31.8672 399.47 31.6423 396.817 32.5477 394.412C33.4535 392.008 35.3788 390.147 37.8318 389.305C45.2703 386.749 53.0561 385.454 60.9695 385.454C68.8856 385.454 76.6713 386.749 84.1067 389.305C86.5592 390.147 88.485 392.008 89.3909 394.414C90.2962 396.818 90.0718 399.47 88.7742 401.691L68.4896 436.39C66.9415 439.034 64.0606 440.677 60.969 440.677Z" fill="#ED7E7F"/>
<path d="M60.969 220.691C57.8769 220.691 54.996 219.021 53.4489 216.334L33.1648 181.066C31.8672 178.809 31.6423 176.111 32.5477 173.668C33.4535 171.224 35.3788 169.332 37.8318 168.477C45.2703 165.879 53.0561 164.563 60.9695 164.563C68.8856 164.563 76.6713 165.879 84.1067 168.477C86.5592 169.332 88.485 171.224 89.3909 173.669C90.2962 176.113 90.0718 178.809 88.7742 181.066L68.4896 216.334C66.9415 219.021 64.0606 220.691 60.969 220.691Z" fill="#4B3B8D"/>
<path d="M60.969 294.019C57.8769 294.019 54.996 292.377 53.4489 289.732L33.1648 255.034C31.8672 252.813 31.6423 250.159 32.5477 247.755C33.4535 245.35 35.3788 243.489 37.8318 242.648C45.2703 240.092 53.0561 238.797 60.9695 238.797C68.8856 238.797 76.6713 240.092 84.1067 242.648C86.5592 243.489 88.485 245.35 89.3909 247.757C90.2962 250.161 90.0718 252.813 88.7742 255.034L68.4896 289.732C66.9415 292.377 64.0606 294.019 60.969 294.019Z" fill="#F0871D"/>
<path d="M60.969 367.348C57.8769 367.348 54.996 365.705 53.4489 363.061L33.1648 328.363C31.8672 326.141 31.6423 323.488 32.5477 321.084C33.4535 318.679 35.3788 316.818 37.8318 315.976C45.2703 313.42 53.0561 312.125 60.9695 312.125C68.8856 312.125 76.6713 313.42 84.1067 315.976C86.5592 316.818 88.485 318.679 89.3909 321.085C90.2962 323.489 90.0718 326.141 88.7742 328.363L68.4896 363.061C66.9415 365.705 64.0606 367.348 60.969 367.348Z" fill="#259CD3"/>
<path d="M60.969 146.457C57.8769 146.457 54.996 144.787 53.4489 142.1L33.1648 106.832C31.8672 104.575 31.6423 101.877 32.5477 99.4339C33.4535 96.9898 35.3788 95.0981 37.8318 94.2428C45.2703 91.645 53.0561 90.3287 60.9695 90.3287C68.8856 90.3287 76.6713 91.645 84.1067 94.2428C86.5592 95.0981 88.485 96.9898 89.3909 99.4355C90.2962 101.879 90.0718 104.575 88.7742 106.832L68.4896 142.1C66.9415 144.787 64.0606 146.457 60.969 146.457Z" fill="#FCEA1E"/>
</g>
<path d="M133.001 35.4219C132.474 35.1289 131.986 34.8848 131.536 34.6895C131.097 34.4844 130.667 34.3184 130.247 34.1914C129.827 34.0547 129.407 33.957 128.988 33.8984C128.568 33.8398 128.123 33.8105 127.655 33.8105C127.069 33.8105 126.531 33.8984 126.043 34.0742C125.565 34.25 125.15 34.4844 124.798 34.7773C124.447 35.0703 124.173 35.4072 123.978 35.7881C123.792 36.1689 123.699 36.5596 123.699 36.96C123.699 37.3604 123.753 37.7266 123.861 38.0586C123.978 38.3809 124.207 38.6885 124.549 38.9814C124.891 39.2646 125.379 39.5479 126.014 39.8311C126.649 40.1045 127.489 40.3926 128.533 40.6953C129.5 40.9785 130.355 41.3105 131.097 41.6914C131.849 42.0625 132.479 42.4922 132.987 42.9805C133.494 43.4688 133.88 44.0254 134.144 44.6504C134.407 45.2754 134.539 45.9834 134.539 46.7744C134.539 47.7607 134.344 48.6592 133.953 49.4697C133.573 50.2705 133.045 50.9639 132.371 51.5498C131.707 52.126 130.931 52.5752 130.042 52.8975C129.154 53.21 128.211 53.3662 127.215 53.3662C126.512 53.3662 125.823 53.3174 125.15 53.2197C124.486 53.1221 123.856 52.9854 123.26 52.8096C122.674 52.6338 122.132 52.4287 121.634 52.1943C121.136 51.9502 120.701 51.6816 120.33 51.3887L120.99 48.3857C121.966 49.2354 122.972 49.8506 124.007 50.2314C125.052 50.6123 126.121 50.8027 127.215 50.8027C127.801 50.8027 128.367 50.7197 128.914 50.5537C129.461 50.3877 129.945 50.1484 130.365 49.8359C130.784 49.5137 131.121 49.123 131.375 48.6641C131.629 48.1953 131.756 47.6631 131.756 47.0674C131.756 46.6865 131.693 46.3252 131.566 45.9834C131.448 45.6318 131.204 45.29 130.833 44.958C130.462 44.626 129.93 44.2988 129.237 43.9766C128.543 43.6445 127.625 43.3076 126.483 42.9658C125.34 42.624 124.407 42.248 123.685 41.8379C122.962 41.4277 122.396 40.9834 121.986 40.5049C121.575 40.0166 121.292 39.499 121.136 38.9521C120.99 38.3955 120.916 37.8047 120.916 37.1797C120.916 36.5547 121.043 35.8955 121.297 35.2021C121.561 34.5088 121.971 33.8691 122.528 33.2832C123.084 32.6973 123.797 32.2139 124.666 31.833C125.535 31.4424 126.58 31.2471 127.801 31.2471C128.367 31.2471 128.895 31.2715 129.383 31.3203C129.881 31.3691 130.36 31.4473 130.819 31.5547C131.287 31.6621 131.746 31.7988 132.196 31.9648C132.645 32.1309 133.109 32.3311 133.587 32.5654L133.001 35.4219ZM149.715 51.7549C149.344 52.0381 148.973 52.2822 148.602 52.4873C148.24 52.6826 147.86 52.8486 147.459 52.9854C147.059 53.1123 146.629 53.2051 146.17 53.2637C145.711 53.332 145.208 53.3662 144.661 53.3662C143.675 53.3662 142.752 53.1953 141.893 52.8535C141.033 52.502 140.281 51.999 139.637 51.3447C138.992 50.6904 138.485 49.8994 138.114 48.9717C137.742 48.0439 137.557 46.9941 137.557 45.8223C137.557 44.7188 137.733 43.6787 138.084 42.7021C138.446 41.7256 138.953 40.8711 139.608 40.1387C140.272 39.4062 141.073 38.8301 142.01 38.4102C142.957 37.9805 144.012 37.7656 145.174 37.7656C146.151 37.7656 146.99 37.8828 147.694 38.1172C148.406 38.3418 149.031 38.6396 149.569 39.0107L149.056 41.6475C148.392 41.1592 147.733 40.793 147.078 40.5488C146.424 40.3047 145.716 40.1826 144.954 40.1826C144.3 40.1826 143.69 40.3096 143.123 40.5635C142.567 40.8076 142.078 41.1641 141.658 41.6328C141.248 42.1016 140.926 42.6777 140.692 43.3613C140.457 44.0449 140.34 44.8164 140.34 45.6758C140.34 46.4668 140.448 47.1846 140.662 47.8291C140.877 48.4736 141.185 49.0303 141.585 49.499C141.986 49.958 142.469 50.3145 143.035 50.5684C143.602 50.8223 144.241 50.9492 144.954 50.9492C145.843 50.9492 146.649 50.7979 147.371 50.4951C148.094 50.1924 148.778 49.7578 149.422 49.1914L149.715 51.7549ZM153.377 33.2979C153.377 33.0244 153.421 32.7705 153.509 32.5361C153.597 32.292 153.719 32.082 153.875 31.9062C154.041 31.7207 154.237 31.5791 154.461 31.4814C154.686 31.374 154.935 31.3203 155.208 31.3203C155.482 31.3203 155.736 31.374 155.97 31.4814C156.204 31.5791 156.405 31.7207 156.571 31.9062C156.737 32.082 156.868 32.292 156.966 32.5361C157.064 32.7705 157.113 33.0244 157.113 33.2979C157.113 33.5713 157.064 33.8301 156.966 34.0742C156.868 34.3086 156.737 34.5186 156.571 34.7041C156.405 34.8799 156.204 35.0215 155.97 35.1289C155.736 35.2266 155.482 35.2754 155.208 35.2754C154.935 35.2754 154.686 35.2266 154.461 35.1289C154.237 35.0215 154.041 34.8799 153.875 34.7041C153.719 34.5186 153.597 34.3086 153.509 34.0742C153.421 33.8301 153.377 33.5713 153.377 33.2979ZM156.6 46.042C156.6 46.5107 156.605 47.0674 156.615 47.7119C156.634 48.3467 156.654 48.9912 156.673 49.6455C156.702 50.2998 156.732 50.9248 156.761 51.5205C156.8 52.1162 156.844 52.6094 156.893 53H153.89V45.2363C153.89 44.5234 153.885 43.8203 153.875 43.127C153.875 42.4336 153.865 41.7793 153.846 41.1641C153.836 40.5391 153.817 39.9629 153.787 39.4355C153.758 38.8984 153.719 38.4395 153.67 38.0586H156.6V46.042ZM163.499 45.8955C163.529 46.7549 163.66 47.502 163.895 48.1367C164.139 48.7715 164.466 49.2988 164.876 49.7188C165.296 50.1289 165.784 50.4365 166.341 50.6416C166.907 50.8467 167.523 50.9492 168.187 50.9492C169.134 50.9492 170.062 50.8418 170.97 50.627C171.878 50.4121 172.781 50.0312 173.68 49.4844L173.973 51.9014C173.455 52.165 172.948 52.3896 172.449 52.5752C171.951 52.7607 171.453 52.9121 170.955 53.0293C170.457 53.1465 169.949 53.2295 169.432 53.2783C168.924 53.3369 168.387 53.3662 167.821 53.3662C166.883 53.3662 165.99 53.2051 165.14 52.8828C164.29 52.5508 163.543 52.0674 162.899 51.4326C162.254 50.7881 161.741 49.9922 161.361 49.0449C160.98 48.0977 160.789 46.999 160.789 45.749C160.789 44.5381 160.95 43.4443 161.273 42.4678C161.605 41.4814 162.073 40.6416 162.679 39.9482C163.284 39.2451 164.022 38.708 164.891 38.3369C165.76 37.9561 166.737 37.7656 167.821 37.7656C168.621 37.7656 169.329 37.8633 169.945 38.0586C170.56 38.2441 171.092 38.5078 171.541 38.8496C171.99 39.1816 172.366 39.5723 172.669 40.0215C172.972 40.4707 173.211 40.9541 173.387 41.4717C173.573 41.9893 173.704 42.5312 173.782 43.0977C173.861 43.6543 173.9 44.2061 173.9 44.7529V45.3242C173.9 45.5684 173.895 45.7588 173.885 45.8955H163.499ZM167.601 39.9629C166.527 39.9629 165.648 40.2803 164.964 40.915C164.281 41.54 163.831 42.5166 163.616 43.8447H171.263C171.263 43.2197 171.17 42.668 170.985 42.1895C170.809 41.7012 170.555 41.291 170.223 40.959C169.901 40.627 169.515 40.3779 169.066 40.2119C168.616 40.0459 168.128 39.9629 167.601 39.9629ZM188.123 53V44.9434C188.123 44.0254 188.06 43.2686 187.933 42.6729C187.816 42.0771 187.635 41.6084 187.391 41.2666C187.156 40.915 186.854 40.6709 186.483 40.5342C186.121 40.3975 185.692 40.3291 185.194 40.3291C184.666 40.3291 184.149 40.4561 183.641 40.71C183.143 40.9541 182.684 41.2764 182.264 41.6768C181.844 42.0674 181.473 42.5117 181.151 43.0098C180.828 43.5078 180.589 44.0059 180.433 44.5039V53H177.723V43.9912C177.723 42.5459 177.64 41.3252 177.474 40.3291C177.318 39.3232 177.156 38.5664 176.99 38.0586H179.627C179.686 38.2148 179.744 38.4199 179.803 38.6738C179.862 38.918 179.915 39.1768 179.964 39.4502C180.013 39.7236 180.057 39.9922 180.096 40.2559L180.213 40.915C181.141 39.8018 182.078 39.001 183.026 38.5127C183.973 38.0146 184.964 37.7656 185.999 37.7656C187.562 37.7656 188.758 38.2783 189.588 39.3037C190.418 40.3193 190.833 41.833 190.833 43.8447V53H188.123ZM206.375 51.7549C206.004 52.0381 205.633 52.2822 205.262 52.4873C204.901 52.6826 204.52 52.8486 204.119 52.9854C203.719 53.1123 203.289 53.2051 202.83 53.2637C202.371 53.332 201.868 53.3662 201.322 53.3662C200.335 53.3662 199.412 53.1953 198.553 52.8535C197.694 52.502 196.942 51.999 196.297 51.3447C195.653 50.6904 195.145 49.8994 194.774 48.9717C194.403 48.0439 194.217 46.9941 194.217 45.8223C194.217 44.7188 194.393 43.6787 194.744 42.7021C195.106 41.7256 195.614 40.8711 196.268 40.1387C196.932 39.4062 197.733 38.8301 198.67 38.4102C199.617 37.9805 200.672 37.7656 201.834 37.7656C202.811 37.7656 203.651 37.8828 204.354 38.1172C205.067 38.3418 205.692 38.6396 206.229 39.0107L205.716 41.6475C205.052 41.1592 204.393 40.793 203.739 40.5488C203.084 40.3047 202.376 40.1826 201.615 40.1826C200.96 40.1826 200.35 40.3096 199.783 40.5635C199.227 40.8076 198.739 41.1641 198.319 41.6328C197.908 42.1016 197.586 42.6777 197.352 43.3613C197.117 44.0449 197 44.8164 197 45.6758C197 46.4668 197.108 47.1846 197.323 47.8291C197.537 48.4736 197.845 49.0303 198.245 49.499C198.646 49.958 199.129 50.3145 199.696 50.5684C200.262 50.8223 200.902 50.9492 201.615 50.9492C202.503 50.9492 203.309 50.7979 204.031 50.4951C204.754 50.1924 205.438 49.7578 206.082 49.1914L206.375 51.7549ZM211.868 45.8955C211.898 46.7549 212.03 47.502 212.264 48.1367C212.508 48.7715 212.835 49.2988 213.245 49.7188C213.665 50.1289 214.154 50.4365 214.71 50.6416C215.277 50.8467 215.892 50.9492 216.556 50.9492C217.503 50.9492 218.431 50.8418 219.339 50.627C220.247 50.4121 221.151 50.0312 222.049 49.4844L222.342 51.9014C221.824 52.165 221.317 52.3896 220.819 52.5752C220.321 52.7607 219.823 52.9121 219.324 53.0293C218.826 53.1465 218.319 53.2295 217.801 53.2783C217.293 53.3369 216.756 53.3662 216.19 53.3662C215.252 53.3662 214.359 53.2051 213.509 52.8828C212.659 52.5508 211.912 52.0674 211.268 51.4326C210.623 50.7881 210.111 49.9922 209.73 49.0449C209.349 48.0977 209.158 46.999 209.158 45.749C209.158 44.5381 209.32 43.4443 209.642 42.4678C209.974 41.4814 210.443 40.6416 211.048 39.9482C211.654 39.2451 212.391 38.708 213.26 38.3369C214.129 37.9561 215.106 37.7656 216.19 37.7656C216.99 37.7656 217.698 37.8633 218.314 38.0586C218.929 38.2441 219.461 38.5078 219.91 38.8496C220.36 39.1816 220.736 39.5723 221.038 40.0215C221.341 40.4707 221.58 40.9541 221.756 41.4717C221.942 41.9893 222.073 42.5312 222.152 43.0977C222.23 43.6543 222.269 44.2061 222.269 44.7529V45.3242C222.269 45.5684 222.264 45.7588 222.254 45.8955H211.868ZM215.97 39.9629C214.896 39.9629 214.017 40.2803 213.333 40.915C212.65 41.54 212.2 42.5166 211.986 43.8447H219.632C219.632 43.2197 219.539 42.668 219.354 42.1895C219.178 41.7012 218.924 41.291 218.592 40.959C218.27 40.627 217.884 40.3779 217.435 40.2119C216.986 40.0459 216.497 39.9629 215.97 39.9629ZM236.492 35.4219C236.492 35.9492 236.683 36.5303 237.064 37.165C237.445 37.79 237.928 38.4834 238.514 39.2451C239.334 38.4248 239.969 37.7021 240.418 37.0771C240.877 36.4424 241.107 35.8662 241.107 35.3486C241.107 35.0264 241.043 34.7334 240.916 34.4697C240.789 34.2061 240.618 33.9814 240.404 33.7959C240.198 33.6104 239.959 33.4688 239.686 33.3711C239.412 33.2734 239.129 33.2246 238.836 33.2246C238.553 33.2246 238.27 33.2783 237.987 33.3857C237.713 33.4834 237.464 33.6299 237.24 33.8252C237.015 34.0107 236.834 34.2402 236.698 34.5137C236.561 34.7871 236.492 35.0898 236.492 35.4219ZM238.543 50.8027C238.846 50.8027 239.168 50.7539 239.51 50.6562C239.852 50.5586 240.203 50.4219 240.565 50.2461C240.926 50.0703 241.287 49.8652 241.649 49.6309C242.02 49.3867 242.381 49.123 242.733 48.8398C242.283 48.2344 241.805 47.585 241.297 46.8916C240.799 46.1885 240.272 45.4414 239.715 44.6504C239.461 44.3086 239.207 43.9717 238.953 43.6396C238.709 43.3076 238.46 42.9805 238.206 42.6582C237.669 43.1465 237.21 43.6006 236.829 44.0205C236.458 44.4404 236.156 44.8408 235.921 45.2217C235.687 45.6025 235.516 45.9736 235.408 46.335C235.301 46.6963 235.247 47.0625 235.247 47.4336C235.247 47.8438 235.321 48.2539 235.467 48.6641C235.614 49.0645 235.823 49.4258 236.097 49.748C236.38 50.0605 236.727 50.3145 237.137 50.5098C237.547 50.7051 238.016 50.8027 238.543 50.8027ZM247.698 46.6279C247.523 46.9795 247.283 47.3701 246.981 47.7998C246.688 48.2295 246.336 48.6689 245.926 49.1182C246.629 49.9385 247.24 50.583 247.757 51.0518C248.275 51.5107 248.719 51.8184 249.09 51.9746C248.953 52.0918 248.787 52.2334 248.592 52.3994C248.397 52.5557 248.192 52.707 247.977 52.8535C247.772 52.9902 247.572 53.1074 247.376 53.2051C247.181 53.3125 247.02 53.3662 246.893 53.3662C246.688 53.3662 246.361 53.1416 245.911 52.6924C245.462 52.2432 244.901 51.5986 244.227 50.7588C243.797 51.1201 243.343 51.4619 242.865 51.7842C242.386 52.0967 241.893 52.3701 241.385 52.6045C240.887 52.8389 240.379 53.0244 239.862 53.1611C239.344 53.2979 238.831 53.3662 238.323 53.3662C237.503 53.3662 236.746 53.2148 236.053 52.9121C235.369 52.6094 234.779 52.1943 234.281 51.667C233.782 51.1396 233.392 50.5195 233.109 49.8066C232.825 49.0938 232.684 48.3271 232.684 47.5068C232.684 46.96 232.762 46.4326 232.918 45.9248C233.084 45.417 233.333 44.8994 233.665 44.3721C234.007 43.8447 234.437 43.2979 234.954 42.7314C235.482 42.165 236.102 41.5449 236.815 40.8711C236.444 40.3926 236.092 39.9238 235.76 39.4648C235.438 39.0059 235.155 38.5566 234.91 38.1172C234.676 37.6777 234.49 37.248 234.354 36.8281C234.217 36.3984 234.149 35.9785 234.149 35.5684C234.149 34.7578 234.295 34.0791 234.588 33.5322C234.881 32.9756 235.262 32.5312 235.731 32.1992C236.199 31.8574 236.722 31.6133 237.298 31.4668C237.884 31.3203 238.47 31.2471 239.056 31.2471C239.613 31.2471 240.155 31.3398 240.682 31.5254C241.209 31.7109 241.678 31.9844 242.088 32.3457C242.498 32.6973 242.825 33.1318 243.07 33.6494C243.323 34.167 243.45 34.7578 243.45 35.4219C243.45 35.832 243.363 36.2666 243.187 36.7256C243.021 37.1748 242.781 37.6387 242.469 38.1172C242.156 38.5957 241.785 39.084 241.356 39.582C240.926 40.0801 240.457 40.5781 239.949 41.0762C240.194 41.3887 240.433 41.7109 240.667 42.043C240.911 42.3652 241.156 42.6973 241.4 43.0391C241.966 43.8691 242.498 44.6309 242.996 45.3242C243.504 46.0176 243.983 46.6572 244.432 47.2432C244.832 46.8037 245.179 46.3643 245.472 45.9248C245.775 45.4756 246.004 45.0508 246.16 44.6504L247.698 46.6279ZM262.816 36.125V53H260.179C260.286 52.4141 260.35 51.5693 260.369 50.4658C260.389 49.3525 260.399 48.0732 260.399 46.6279V37.9854C260.399 36.54 260.389 35.2656 260.369 34.1621C260.35 33.0488 260.286 32.1992 260.179 31.6133H262.816L274.461 48.5615V31.6133H277.098C277.049 31.9062 277.01 32.2676 276.981 32.6973C276.951 33.127 276.927 33.6152 276.907 34.1621C276.898 34.6992 276.888 35.29 276.878 35.9346C276.878 36.5791 276.878 37.2627 276.878 37.9854V53H274.461L262.816 36.125ZM291.6 40.373C291.483 40.3438 291.351 40.3145 291.204 40.2852C291.058 40.2559 290.882 40.2266 290.677 40.1973C290.482 40.168 290.247 40.1484 289.974 40.1387C289.71 40.1191 289.398 40.1094 289.036 40.1094C288.079 40.1094 287.279 40.3047 286.634 40.6953C285.999 41.0762 285.491 41.5889 285.111 42.2334C284.73 42.8682 284.456 43.6006 284.29 44.4307C284.134 45.2607 284.056 46.1152 284.056 46.9941C284.056 47.5605 284.11 48.083 284.217 48.5615C284.334 49.0303 284.49 49.4404 284.686 49.792C284.881 50.1338 285.106 50.4023 285.36 50.5977C285.614 50.7832 285.887 50.876 286.18 50.876C286.61 50.876 287.039 50.71 287.469 50.3779C287.908 50.0459 288.328 49.6211 288.729 49.1035C289.129 48.5762 289.505 47.9902 289.857 47.3457C290.208 46.6914 290.511 46.0469 290.765 45.4121C291.029 44.7676 291.234 44.1621 291.38 43.5957C291.527 43.0293 291.6 42.5752 291.6 42.2334V40.373ZM292.698 53C292.591 52.7656 292.493 52.4434 292.406 52.0332C292.327 51.623 292.259 51.1885 292.2 50.7295C292.152 50.2607 292.113 49.7969 292.083 49.3379C292.054 48.8789 292.039 48.4883 292.039 48.166V46.9941C291.746 47.7559 291.395 48.5176 290.985 49.2793C290.584 50.0312 290.12 50.71 289.593 51.3154C289.075 51.9209 288.494 52.4141 287.85 52.7949C287.205 53.1758 286.502 53.3662 285.74 53.3662C285.125 53.3662 284.549 53.2295 284.012 52.9561C283.475 52.6826 283.006 52.2773 282.606 51.7402C282.215 51.2031 281.907 50.5391 281.683 49.748C281.458 48.9473 281.346 48.0293 281.346 46.9941C281.346 45.832 281.502 44.6992 281.815 43.5957C282.127 42.4824 282.606 41.4961 283.25 40.6367C283.895 39.7676 284.715 39.0742 285.711 38.5566C286.707 38.0293 287.889 37.7656 289.256 37.7656C290.203 37.7656 291.097 37.8291 291.937 37.9561C292.777 38.0732 293.568 38.2295 294.31 38.4248V45.2363C294.31 47.082 294.398 48.6348 294.573 49.8945C294.749 51.1445 294.979 52.1797 295.262 53H292.698ZM297.093 38.4248H300.023V33.6641H302.733V38.4248H307.493V40.5488H302.733V47.2871C302.733 48.0391 302.767 48.6543 302.835 49.1328C302.913 49.6113 303.026 49.9873 303.172 50.2607C303.328 50.5244 303.524 50.7051 303.758 50.8027C303.992 50.9004 304.276 50.9492 304.608 50.9492C305.028 50.9492 305.501 50.8564 306.029 50.6709C306.556 50.4854 307.142 50.2119 307.786 49.8506V52.1943C307.113 52.6338 306.468 52.9365 305.853 53.1025C305.238 53.2783 304.671 53.3662 304.154 53.3662C303.577 53.3662 303.04 53.2979 302.542 53.1611C302.044 53.0342 301.605 52.8047 301.224 52.4727C300.853 52.1406 300.56 51.7012 300.345 51.1543C300.13 50.5977 300.023 49.8945 300.023 49.0449V40.5488H297.093V38.4248ZM322.376 53C322.308 52.834 322.235 52.6387 322.156 52.4141C322.078 52.1895 322 51.9502 321.922 51.6963C321.854 51.4424 321.785 51.1787 321.717 50.9053C321.658 50.6221 321.61 50.3438 321.571 50.0703C320.682 51.1543 319.764 51.9746 318.817 52.5312C317.879 53.0879 316.893 53.3662 315.858 53.3662C312.733 53.3662 311.17 51.2666 311.17 47.0674V42.7461C311.17 42.2773 311.165 41.8525 311.156 41.4717C311.156 41.0908 311.146 40.7246 311.126 40.373C311.107 40.0117 311.077 39.6455 311.038 39.2744C310.999 38.9033 310.946 38.498 310.877 38.0586H313.88V46.1885C313.88 47.0186 313.919 47.7363 313.997 48.3418C314.085 48.9375 314.227 49.4307 314.422 49.8213C314.617 50.2021 314.871 50.4854 315.184 50.6709C315.506 50.8564 315.902 50.9492 316.37 50.9492C316.8 50.9492 317.259 50.8223 317.747 50.5684C318.236 50.3047 318.699 49.9727 319.139 49.5723C319.588 49.1719 319.993 48.7324 320.355 48.2539C320.726 47.7656 321.009 47.2969 321.204 46.8477V42.7461C321.204 42.2676 321.199 41.8379 321.19 41.457C321.19 41.0664 321.18 40.6953 321.16 40.3438C321.141 39.9922 321.112 39.6357 321.073 39.2744C321.033 38.9131 320.98 38.5078 320.911 38.0586H323.914V46.4082C323.914 47.834 323.992 49.084 324.149 50.1582C324.315 51.2227 324.554 52.1699 324.866 53H322.376ZM328.543 53V43.9912C328.543 42.5459 328.46 41.3252 328.294 40.3291C328.138 39.3232 327.977 38.5664 327.811 38.0586H330.448C330.506 38.2148 330.565 38.4199 330.623 38.6738C330.682 38.918 330.736 39.1768 330.784 39.4502C330.833 39.7236 330.877 39.9922 330.916 40.2559L331.033 40.915C331.385 40.4072 331.766 39.958 332.176 39.5674C332.596 39.1768 333.016 38.8496 333.436 38.5859C333.865 38.3125 334.281 38.1074 334.681 37.9707C335.091 37.834 335.462 37.7656 335.794 37.7656C336.409 37.7656 336.927 37.9023 337.347 38.1758C337.777 38.4395 338.123 38.8008 338.387 39.2598C338.66 39.709 338.856 40.2314 338.973 40.8271C339.1 41.4131 339.163 42.0283 339.163 42.6729L336.82 43.1855C336.82 42.8242 336.785 42.4775 336.717 42.1455C336.649 41.8037 336.546 41.5059 336.409 41.252C336.273 40.9883 336.097 40.7832 335.882 40.6367C335.677 40.4805 335.428 40.4023 335.135 40.4023C334.823 40.4023 334.476 40.5244 334.095 40.7686C333.714 41.0029 333.338 41.3154 332.967 41.7061C332.606 42.0967 332.269 42.5361 331.956 43.0244C331.644 43.5127 331.409 44.0059 331.253 44.5039V53H328.543ZM343.411 45.8955C343.441 46.7549 343.573 47.502 343.807 48.1367C344.051 48.7715 344.378 49.2988 344.788 49.7188C345.208 50.1289 345.697 50.4365 346.253 50.6416C346.82 50.8467 347.435 50.9492 348.099 50.9492C349.046 50.9492 349.974 50.8418 350.882 50.627C351.79 50.4121 352.694 50.0312 353.592 49.4844L353.885 51.9014C353.367 52.165 352.86 52.3896 352.362 52.5752C351.864 52.7607 351.365 52.9121 350.867 53.0293C350.369 53.1465 349.862 53.2295 349.344 53.2783C348.836 53.3369 348.299 53.3662 347.733 53.3662C346.795 53.3662 345.902 53.2051 345.052 52.8828C344.202 52.5508 343.455 52.0674 342.811 51.4326C342.166 50.7881 341.654 49.9922 341.273 49.0449C340.892 48.0977 340.701 46.999 340.701 45.749C340.701 44.5381 340.863 43.4443 341.185 42.4678C341.517 41.4814 341.986 40.6416 342.591 39.9482C343.197 39.2451 343.934 38.708 344.803 38.3369C345.672 37.9561 346.649 37.7656 347.733 37.7656C348.533 37.7656 349.241 37.8633 349.857 38.0586C350.472 38.2441 351.004 38.5078 351.453 38.8496C351.903 39.1816 352.279 39.5723 352.581 40.0215C352.884 40.4707 353.123 40.9541 353.299 41.4717C353.485 41.9893 353.616 42.5312 353.695 43.0977C353.773 43.6543 353.812 44.2061 353.812 44.7529V45.3242C353.812 45.5684 353.807 45.7588 353.797 45.8955H343.411ZM347.513 39.9629C346.439 39.9629 345.56 40.2803 344.876 40.915C344.193 41.54 343.743 42.5166 343.529 43.8447H351.175C351.175 43.2197 351.082 42.668 350.897 42.1895C350.721 41.7012 350.467 41.291 350.135 40.959C349.813 40.627 349.427 40.3779 348.978 40.2119C348.529 40.0459 348.04 39.9629 347.513 39.9629Z" fill="#13293E"/>
<path d="M134.832 126.329V116.441H124.285V126.329H121.282C121.39 125.743 121.453 124.898 121.473 123.795C121.492 122.681 121.502 121.402 121.502 119.957V111.314C121.502 109.869 121.492 108.594 121.473 107.491C121.453 106.378 121.39 105.528 121.282 104.942H124.285V114.097H134.832V104.942H137.835C137.728 105.528 137.664 106.378 137.645 107.491C137.625 108.594 137.615 109.869 137.615 111.314V119.957C137.615 121.402 137.625 122.681 137.645 123.795C137.664 124.898 137.728 125.743 137.835 126.329H134.832ZM142.83 106.627C142.83 106.353 142.874 106.099 142.962 105.865C143.05 105.621 143.172 105.411 143.328 105.235C143.494 105.049 143.69 104.908 143.914 104.81C144.139 104.703 144.388 104.649 144.661 104.649C144.935 104.649 145.189 104.703 145.423 104.81C145.657 104.908 145.858 105.049 146.024 105.235C146.19 105.411 146.322 105.621 146.419 105.865C146.517 106.099 146.566 106.353 146.566 106.627C146.566 106.9 146.517 107.159 146.419 107.403C146.322 107.637 146.19 107.847 146.024 108.033C145.858 108.209 145.657 108.35 145.423 108.458C145.189 108.555 144.935 108.604 144.661 108.604C144.388 108.604 144.139 108.555 143.914 108.458C143.69 108.35 143.494 108.209 143.328 108.033C143.172 107.847 143.05 107.637 142.962 107.403C142.874 107.159 142.83 106.9 142.83 106.627ZM146.053 119.371C146.053 119.839 146.058 120.396 146.068 121.041C146.087 121.675 146.107 122.32 146.126 122.974C146.156 123.628 146.185 124.253 146.214 124.849C146.253 125.445 146.297 125.938 146.346 126.329H143.343V118.565C143.343 117.852 143.338 117.149 143.328 116.456C143.328 115.762 143.319 115.108 143.299 114.493C143.289 113.868 143.27 113.292 143.24 112.764C143.211 112.227 143.172 111.768 143.123 111.387H146.053V119.371ZM160.57 114.83C160.325 114.683 160.047 114.532 159.735 114.376C159.422 114.21 159.08 114.058 158.709 113.921C158.348 113.785 157.957 113.672 157.537 113.585C157.127 113.487 156.698 113.438 156.248 113.438C155.711 113.438 155.257 113.497 154.886 113.614C154.525 113.731 154.232 113.882 154.007 114.068C153.792 114.244 153.636 114.449 153.538 114.683C153.441 114.908 153.392 115.128 153.392 115.342C153.392 115.596 153.431 115.821 153.509 116.016C153.587 116.212 153.748 116.392 153.992 116.558C154.246 116.724 154.603 116.885 155.062 117.042C155.521 117.198 156.136 117.364 156.907 117.54C157.572 117.686 158.197 117.877 158.782 118.111C159.368 118.336 159.881 118.624 160.321 118.975C160.76 119.327 161.107 119.752 161.361 120.25C161.615 120.738 161.741 121.324 161.741 122.007C161.741 122.671 161.595 123.287 161.302 123.853C161.009 124.42 160.609 124.918 160.101 125.347C159.593 125.767 158.997 126.094 158.314 126.329C157.63 126.573 156.893 126.695 156.102 126.695C155.506 126.695 154.93 126.651 154.373 126.563C153.826 126.475 153.309 126.353 152.821 126.197C152.342 126.041 151.903 125.86 151.502 125.655C151.102 125.45 150.755 125.235 150.462 125.01L151.195 122.374C151.527 122.667 151.898 122.935 152.308 123.179C152.728 123.423 153.157 123.633 153.597 123.809C154.036 123.985 154.476 124.122 154.915 124.219C155.365 124.307 155.784 124.351 156.175 124.351C156.605 124.351 156.995 124.297 157.347 124.19C157.708 124.073 158.016 123.926 158.27 123.751C158.533 123.565 158.739 123.355 158.885 123.121C159.031 122.877 159.105 122.628 159.105 122.374C159.105 122.1 159.046 121.846 158.929 121.612C158.822 121.368 158.616 121.138 158.314 120.923C158.021 120.699 157.611 120.484 157.083 120.279C156.566 120.074 155.897 119.869 155.076 119.664C154.188 119.449 153.46 119.195 152.894 118.902C152.337 118.609 151.898 118.287 151.575 117.935C151.263 117.584 151.048 117.203 150.931 116.793C150.814 116.382 150.755 115.948 150.755 115.489C150.755 115.264 150.789 115.001 150.858 114.698C150.936 114.395 151.058 114.083 151.224 113.76C151.4 113.428 151.624 113.106 151.898 112.794C152.181 112.471 152.532 112.188 152.952 111.944C153.372 111.69 153.865 111.485 154.432 111.329C154.998 111.172 155.653 111.094 156.395 111.094C156.922 111.094 157.415 111.128 157.874 111.197C158.343 111.265 158.768 111.358 159.149 111.475C159.539 111.583 159.896 111.71 160.218 111.856C160.54 111.993 160.828 112.129 161.082 112.266L160.57 114.83ZM163.441 111.753H166.37V106.993H169.08V111.753H173.841V113.878H169.08V120.616C169.08 121.368 169.115 121.983 169.183 122.462C169.261 122.94 169.373 123.316 169.52 123.589C169.676 123.853 169.871 124.034 170.106 124.131C170.34 124.229 170.623 124.278 170.955 124.278C171.375 124.278 171.849 124.185 172.376 124C172.904 123.814 173.49 123.541 174.134 123.179V125.523C173.46 125.962 172.816 126.265 172.2 126.431C171.585 126.607 171.019 126.695 170.501 126.695C169.925 126.695 169.388 126.627 168.89 126.49C168.392 126.363 167.952 126.133 167.572 125.801C167.2 125.469 166.907 125.03 166.693 124.483C166.478 123.926 166.37 123.223 166.37 122.374V113.878H163.441V111.753ZM179.349 118.931C179.349 119.781 179.451 120.543 179.656 121.216C179.862 121.89 180.15 122.462 180.521 122.93C180.902 123.389 181.351 123.741 181.868 123.985C182.386 124.229 182.962 124.351 183.597 124.351C184.183 124.351 184.735 124.229 185.252 123.985C185.77 123.741 186.219 123.389 186.6 122.93C186.99 122.462 187.293 121.89 187.508 121.216C187.733 120.543 187.845 119.781 187.845 118.931C187.845 118.072 187.742 117.305 187.537 116.631C187.332 115.948 187.039 115.372 186.658 114.903C186.287 114.424 185.838 114.063 185.311 113.819C184.793 113.565 184.222 113.438 183.597 113.438C183.001 113.438 182.445 113.565 181.927 113.819C181.409 114.063 180.96 114.424 180.579 114.903C180.198 115.372 179.896 115.948 179.671 116.631C179.456 117.305 179.349 118.072 179.349 118.931ZM176.639 118.931C176.639 117.671 176.829 116.558 177.21 115.591C177.591 114.615 178.104 113.795 178.748 113.13C179.393 112.457 180.145 111.949 181.004 111.607C181.864 111.265 182.777 111.094 183.743 111.094C184.749 111.094 185.667 111.265 186.497 111.607C187.337 111.949 188.055 112.457 188.651 113.13C189.256 113.795 189.725 114.615 190.057 115.591C190.389 116.558 190.555 117.671 190.555 118.931C190.555 120.191 190.365 121.304 189.984 122.271C189.603 123.238 189.09 124.048 188.446 124.703C187.801 125.357 187.049 125.855 186.19 126.197C185.33 126.529 184.417 126.695 183.45 126.695C182.445 126.695 181.522 126.529 180.682 126.197C179.852 125.855 179.134 125.357 178.529 124.703C177.933 124.048 177.469 123.238 177.137 122.271C176.805 121.304 176.639 120.191 176.639 118.931ZM194.217 126.329V117.32C194.217 115.875 194.134 114.654 193.968 113.658C193.812 112.652 193.651 111.895 193.485 111.387H196.121C196.18 111.544 196.239 111.749 196.297 112.003C196.356 112.247 196.409 112.505 196.458 112.779C196.507 113.052 196.551 113.321 196.59 113.585L196.707 114.244C197.059 113.736 197.44 113.287 197.85 112.896C198.27 112.505 198.69 112.178 199.11 111.915C199.539 111.641 199.954 111.436 200.355 111.299C200.765 111.163 201.136 111.094 201.468 111.094C202.083 111.094 202.601 111.231 203.021 111.504C203.45 111.768 203.797 112.129 204.061 112.588C204.334 113.038 204.53 113.56 204.647 114.156C204.774 114.742 204.837 115.357 204.837 116.002L202.493 116.514C202.493 116.153 202.459 115.806 202.391 115.474C202.323 115.132 202.22 114.835 202.083 114.581C201.947 114.317 201.771 114.112 201.556 113.965C201.351 113.809 201.102 113.731 200.809 113.731C200.496 113.731 200.15 113.853 199.769 114.097C199.388 114.332 199.012 114.644 198.641 115.035C198.28 115.425 197.943 115.865 197.63 116.353C197.318 116.841 197.083 117.335 196.927 117.833V126.329H194.217ZM214.578 126.329C214.071 127.735 213.573 128.882 213.084 129.771C212.596 130.66 212.098 131.358 211.59 131.866C211.092 132.383 210.57 132.735 210.023 132.92C209.486 133.116 208.905 133.213 208.28 133.213C207.606 133.213 206.971 133.106 206.375 132.891C205.789 132.676 205.228 132.369 204.691 131.968L205.57 129.625C205.726 129.752 205.906 129.878 206.112 130.005C206.326 130.142 206.551 130.259 206.785 130.357C207.03 130.464 207.279 130.552 207.532 130.621C207.786 130.689 208.035 130.723 208.28 130.723C208.573 130.723 208.861 130.67 209.144 130.562C209.427 130.464 209.71 130.269 209.993 129.976C210.286 129.693 210.584 129.288 210.887 128.76C211.19 128.243 211.512 127.559 211.854 126.71L207.767 116.587C207.493 115.923 207.176 115.176 206.815 114.346C206.453 113.516 205.99 112.53 205.423 111.387H208.353L213.084 123.355C213.27 122.828 213.47 122.256 213.685 121.641C213.909 121.016 214.139 120.377 214.373 119.722C214.608 119.058 214.842 118.394 215.076 117.73C215.311 117.056 215.535 116.412 215.75 115.796C216.258 114.351 216.771 112.881 217.288 111.387H220.218C219.964 111.954 219.735 112.481 219.53 112.969C219.324 113.448 219.134 113.902 218.958 114.332C218.782 114.752 218.621 115.147 218.475 115.518C218.338 115.889 218.211 116.246 218.094 116.587L214.578 126.329Z" fill="#13293E"/>
<path d="M121.502 195.102V182.914C121.502 182.231 121.492 181.596 121.473 181.01C121.463 180.414 121.444 179.882 121.414 179.413C121.385 178.944 121.341 178.564 121.282 178.271C121.605 178.251 122.005 178.232 122.484 178.212C122.962 178.193 123.485 178.178 124.051 178.168C124.627 178.149 125.228 178.139 125.853 178.139C126.488 178.129 127.113 178.124 127.728 178.124C128.812 178.124 129.779 178.212 130.628 178.388C131.478 178.564 132.191 178.852 132.767 179.252C133.343 179.652 133.782 180.18 134.085 180.834C134.388 181.488 134.539 182.294 134.539 183.251C134.539 183.866 134.447 184.423 134.261 184.921C134.075 185.409 133.817 185.849 133.485 186.239C133.162 186.62 132.781 186.952 132.342 187.236C131.912 187.519 131.448 187.753 130.95 187.939C131.517 188.085 132.078 188.29 132.635 188.554C133.192 188.808 133.69 189.15 134.129 189.579C134.578 190.009 134.94 190.546 135.213 191.191C135.496 191.825 135.638 192.597 135.638 193.505C135.638 194.394 135.491 195.224 135.198 195.995C134.915 196.757 134.456 197.421 133.822 197.987C133.197 198.554 132.386 198.998 131.39 199.32C130.404 199.643 129.207 199.804 127.801 199.804C127.059 199.804 126.336 199.799 125.633 199.789C124.94 199.779 124.3 199.765 123.714 199.745C123.138 199.736 122.635 199.721 122.205 199.701C121.785 199.692 121.478 199.677 121.282 199.657C121.341 199.364 121.385 198.988 121.414 198.529C121.444 198.07 121.463 197.553 121.473 196.977C121.492 196.401 121.502 195.776 121.502 195.102ZM124.285 197.387C124.422 197.397 124.608 197.406 124.842 197.416C125.076 197.426 125.35 197.436 125.662 197.445C125.975 197.445 126.317 197.45 126.688 197.46C127.069 197.46 127.464 197.46 127.874 197.46C128.499 197.46 129.105 197.397 129.691 197.27C130.286 197.143 130.809 196.928 131.258 196.625C131.717 196.322 132.083 195.917 132.357 195.409C132.64 194.902 132.781 194.267 132.781 193.505C132.781 192.148 132.366 191.127 131.536 190.444C130.716 189.75 129.447 189.403 127.728 189.403H124.285V197.387ZM124.285 187.133H127.142C127.923 187.133 128.597 187.05 129.163 186.884C129.74 186.718 130.213 186.484 130.584 186.181C130.955 185.878 131.229 185.517 131.405 185.097C131.59 184.667 131.683 184.198 131.683 183.691C131.683 183.144 131.605 182.665 131.448 182.255C131.302 181.845 131.063 181.503 130.731 181.23C130.408 180.946 129.984 180.736 129.456 180.6C128.939 180.463 128.314 180.395 127.581 180.395C127.298 180.395 126.995 180.4 126.673 180.409C126.351 180.409 126.038 180.414 125.736 180.424C125.433 180.434 125.155 180.444 124.901 180.453C124.647 180.453 124.442 180.458 124.285 180.468V187.133ZM141.878 192.26C141.878 193.11 141.981 193.871 142.186 194.545C142.391 195.219 142.679 195.79 143.05 196.259C143.431 196.718 143.88 197.069 144.398 197.314C144.915 197.558 145.491 197.68 146.126 197.68C146.712 197.68 147.264 197.558 147.781 197.314C148.299 197.069 148.748 196.718 149.129 196.259C149.52 195.79 149.823 195.219 150.037 194.545C150.262 193.871 150.374 193.11 150.374 192.26C150.374 191.401 150.272 190.634 150.067 189.96C149.862 189.277 149.569 188.7 149.188 188.232C148.817 187.753 148.367 187.392 147.84 187.148C147.323 186.894 146.751 186.767 146.126 186.767C145.531 186.767 144.974 186.894 144.456 187.148C143.939 187.392 143.49 187.753 143.109 188.232C142.728 188.7 142.425 189.277 142.2 189.96C141.986 190.634 141.878 191.401 141.878 192.26ZM139.168 192.26C139.168 191 139.359 189.887 139.74 188.92C140.12 187.944 140.633 187.123 141.278 186.459C141.922 185.785 142.674 185.277 143.533 184.936C144.393 184.594 145.306 184.423 146.273 184.423C147.279 184.423 148.197 184.594 149.027 184.936C149.866 185.277 150.584 185.785 151.18 186.459C151.785 187.123 152.254 187.944 152.586 188.92C152.918 189.887 153.084 191 153.084 192.26C153.084 193.52 152.894 194.633 152.513 195.6C152.132 196.567 151.619 197.377 150.975 198.031C150.33 198.686 149.578 199.184 148.719 199.526C147.86 199.858 146.947 200.024 145.98 200.024C144.974 200.024 144.051 199.858 143.211 199.526C142.381 199.184 141.663 198.686 141.058 198.031C140.462 197.377 139.998 196.567 139.666 195.6C139.334 194.633 139.168 193.52 139.168 192.26ZM158.577 192.26C158.577 193.11 158.68 193.871 158.885 194.545C159.09 195.219 159.378 195.79 159.749 196.259C160.13 196.718 160.579 197.069 161.097 197.314C161.615 197.558 162.191 197.68 162.825 197.68C163.411 197.68 163.963 197.558 164.481 197.314C164.998 197.069 165.448 196.718 165.828 196.259C166.219 195.79 166.522 195.219 166.737 194.545C166.961 193.871 167.073 193.11 167.073 192.26C167.073 191.401 166.971 190.634 166.766 189.96C166.561 189.277 166.268 188.7 165.887 188.232C165.516 187.753 165.067 187.392 164.539 187.148C164.022 186.894 163.45 186.767 162.825 186.767C162.23 186.767 161.673 186.894 161.156 187.148C160.638 187.392 160.189 187.753 159.808 188.232C159.427 188.7 159.124 189.277 158.9 189.96C158.685 190.634 158.577 191.401 158.577 192.26ZM155.867 192.26C155.867 191 156.058 189.887 156.439 188.92C156.82 187.944 157.332 187.123 157.977 186.459C158.621 185.785 159.373 185.277 160.233 184.936C161.092 184.594 162.005 184.423 162.972 184.423C163.978 184.423 164.896 184.594 165.726 184.936C166.566 185.277 167.283 185.785 167.879 186.459C168.485 187.123 168.953 187.944 169.285 188.92C169.617 189.887 169.783 191 169.783 192.26C169.783 193.52 169.593 194.633 169.212 195.6C168.831 196.567 168.319 197.377 167.674 198.031C167.03 198.686 166.278 199.184 165.418 199.526C164.559 199.858 163.646 200.024 162.679 200.024C161.673 200.024 160.75 199.858 159.91 199.526C159.08 199.184 158.363 198.686 157.757 198.031C157.161 197.377 156.698 196.567 156.365 195.6C156.033 194.633 155.867 193.52 155.867 192.26ZM173.299 199.657V183.105C173.299 181.523 173.289 180.141 173.27 178.959C173.25 177.768 173.187 176.855 173.079 176.22H176.009V190.854L181.942 184.716H185.604L178.353 191.264L186.043 199.657H182.454L176.009 192.04V199.657H173.299ZM198.07 188.158C197.825 188.012 197.547 187.861 197.235 187.704C196.922 187.538 196.58 187.387 196.209 187.25C195.848 187.113 195.457 187.001 195.037 186.913C194.627 186.816 194.198 186.767 193.748 186.767C193.211 186.767 192.757 186.825 192.386 186.943C192.025 187.06 191.732 187.211 191.507 187.397C191.292 187.572 191.136 187.777 191.038 188.012C190.941 188.236 190.892 188.456 190.892 188.671C190.892 188.925 190.931 189.15 191.009 189.345C191.087 189.54 191.248 189.721 191.492 189.887C191.746 190.053 192.103 190.214 192.562 190.37C193.021 190.527 193.636 190.693 194.407 190.868C195.072 191.015 195.697 191.205 196.282 191.44C196.868 191.664 197.381 191.952 197.821 192.304C198.26 192.655 198.607 193.08 198.861 193.578C199.115 194.067 199.241 194.652 199.241 195.336C199.241 196 199.095 196.615 198.802 197.182C198.509 197.748 198.109 198.246 197.601 198.676C197.093 199.096 196.497 199.423 195.814 199.657C195.13 199.902 194.393 200.024 193.602 200.024C193.006 200.024 192.43 199.98 191.873 199.892C191.326 199.804 190.809 199.682 190.321 199.526C189.842 199.369 189.403 199.189 189.002 198.984C188.602 198.778 188.255 198.564 187.962 198.339L188.695 195.702C189.027 195.995 189.398 196.264 189.808 196.508C190.228 196.752 190.657 196.962 191.097 197.138C191.536 197.314 191.976 197.45 192.415 197.548C192.865 197.636 193.284 197.68 193.675 197.68C194.105 197.68 194.495 197.626 194.847 197.519C195.208 197.402 195.516 197.255 195.77 197.079C196.033 196.894 196.239 196.684 196.385 196.449C196.531 196.205 196.605 195.956 196.605 195.702C196.605 195.429 196.546 195.175 196.429 194.941C196.322 194.696 196.116 194.467 195.814 194.252C195.521 194.027 195.111 193.813 194.583 193.608C194.066 193.402 193.397 193.197 192.576 192.992C191.688 192.777 190.96 192.524 190.394 192.231C189.837 191.938 189.398 191.615 189.075 191.264C188.763 190.912 188.548 190.531 188.431 190.121C188.314 189.711 188.255 189.277 188.255 188.818C188.255 188.593 188.289 188.329 188.358 188.027C188.436 187.724 188.558 187.411 188.724 187.089C188.9 186.757 189.124 186.435 189.398 186.122C189.681 185.8 190.032 185.517 190.452 185.273C190.872 185.019 191.365 184.814 191.932 184.657C192.498 184.501 193.153 184.423 193.895 184.423C194.422 184.423 194.915 184.457 195.374 184.526C195.843 184.594 196.268 184.687 196.649 184.804C197.039 184.911 197.396 185.038 197.718 185.185C198.04 185.321 198.328 185.458 198.582 185.595L198.07 188.158Z" fill="#13293E"/>
<path d="M133.001 255.408C132.474 255.115 131.986 254.871 131.536 254.676C131.097 254.47 130.667 254.304 130.247 254.177C129.827 254.041 129.407 253.943 128.988 253.884C128.568 253.826 128.123 253.797 127.655 253.797C127.069 253.797 126.531 253.884 126.043 254.06C125.565 254.236 125.15 254.47 124.798 254.763C124.447 255.056 124.173 255.393 123.978 255.774C123.792 256.155 123.699 256.546 123.699 256.946C123.699 257.346 123.753 257.713 123.861 258.045C123.978 258.367 124.207 258.675 124.549 258.967C124.891 259.251 125.379 259.534 126.014 259.817C126.649 260.091 127.489 260.379 128.533 260.681C129.5 260.965 130.355 261.297 131.097 261.677C131.849 262.049 132.479 262.478 132.987 262.967C133.494 263.455 133.88 264.011 134.144 264.636C134.407 265.261 134.539 265.969 134.539 266.76C134.539 267.747 134.344 268.645 133.953 269.456C133.573 270.257 133.045 270.95 132.371 271.536C131.707 272.112 130.931 272.561 130.042 272.884C129.154 273.196 128.211 273.352 127.215 273.352C126.512 273.352 125.823 273.303 125.15 273.206C124.486 273.108 123.856 272.971 123.26 272.796C122.674 272.62 122.132 272.415 121.634 272.18C121.136 271.936 120.701 271.668 120.33 271.375L120.99 268.372C121.966 269.221 122.972 269.837 124.007 270.217C125.052 270.598 126.121 270.789 127.215 270.789C127.801 270.789 128.367 270.706 128.914 270.54C129.461 270.374 129.945 270.134 130.365 269.822C130.784 269.5 131.121 269.109 131.375 268.65C131.629 268.181 131.756 267.649 131.756 267.053C131.756 266.673 131.693 266.311 131.566 265.969C131.448 265.618 131.204 265.276 130.833 264.944C130.462 264.612 129.93 264.285 129.237 263.963C128.543 263.631 127.625 263.294 126.483 262.952C125.34 262.61 124.407 262.234 123.685 261.824C122.962 261.414 122.396 260.969 121.986 260.491C121.575 260.003 121.292 259.485 121.136 258.938C120.99 258.382 120.916 257.791 120.916 257.166C120.916 256.541 121.043 255.882 121.297 255.188C121.561 254.495 121.971 253.855 122.528 253.269C123.084 252.683 123.797 252.2 124.666 251.819C125.535 251.428 126.58 251.233 127.801 251.233C128.367 251.233 128.895 251.258 129.383 251.306C129.881 251.355 130.36 251.433 130.819 251.541C131.287 251.648 131.746 251.785 132.196 251.951C132.645 252.117 133.109 252.317 133.587 252.551L133.001 255.408ZM141.146 269.177C141.644 269.529 142.073 269.822 142.435 270.056C142.806 270.281 143.143 270.462 143.446 270.598C143.748 270.725 144.036 270.813 144.31 270.862C144.593 270.911 144.906 270.935 145.247 270.935C145.765 270.935 146.258 270.813 146.727 270.569C147.205 270.325 147.625 269.973 147.987 269.514C148.358 269.046 148.651 268.484 148.865 267.83C149.09 267.166 149.202 266.419 149.202 265.589C149.202 264.778 149.124 264.046 148.968 263.391C148.822 262.727 148.602 262.166 148.309 261.707C148.016 261.238 147.659 260.877 147.24 260.623C146.829 260.369 146.361 260.242 145.833 260.242C145.413 260.242 144.984 260.335 144.544 260.52C144.105 260.706 143.675 260.979 143.255 261.341C142.845 261.702 142.459 262.156 142.098 262.703C141.737 263.24 141.419 263.86 141.146 264.563V269.177ZM140.34 258.045C140.448 258.299 140.555 258.66 140.662 259.129C140.77 259.588 140.858 260.154 140.926 260.828C141.268 260.379 141.639 259.964 142.039 259.583C142.449 259.202 142.879 258.88 143.328 258.616C143.787 258.342 144.266 258.133 144.764 257.986C145.272 257.83 145.799 257.752 146.346 257.752C147.176 257.752 147.933 257.937 148.616 258.308C149.31 258.67 149.896 259.182 150.374 259.846C150.863 260.501 151.239 261.282 151.502 262.19C151.776 263.089 151.912 264.075 151.912 265.149C151.912 266.399 151.737 267.532 151.385 268.548C151.033 269.553 150.555 270.413 149.949 271.126C149.354 271.839 148.651 272.39 147.84 272.781C147.03 273.162 146.165 273.352 145.247 273.352C144.857 273.352 144.486 273.313 144.134 273.235C143.792 273.157 143.455 273.05 143.123 272.913C142.801 272.776 142.479 272.61 142.156 272.415C141.834 272.21 141.497 271.985 141.146 271.741V275.183C141.146 275.769 141.151 276.297 141.16 276.765C141.18 277.244 141.204 277.683 141.234 278.084C141.263 278.484 141.302 278.85 141.351 279.182C141.4 279.524 141.453 279.851 141.512 280.164H138.436V265.882C138.436 264.973 138.426 264.134 138.406 263.362C138.397 262.581 138.367 261.868 138.319 261.223C138.27 260.569 138.197 259.978 138.099 259.451C138.001 258.924 137.869 258.455 137.703 258.045H140.34ZM157.406 265.589C157.406 266.438 157.508 267.2 157.713 267.874C157.918 268.548 158.206 269.119 158.577 269.588C158.958 270.047 159.407 270.398 159.925 270.642C160.443 270.886 161.019 271.009 161.654 271.009C162.24 271.009 162.791 270.886 163.309 270.642C163.826 270.398 164.276 270.047 164.656 269.588C165.047 269.119 165.35 268.548 165.565 267.874C165.789 267.2 165.902 266.438 165.902 265.589C165.902 264.729 165.799 263.963 165.594 263.289C165.389 262.605 165.096 262.029 164.715 261.56C164.344 261.082 163.895 260.72 163.367 260.476C162.85 260.222 162.279 260.095 161.654 260.095C161.058 260.095 160.501 260.222 159.984 260.476C159.466 260.72 159.017 261.082 158.636 261.56C158.255 262.029 157.952 262.605 157.728 263.289C157.513 263.963 157.406 264.729 157.406 265.589ZM154.696 265.589C154.696 264.329 154.886 263.216 155.267 262.249C155.648 261.272 156.16 260.452 156.805 259.788C157.449 259.114 158.201 258.606 159.061 258.264C159.92 257.923 160.833 257.752 161.8 257.752C162.806 257.752 163.724 257.923 164.554 258.264C165.394 258.606 166.112 259.114 166.707 259.788C167.313 260.452 167.781 261.272 168.114 262.249C168.446 263.216 168.612 264.329 168.612 265.589C168.612 266.848 168.421 267.962 168.04 268.928C167.659 269.895 167.147 270.706 166.502 271.36C165.858 272.014 165.106 272.512 164.246 272.854C163.387 273.186 162.474 273.352 161.507 273.352C160.501 273.352 159.578 273.186 158.739 272.854C157.908 272.512 157.191 272.014 156.585 271.36C155.99 270.706 155.526 269.895 155.194 268.928C154.862 267.962 154.696 266.848 154.696 265.589ZM172.274 272.986V263.977C172.274 262.532 172.191 261.311 172.025 260.315C171.868 259.309 171.707 258.552 171.541 258.045H174.178C174.237 258.201 174.295 258.406 174.354 258.66C174.412 258.904 174.466 259.163 174.515 259.436C174.564 259.71 174.608 259.978 174.647 260.242L174.764 260.901C175.115 260.393 175.496 259.944 175.906 259.553C176.326 259.163 176.746 258.836 177.166 258.572C177.596 258.299 178.011 258.093 178.411 257.957C178.822 257.82 179.193 257.752 179.525 257.752C180.14 257.752 180.657 257.888 181.077 258.162C181.507 258.426 181.854 258.787 182.117 259.246C182.391 259.695 182.586 260.217 182.703 260.813C182.83 261.399 182.894 262.014 182.894 262.659L180.55 263.172C180.55 262.81 180.516 262.464 180.448 262.132C180.379 261.79 180.277 261.492 180.14 261.238C180.003 260.974 179.827 260.769 179.613 260.623C179.407 260.467 179.158 260.388 178.865 260.388C178.553 260.388 178.206 260.51 177.825 260.755C177.445 260.989 177.069 261.301 176.698 261.692C176.336 262.083 175.999 262.522 175.687 263.01C175.374 263.499 175.14 263.992 174.984 264.49V272.986H172.274ZM183.48 258.411H186.409V253.65H189.119V258.411H193.88V260.535H189.119V267.273C189.119 268.025 189.154 268.64 189.222 269.119C189.3 269.597 189.412 269.973 189.559 270.247C189.715 270.51 189.91 270.691 190.145 270.789C190.379 270.886 190.662 270.935 190.994 270.935C191.414 270.935 191.888 270.842 192.415 270.657C192.943 270.471 193.529 270.198 194.173 269.837V272.18C193.499 272.62 192.855 272.923 192.24 273.089C191.624 273.264 191.058 273.352 190.54 273.352C189.964 273.352 189.427 273.284 188.929 273.147C188.431 273.02 187.991 272.791 187.611 272.459C187.24 272.127 186.947 271.687 186.732 271.14C186.517 270.584 186.409 269.881 186.409 269.031V260.535H183.48V258.411ZM207.005 261.487C206.761 261.341 206.483 261.189 206.17 261.033C205.858 260.867 205.516 260.716 205.145 260.579C204.783 260.442 204.393 260.33 203.973 260.242C203.563 260.144 203.133 260.095 202.684 260.095C202.147 260.095 201.693 260.154 201.322 260.271C200.96 260.388 200.667 260.54 200.443 260.725C200.228 260.901 200.072 261.106 199.974 261.341C199.876 261.565 199.827 261.785 199.827 262C199.827 262.254 199.866 262.478 199.945 262.674C200.023 262.869 200.184 263.05 200.428 263.216C200.682 263.382 201.038 263.543 201.497 263.699C201.956 263.855 202.572 264.021 203.343 264.197C204.007 264.343 204.632 264.534 205.218 264.768C205.804 264.993 206.317 265.281 206.756 265.633C207.196 265.984 207.542 266.409 207.796 266.907C208.05 267.395 208.177 267.981 208.177 268.665C208.177 269.329 208.031 269.944 207.738 270.51C207.445 271.077 207.044 271.575 206.536 272.005C206.029 272.425 205.433 272.752 204.749 272.986C204.066 273.23 203.328 273.352 202.537 273.352C201.942 273.352 201.365 273.308 200.809 273.22C200.262 273.133 199.744 273.01 199.256 272.854C198.778 272.698 198.338 272.517 197.938 272.312C197.537 272.107 197.191 271.892 196.898 271.668L197.63 269.031C197.962 269.324 198.333 269.592 198.743 269.837C199.163 270.081 199.593 270.291 200.032 270.467C200.472 270.642 200.911 270.779 201.351 270.877C201.8 270.965 202.22 271.009 202.611 271.009C203.04 271.009 203.431 270.955 203.782 270.847C204.144 270.73 204.451 270.584 204.705 270.408C204.969 270.222 205.174 270.012 205.321 269.778C205.467 269.534 205.54 269.285 205.54 269.031C205.54 268.758 205.482 268.504 205.365 268.269C205.257 268.025 205.052 267.796 204.749 267.581C204.456 267.356 204.046 267.141 203.519 266.936C203.001 266.731 202.332 266.526 201.512 266.321C200.623 266.106 199.896 265.852 199.329 265.559C198.773 265.266 198.333 264.944 198.011 264.592C197.698 264.241 197.484 263.86 197.366 263.45C197.249 263.04 197.191 262.605 197.191 262.146C197.191 261.922 197.225 261.658 197.293 261.355C197.371 261.052 197.493 260.74 197.659 260.418C197.835 260.086 198.06 259.763 198.333 259.451C198.616 259.129 198.968 258.845 199.388 258.601C199.808 258.347 200.301 258.142 200.867 257.986C201.434 257.83 202.088 257.752 202.83 257.752C203.358 257.752 203.851 257.786 204.31 257.854C204.779 257.923 205.203 258.015 205.584 258.133C205.975 258.24 206.331 258.367 206.654 258.513C206.976 258.65 207.264 258.787 207.518 258.924L207.005 261.487Z" fill="#13293E"/>
<path d="M137.615 344.044C136.864 344.572 136.156 345.006 135.491 345.348C134.827 345.69 134.183 345.958 133.558 346.154C132.933 346.349 132.318 346.486 131.712 346.564C131.107 346.642 130.487 346.681 129.852 346.681C128.465 346.681 127.191 346.442 126.029 345.963C124.866 345.485 123.861 344.782 123.011 343.854C122.171 342.926 121.512 341.788 121.033 340.441C120.565 339.083 120.33 337.526 120.33 335.768C120.33 334.01 120.594 332.438 121.121 331.051C121.649 329.664 122.366 328.492 123.275 327.535C124.193 326.569 125.262 325.831 126.483 325.324C127.713 324.816 129.031 324.562 130.438 324.562C131.033 324.562 131.61 324.591 132.166 324.65C132.723 324.699 133.28 324.796 133.836 324.943C134.403 325.089 134.974 325.299 135.55 325.573C136.136 325.836 136.751 326.183 137.396 326.613L136.444 329.249C135.897 328.81 135.365 328.449 134.847 328.165C134.339 327.872 133.841 327.648 133.353 327.492C132.865 327.326 132.376 327.213 131.888 327.155C131.409 327.086 130.926 327.052 130.438 327.052C129.324 327.052 128.319 327.247 127.42 327.638C126.522 328.029 125.76 328.585 125.135 329.308C124.51 330.031 124.027 330.909 123.685 331.945C123.353 332.97 123.187 334.122 123.187 335.402C123.187 336.749 123.343 337.96 123.656 339.034C123.978 340.109 124.437 341.027 125.032 341.788C125.628 342.54 126.346 343.117 127.186 343.517C128.035 343.917 128.983 344.117 130.028 344.117C130.467 344.117 130.877 344.098 131.258 344.059C131.649 344.01 132.034 343.932 132.415 343.825C132.796 343.717 133.182 343.576 133.573 343.4C133.963 343.224 134.383 342.999 134.832 342.726V337.819H129.705V335.402H137.615V344.044ZM143.841 339.21C143.87 340.07 144.002 340.817 144.237 341.451C144.481 342.086 144.808 342.614 145.218 343.034C145.638 343.444 146.126 343.751 146.683 343.956C147.249 344.161 147.865 344.264 148.529 344.264C149.476 344.264 150.404 344.157 151.312 343.942C152.22 343.727 153.123 343.346 154.022 342.799L154.315 345.216C153.797 345.48 153.289 345.704 152.791 345.89C152.293 346.076 151.795 346.227 151.297 346.344C150.799 346.461 150.291 346.544 149.774 346.593C149.266 346.652 148.729 346.681 148.162 346.681C147.225 346.681 146.331 346.52 145.482 346.198C144.632 345.866 143.885 345.382 143.24 344.747C142.596 344.103 142.083 343.307 141.702 342.36C141.322 341.412 141.131 340.314 141.131 339.064C141.131 337.853 141.292 336.759 141.615 335.783C141.947 334.796 142.415 333.956 143.021 333.263C143.626 332.56 144.364 332.023 145.233 331.652C146.102 331.271 147.078 331.08 148.162 331.08C148.963 331.08 149.671 331.178 150.286 331.373C150.902 331.559 151.434 331.823 151.883 332.164C152.332 332.496 152.708 332.887 153.011 333.336C153.314 333.785 153.553 334.269 153.729 334.786C153.914 335.304 154.046 335.846 154.124 336.412C154.202 336.969 154.241 337.521 154.241 338.068V338.639C154.241 338.883 154.237 339.074 154.227 339.21H143.841ZM147.943 333.278C146.868 333.278 145.99 333.595 145.306 334.23C144.622 334.855 144.173 335.831 143.958 337.159H151.605C151.605 336.534 151.512 335.983 151.326 335.504C151.151 335.016 150.897 334.606 150.565 334.274C150.242 333.942 149.857 333.693 149.407 333.527C148.958 333.361 148.47 333.278 147.943 333.278ZM159.896 338.917C159.896 339.767 159.998 340.529 160.203 341.202C160.408 341.876 160.697 342.448 161.068 342.916C161.448 343.375 161.898 343.727 162.415 343.971C162.933 344.215 163.509 344.337 164.144 344.337C164.73 344.337 165.281 344.215 165.799 343.971C166.317 343.727 166.766 343.375 167.147 342.916C167.537 342.448 167.84 341.876 168.055 341.202C168.28 340.529 168.392 339.767 168.392 338.917C168.392 338.058 168.289 337.291 168.084 336.617C167.879 335.934 167.586 335.358 167.205 334.889C166.834 334.41 166.385 334.049 165.858 333.805C165.34 333.551 164.769 333.424 164.144 333.424C163.548 333.424 162.991 333.551 162.474 333.805C161.956 334.049 161.507 334.41 161.126 334.889C160.745 335.358 160.443 335.934 160.218 336.617C160.003 337.291 159.896 338.058 159.896 338.917ZM157.186 338.917C157.186 337.658 157.376 336.544 157.757 335.577C158.138 334.601 158.651 333.781 159.295 333.117C159.94 332.443 160.692 331.935 161.551 331.593C162.41 331.251 163.323 331.08 164.29 331.08C165.296 331.08 166.214 331.251 167.044 331.593C167.884 331.935 168.602 332.443 169.198 333.117C169.803 333.781 170.272 334.601 170.604 335.577C170.936 336.544 171.102 337.658 171.102 338.917C171.102 340.177 170.911 341.29 170.531 342.257C170.15 343.224 169.637 344.034 168.992 344.689C168.348 345.343 167.596 345.841 166.737 346.183C165.877 346.515 164.964 346.681 163.997 346.681C162.991 346.681 162.069 346.515 161.229 346.183C160.399 345.841 159.681 345.343 159.075 344.689C158.48 344.034 158.016 343.224 157.684 342.257C157.352 341.29 157.186 340.177 157.186 338.917ZM184.285 334.157C184.051 334.069 183.802 333.991 183.538 333.922C183.275 333.844 183.006 333.781 182.733 333.732C182.459 333.683 182.191 333.644 181.927 333.615C181.673 333.585 181.434 333.571 181.209 333.571C180.408 333.571 179.725 333.737 179.158 334.069C178.592 334.391 178.128 334.821 177.767 335.358C177.415 335.885 177.156 336.486 176.99 337.159C176.824 337.833 176.741 338.517 176.741 339.21C176.741 340.118 176.81 340.875 176.947 341.481C177.093 342.076 177.288 342.555 177.532 342.916C177.786 343.268 178.079 343.522 178.411 343.678C178.753 343.825 179.124 343.898 179.525 343.898C179.896 343.898 180.291 343.825 180.711 343.678C181.131 343.522 181.551 343.302 181.971 343.019C182.401 342.736 182.811 342.384 183.201 341.964C183.602 341.544 183.963 341.066 184.285 340.529V334.157ZM186.995 345.949C186.995 347.238 186.805 348.341 186.424 349.259C186.053 350.177 185.56 350.924 184.945 351.5C184.339 352.086 183.646 352.516 182.865 352.789C182.083 353.063 181.287 353.2 180.477 353.2C179.539 353.2 178.607 353.038 177.679 352.716C176.761 352.394 175.911 351.969 175.13 351.442L176.082 349.171C176.776 349.669 177.474 350.075 178.177 350.387C178.88 350.7 179.598 350.856 180.33 350.856C180.711 350.856 181.131 350.787 181.59 350.651C182.049 350.514 182.479 350.275 182.879 349.933C183.28 349.601 183.612 349.152 183.875 348.585C184.149 348.019 184.285 347.311 184.285 346.461V343.458C183.905 343.937 183.499 344.362 183.07 344.733C182.65 345.094 182.22 345.397 181.781 345.641C181.351 345.885 180.916 346.071 180.477 346.198C180.047 346.325 179.632 346.388 179.232 346.388C178.558 346.388 177.908 346.271 177.283 346.036C176.658 345.802 176.102 345.431 175.614 344.923C175.135 344.406 174.749 343.737 174.456 342.916C174.173 342.096 174.031 341.105 174.031 339.943C174.031 338.82 174.178 337.726 174.471 336.661C174.764 335.597 175.218 334.655 175.833 333.834C176.448 333.004 177.235 332.34 178.192 331.842C179.158 331.334 180.311 331.08 181.649 331.08C182.088 331.08 182.537 331.115 182.996 331.183C183.465 331.242 183.929 331.325 184.388 331.432C184.847 331.539 185.296 331.661 185.736 331.798C186.175 331.925 186.595 332.052 186.995 332.179V345.949ZM191.258 346.315V337.306C191.258 335.861 191.175 334.64 191.009 333.644C190.853 332.638 190.692 331.881 190.526 331.373H193.162C193.221 331.53 193.28 331.735 193.338 331.989C193.397 332.233 193.45 332.492 193.499 332.765C193.548 333.038 193.592 333.307 193.631 333.571L193.748 334.23C194.1 333.722 194.481 333.273 194.891 332.882C195.311 332.492 195.731 332.164 196.151 331.901C196.58 331.627 196.995 331.422 197.396 331.285C197.806 331.149 198.177 331.08 198.509 331.08C199.124 331.08 199.642 331.217 200.062 331.491C200.491 331.754 200.838 332.116 201.102 332.575C201.375 333.024 201.571 333.546 201.688 334.142C201.815 334.728 201.878 335.343 201.878 335.988L199.534 336.5C199.534 336.139 199.5 335.792 199.432 335.46C199.364 335.118 199.261 334.821 199.124 334.567C198.988 334.303 198.812 334.098 198.597 333.951C198.392 333.795 198.143 333.717 197.85 333.717C197.537 333.717 197.191 333.839 196.81 334.083C196.429 334.318 196.053 334.63 195.682 335.021C195.321 335.411 194.984 335.851 194.671 336.339C194.359 336.827 194.124 337.321 193.968 337.819V346.315H191.258ZM213.817 333.688C213.699 333.659 213.568 333.629 213.421 333.6C213.275 333.571 213.099 333.541 212.894 333.512C212.698 333.483 212.464 333.463 212.191 333.453C211.927 333.434 211.615 333.424 211.253 333.424C210.296 333.424 209.495 333.619 208.851 334.01C208.216 334.391 207.708 334.904 207.327 335.548C206.947 336.183 206.673 336.915 206.507 337.745C206.351 338.576 206.273 339.43 206.273 340.309C206.273 340.875 206.326 341.398 206.434 341.876C206.551 342.345 206.707 342.755 206.903 343.107C207.098 343.449 207.323 343.717 207.576 343.912C207.83 344.098 208.104 344.191 208.397 344.191C208.826 344.191 209.256 344.025 209.686 343.693C210.125 343.361 210.545 342.936 210.946 342.418C211.346 341.891 211.722 341.305 212.073 340.66C212.425 340.006 212.728 339.362 212.982 338.727C213.245 338.082 213.45 337.477 213.597 336.91C213.743 336.344 213.817 335.89 213.817 335.548V333.688ZM214.915 346.315C214.808 346.08 214.71 345.758 214.622 345.348C214.544 344.938 214.476 344.503 214.417 344.044C214.368 343.576 214.329 343.112 214.3 342.653C214.271 342.194 214.256 341.803 214.256 341.481V340.309C213.963 341.071 213.612 341.832 213.201 342.594C212.801 343.346 212.337 344.025 211.81 344.63C211.292 345.236 210.711 345.729 210.067 346.11C209.422 346.491 208.719 346.681 207.957 346.681C207.342 346.681 206.766 346.544 206.229 346.271C205.692 345.997 205.223 345.592 204.823 345.055C204.432 344.518 204.124 343.854 203.9 343.063C203.675 342.262 203.563 341.344 203.563 340.309C203.563 339.147 203.719 338.014 204.031 336.91C204.344 335.797 204.823 334.811 205.467 333.951C206.112 333.082 206.932 332.389 207.928 331.871C208.924 331.344 210.106 331.08 211.473 331.08C212.42 331.08 213.314 331.144 214.154 331.271C214.993 331.388 215.784 331.544 216.527 331.74V338.551C216.527 340.397 216.615 341.95 216.79 343.209C216.966 344.459 217.196 345.494 217.479 346.315H214.915ZM223.851 342.506C224.349 342.858 224.779 343.151 225.14 343.385C225.511 343.61 225.848 343.79 226.151 343.927C226.453 344.054 226.741 344.142 227.015 344.191C227.298 344.24 227.611 344.264 227.952 344.264C228.47 344.264 228.963 344.142 229.432 343.898C229.91 343.654 230.33 343.302 230.692 342.843C231.063 342.374 231.356 341.813 231.571 341.159C231.795 340.494 231.907 339.747 231.907 338.917C231.907 338.107 231.829 337.374 231.673 336.72C231.527 336.056 231.307 335.494 231.014 335.035C230.721 334.567 230.365 334.205 229.945 333.951C229.534 333.698 229.066 333.571 228.538 333.571C228.118 333.571 227.689 333.663 227.249 333.849C226.81 334.034 226.38 334.308 225.96 334.669C225.55 335.031 225.164 335.485 224.803 336.032C224.442 336.569 224.124 337.189 223.851 337.892V342.506ZM223.045 331.373C223.153 331.627 223.26 331.989 223.367 332.457C223.475 332.916 223.563 333.483 223.631 334.157C223.973 333.707 224.344 333.292 224.744 332.911C225.155 332.531 225.584 332.208 226.033 331.945C226.492 331.671 226.971 331.461 227.469 331.315C227.977 331.159 228.504 331.08 229.051 331.08C229.881 331.08 230.638 331.266 231.322 331.637C232.015 331.998 232.601 332.511 233.079 333.175C233.568 333.829 233.944 334.611 234.207 335.519C234.481 336.417 234.617 337.404 234.617 338.478C234.617 339.728 234.442 340.861 234.09 341.876C233.739 342.882 233.26 343.742 232.655 344.454C232.059 345.167 231.356 345.719 230.545 346.11C229.735 346.491 228.87 346.681 227.952 346.681C227.562 346.681 227.191 346.642 226.839 346.564C226.497 346.486 226.16 346.378 225.828 346.242C225.506 346.105 225.184 345.939 224.862 345.743C224.539 345.538 224.202 345.314 223.851 345.07V348.512C223.851 349.098 223.856 349.625 223.865 350.094C223.885 350.573 223.909 351.012 223.939 351.412C223.968 351.813 224.007 352.179 224.056 352.511C224.105 352.853 224.158 353.18 224.217 353.492H221.141V339.21C221.141 338.302 221.131 337.462 221.112 336.691C221.102 335.909 221.073 335.197 221.024 334.552C220.975 333.898 220.902 333.307 220.804 332.78C220.706 332.252 220.574 331.784 220.408 331.373H223.045ZM248.533 346.315V338.258C248.533 337.34 248.47 336.583 248.343 335.988C248.226 335.392 248.045 334.923 247.801 334.581C247.557 334.23 247.249 333.986 246.878 333.849C246.517 333.712 246.092 333.644 245.604 333.644C245.076 333.644 244.559 333.771 244.051 334.025C243.553 334.269 243.094 334.591 242.674 334.992C242.254 335.382 241.883 335.826 241.561 336.325C241.239 336.823 240.999 337.321 240.843 337.819V346.315H238.133V329.762C238.133 328.18 238.123 326.798 238.104 325.617C238.084 324.425 238.021 323.512 237.913 322.877H240.843V334.157C241.566 333.131 242.415 332.365 243.392 331.857C244.368 331.339 245.374 331.08 246.409 331.08C247.972 331.08 249.168 331.593 249.998 332.618C250.828 333.634 251.243 335.148 251.243 337.159V346.315H248.533ZM262.83 346.315C262.323 347.721 261.824 348.868 261.336 349.757C260.848 350.646 260.35 351.344 259.842 351.852C259.344 352.369 258.822 352.721 258.275 352.907C257.738 353.102 257.156 353.2 256.531 353.2C255.858 353.2 255.223 353.092 254.627 352.877C254.041 352.662 253.48 352.355 252.943 351.954L253.822 349.611C253.978 349.738 254.158 349.865 254.364 349.992C254.578 350.128 254.803 350.245 255.037 350.343C255.281 350.451 255.531 350.538 255.784 350.607C256.038 350.675 256.287 350.709 256.531 350.709C256.824 350.709 257.113 350.656 257.396 350.548C257.679 350.451 257.962 350.255 258.245 349.962C258.538 349.679 258.836 349.274 259.139 348.746C259.442 348.229 259.764 347.545 260.106 346.696L256.019 336.574C255.745 335.909 255.428 335.162 255.067 334.332C254.705 333.502 254.241 332.516 253.675 331.373H256.605L261.336 343.341C261.522 342.814 261.722 342.242 261.937 341.627C262.161 341.002 262.391 340.363 262.625 339.708C262.86 339.044 263.094 338.38 263.328 337.716C263.563 337.042 263.787 336.398 264.002 335.783C264.51 334.337 265.023 332.867 265.54 331.373H268.47C268.216 331.94 267.987 332.467 267.781 332.955C267.576 333.434 267.386 333.888 267.21 334.318C267.034 334.738 266.873 335.133 266.727 335.504C266.59 335.875 266.463 336.232 266.346 336.574L262.83 346.315Z" fill="#13293E"/>
<path d="M136.517 398.257V400.967C135.931 400.84 135.35 400.762 134.774 400.732C134.207 400.693 133.592 400.674 132.928 400.674H129.412V413.271C129.412 414.717 129.427 415.996 129.456 417.109C129.495 418.213 129.578 419.057 129.705 419.643H126.336C126.463 419.057 126.541 418.213 126.571 417.109C126.61 415.996 126.629 414.717 126.629 413.271V400.674H123.187C122.532 400.674 121.917 400.693 121.341 400.732C120.765 400.762 120.184 400.84 119.598 400.967V398.257H136.517ZM141.585 412.539C141.615 413.398 141.746 414.145 141.981 414.78C142.225 415.415 142.552 415.942 142.962 416.362C143.382 416.772 143.87 417.08 144.427 417.285C144.993 417.49 145.609 417.593 146.273 417.593C147.22 417.593 148.148 417.485 149.056 417.27C149.964 417.056 150.867 416.675 151.766 416.128L152.059 418.545C151.541 418.808 151.033 419.033 150.535 419.219C150.037 419.404 149.539 419.556 149.041 419.673C148.543 419.79 148.035 419.873 147.518 419.922C147.01 419.98 146.473 420.01 145.906 420.01C144.969 420.01 144.075 419.849 143.226 419.526C142.376 419.194 141.629 418.711 140.985 418.076C140.34 417.432 139.827 416.636 139.447 415.688C139.066 414.741 138.875 413.642 138.875 412.392C138.875 411.182 139.036 410.088 139.359 409.111C139.691 408.125 140.159 407.285 140.765 406.592C141.37 405.889 142.108 405.351 142.977 404.98C143.846 404.599 144.823 404.409 145.906 404.409C146.707 404.409 147.415 404.507 148.031 404.702C148.646 404.888 149.178 405.151 149.627 405.493C150.076 405.825 150.452 406.216 150.755 406.665C151.058 407.114 151.297 407.598 151.473 408.115C151.658 408.633 151.79 409.175 151.868 409.741C151.947 410.298 151.986 410.849 151.986 411.396V411.968C151.986 412.212 151.981 412.402 151.971 412.539H141.585ZM145.687 406.606C144.613 406.606 143.734 406.924 143.05 407.558C142.366 408.183 141.917 409.16 141.702 410.488H149.349C149.349 409.863 149.256 409.311 149.071 408.833C148.895 408.345 148.641 407.934 148.309 407.602C147.987 407.27 147.601 407.021 147.152 406.855C146.702 406.689 146.214 406.606 145.687 406.606ZM159.031 412.685C159.031 413.154 159.036 413.706 159.046 414.341C159.066 414.975 159.085 415.62 159.105 416.274C159.134 416.929 159.163 417.554 159.193 418.149C159.232 418.745 159.276 419.243 159.324 419.643H156.322V403.091C156.322 401.665 156.297 400.376 156.248 399.224C156.199 398.061 156.126 397.056 156.029 396.206H159.031V412.685ZM165.931 412.539C165.96 413.398 166.092 414.145 166.326 414.78C166.571 415.415 166.898 415.942 167.308 416.362C167.728 416.772 168.216 417.08 168.773 417.285C169.339 417.49 169.954 417.593 170.618 417.593C171.566 417.593 172.493 417.485 173.402 417.27C174.31 417.056 175.213 416.675 176.112 416.128L176.405 418.545C175.887 418.808 175.379 419.033 174.881 419.219C174.383 419.404 173.885 419.556 173.387 419.673C172.889 419.79 172.381 419.873 171.864 419.922C171.356 419.98 170.819 420.01 170.252 420.01C169.315 420.01 168.421 419.849 167.572 419.526C166.722 419.194 165.975 418.711 165.33 418.076C164.686 417.432 164.173 416.636 163.792 415.688C163.411 414.741 163.221 413.642 163.221 412.392C163.221 411.182 163.382 410.088 163.704 409.111C164.036 408.125 164.505 407.285 165.111 406.592C165.716 405.889 166.453 405.351 167.323 404.98C168.192 404.599 169.168 404.409 170.252 404.409C171.053 404.409 171.761 404.507 172.376 404.702C172.991 404.888 173.524 405.151 173.973 405.493C174.422 405.825 174.798 406.216 175.101 406.665C175.404 407.114 175.643 407.598 175.819 408.115C176.004 408.633 176.136 409.175 176.214 409.741C176.292 410.298 176.331 410.849 176.331 411.396V411.968C176.331 412.212 176.326 412.402 176.317 412.539H165.931ZM170.032 406.606C168.958 406.606 168.079 406.924 167.396 407.558C166.712 408.183 166.263 409.16 166.048 410.488H173.695C173.695 409.863 173.602 409.311 173.416 408.833C173.24 408.345 172.987 407.934 172.655 407.602C172.332 407.27 171.947 407.021 171.497 406.855C171.048 406.689 170.56 406.606 170.032 406.606ZM193.265 404.702C193.06 405.122 192.845 405.576 192.62 406.064C192.406 406.553 192.196 407.031 191.99 407.5C191.795 407.969 191.61 408.413 191.434 408.833C191.258 409.253 191.112 409.609 190.994 409.902C190.897 410.137 190.765 410.459 190.599 410.869C190.443 411.269 190.262 411.724 190.057 412.231C189.862 412.729 189.652 413.262 189.427 413.828C189.202 414.385 188.983 414.936 188.768 415.483C188.25 416.772 187.698 418.159 187.113 419.643H184.329C183.763 418.227 183.231 416.89 182.733 415.63C182.518 415.093 182.298 414.546 182.073 413.989C181.849 413.432 181.634 412.9 181.429 412.392C181.234 411.875 181.048 411.401 180.872 410.972C180.706 410.542 180.565 410.185 180.448 409.902C180.33 409.609 180.184 409.253 180.008 408.833C179.832 408.403 179.642 407.954 179.437 407.485C179.232 407.016 179.022 406.543 178.807 406.064C178.592 405.576 178.382 405.122 178.177 404.702H181.253L185.721 416.714L190.189 404.702H193.265ZM195.828 399.941C195.828 399.668 195.872 399.414 195.96 399.18C196.048 398.935 196.17 398.725 196.326 398.55C196.492 398.364 196.688 398.223 196.912 398.125C197.137 398.017 197.386 397.964 197.659 397.964C197.933 397.964 198.187 398.017 198.421 398.125C198.656 398.223 198.856 398.364 199.022 398.55C199.188 398.725 199.32 398.935 199.417 399.18C199.515 399.414 199.564 399.668 199.564 399.941C199.564 400.215 199.515 400.474 199.417 400.718C199.32 400.952 199.188 401.162 199.022 401.348C198.856 401.523 198.656 401.665 198.421 401.772C198.187 401.87 197.933 401.919 197.659 401.919C197.386 401.919 197.137 401.87 196.912 401.772C196.688 401.665 196.492 401.523 196.326 401.348C196.17 401.162 196.048 400.952 195.96 400.718C195.872 400.474 195.828 400.215 195.828 399.941ZM199.051 412.685C199.051 413.154 199.056 413.711 199.066 414.355C199.085 414.99 199.105 415.635 199.124 416.289C199.154 416.943 199.183 417.568 199.212 418.164C199.251 418.76 199.295 419.253 199.344 419.643H196.341V411.88C196.341 411.167 196.336 410.464 196.326 409.77C196.326 409.077 196.317 408.423 196.297 407.807C196.287 407.182 196.268 406.606 196.239 406.079C196.209 405.542 196.17 405.083 196.121 404.702H199.051V412.685ZM213.568 408.144C213.323 407.998 213.045 407.847 212.733 407.69C212.42 407.524 212.078 407.373 211.707 407.236C211.346 407.099 210.955 406.987 210.535 406.899C210.125 406.802 209.696 406.753 209.246 406.753C208.709 406.753 208.255 406.811 207.884 406.929C207.523 407.046 207.23 407.197 207.005 407.383C206.79 407.558 206.634 407.764 206.536 407.998C206.439 408.223 206.39 408.442 206.39 408.657C206.39 408.911 206.429 409.136 206.507 409.331C206.585 409.526 206.746 409.707 206.99 409.873C207.244 410.039 207.601 410.2 208.06 410.356C208.519 410.513 209.134 410.679 209.906 410.854C210.57 411.001 211.195 411.191 211.781 411.426C212.366 411.65 212.879 411.938 213.319 412.29C213.758 412.641 214.105 413.066 214.359 413.564C214.613 414.053 214.74 414.639 214.74 415.322C214.74 415.986 214.593 416.601 214.3 417.168C214.007 417.734 213.607 418.232 213.099 418.662C212.591 419.082 211.995 419.409 211.312 419.643C210.628 419.888 209.891 420.01 209.1 420.01C208.504 420.01 207.928 419.966 207.371 419.878C206.824 419.79 206.307 419.668 205.819 419.512C205.34 419.355 204.901 419.175 204.5 418.97C204.1 418.765 203.753 418.55 203.46 418.325L204.193 415.688C204.525 415.981 204.896 416.25 205.306 416.494C205.726 416.738 206.156 416.948 206.595 417.124C207.034 417.3 207.474 417.436 207.913 417.534C208.363 417.622 208.782 417.666 209.173 417.666C209.603 417.666 209.993 417.612 210.345 417.505C210.706 417.388 211.014 417.241 211.268 417.065C211.531 416.88 211.737 416.67 211.883 416.435C212.03 416.191 212.103 415.942 212.103 415.688C212.103 415.415 212.044 415.161 211.927 414.927C211.82 414.682 211.615 414.453 211.312 414.238C211.019 414.014 210.609 413.799 210.081 413.594C209.564 413.389 208.895 413.183 208.074 412.978C207.186 412.764 206.458 412.51 205.892 412.217C205.335 411.924 204.896 411.601 204.573 411.25C204.261 410.898 204.046 410.517 203.929 410.107C203.812 409.697 203.753 409.263 203.753 408.804C203.753 408.579 203.787 408.315 203.856 408.013C203.934 407.71 204.056 407.397 204.222 407.075C204.398 406.743 204.622 406.421 204.896 406.108C205.179 405.786 205.531 405.503 205.95 405.259C206.37 405.005 206.864 404.8 207.43 404.643C207.996 404.487 208.651 404.409 209.393 404.409C209.92 404.409 210.413 404.443 210.872 404.512C211.341 404.58 211.766 404.673 212.147 404.79C212.537 404.897 212.894 405.024 213.216 405.171C213.538 405.307 213.826 405.444 214.08 405.581L213.568 408.144ZM218.27 399.941C218.27 399.668 218.314 399.414 218.402 399.18C218.49 398.935 218.612 398.725 218.768 398.55C218.934 398.364 219.129 398.223 219.354 398.125C219.578 398.017 219.827 397.964 220.101 397.964C220.374 397.964 220.628 398.017 220.863 398.125C221.097 398.223 221.297 398.364 221.463 398.55C221.629 398.725 221.761 398.935 221.859 399.18C221.956 399.414 222.005 399.668 222.005 399.941C222.005 400.215 221.956 400.474 221.859 400.718C221.761 400.952 221.629 401.162 221.463 401.348C221.297 401.523 221.097 401.665 220.863 401.772C220.628 401.87 220.374 401.919 220.101 401.919C219.827 401.919 219.578 401.87 219.354 401.772C219.129 401.665 218.934 401.523 218.768 401.348C218.612 401.162 218.49 400.952 218.402 400.718C218.314 400.474 218.27 400.215 218.27 399.941ZM221.492 412.685C221.492 413.154 221.497 413.711 221.507 414.355C221.527 414.99 221.546 415.635 221.566 416.289C221.595 416.943 221.624 417.568 221.654 418.164C221.693 418.76 221.737 419.253 221.785 419.643H218.782V411.88C218.782 411.167 218.778 410.464 218.768 409.77C218.768 409.077 218.758 408.423 218.739 407.807C218.729 407.182 218.709 406.606 218.68 406.079C218.651 405.542 218.612 405.083 218.563 404.702H221.492V412.685ZM228.392 412.246C228.392 413.096 228.494 413.857 228.699 414.531C228.905 415.205 229.193 415.776 229.564 416.245C229.945 416.704 230.394 417.056 230.911 417.3C231.429 417.544 232.005 417.666 232.64 417.666C233.226 417.666 233.778 417.544 234.295 417.3C234.813 417.056 235.262 416.704 235.643 416.245C236.033 415.776 236.336 415.205 236.551 414.531C236.776 413.857 236.888 413.096 236.888 412.246C236.888 411.387 236.785 410.62 236.58 409.946C236.375 409.263 236.082 408.686 235.701 408.218C235.33 407.739 234.881 407.378 234.354 407.134C233.836 406.88 233.265 406.753 232.64 406.753C232.044 406.753 231.488 406.88 230.97 407.134C230.452 407.378 230.003 407.739 229.622 408.218C229.241 408.686 228.939 409.263 228.714 409.946C228.499 410.62 228.392 411.387 228.392 412.246ZM225.682 412.246C225.682 410.986 225.872 409.873 226.253 408.906C226.634 407.93 227.147 407.109 227.791 406.445C228.436 405.771 229.188 405.264 230.047 404.922C230.906 404.58 231.82 404.409 232.786 404.409C233.792 404.409 234.71 404.58 235.54 404.922C236.38 405.264 237.098 405.771 237.694 406.445C238.299 407.109 238.768 407.93 239.1 408.906C239.432 409.873 239.598 410.986 239.598 412.246C239.598 413.506 239.407 414.619 239.027 415.586C238.646 416.553 238.133 417.363 237.489 418.017C236.844 418.672 236.092 419.17 235.233 419.512C234.373 419.844 233.46 420.01 232.493 420.01C231.488 420.01 230.565 419.844 229.725 419.512C228.895 419.17 228.177 418.672 227.572 418.017C226.976 417.363 226.512 416.553 226.18 415.586C225.848 414.619 225.682 413.506 225.682 412.246ZM253.66 419.643V411.587C253.66 410.669 253.597 409.912 253.47 409.316C253.353 408.721 253.172 408.252 252.928 407.91C252.694 407.558 252.391 407.314 252.02 407.178C251.658 407.041 251.229 406.973 250.731 406.973C250.203 406.973 249.686 407.099 249.178 407.353C248.68 407.598 248.221 407.92 247.801 408.32C247.381 408.711 247.01 409.155 246.688 409.653C246.365 410.151 246.126 410.649 245.97 411.147V419.643H243.26V410.635C243.26 409.189 243.177 407.969 243.011 406.973C242.855 405.967 242.694 405.21 242.528 404.702H245.164C245.223 404.858 245.281 405.063 245.34 405.317C245.399 405.561 245.452 405.82 245.501 406.094C245.55 406.367 245.594 406.636 245.633 406.899L245.75 407.558C246.678 406.445 247.615 405.644 248.563 405.156C249.51 404.658 250.501 404.409 251.536 404.409C253.099 404.409 254.295 404.922 255.125 405.947C255.955 406.963 256.37 408.476 256.37 410.488V419.643H253.66Z" fill="#13293E"/>
<rect width="389.031" height="457.677" stroke="white"/>
<defs>
<filter id="filter0_d_292_341" x="28" y="17" width="65.9387" height="431.677" filterUnits="userSpaceOnUse" color-interpolation-filters="sRGB">
<feFlood flood-opacity="0" result="BackgroundImageFix"/>
<feColorMatrix in="SourceAlpha" type="matrix" values="0 0 0 0 0 0 0 0 0 0 0 0 0 0 0 0 0 0 127 0" result="hardAlpha"/>
<feOffset dy="4"/>
<feGaussianBlur stdDeviation="2"/>
<feComposite in2="hardAlpha" operator="out"/>
<feColorMatrix type="matrix" values="0 0 0 0 0 0 0 0 0 0 0 0 0 0 0 0 0 0 0.25 0"/>
<feBlend mode="normal" in2="BackgroundImageFix" result="effect1_dropShadow_292_341"/>
<feBlend mode="normal" in="SourceGraphic" in2="effect1_dropShadow_292_341" result="shape"/>
</filter>
</defs>
</svg>
