<svg width="110" height="80" viewBox="0 0 110 80" fill="none" xmlns="http://www.w3.org/2000/svg">
<path d="M51.7077 18.4427L49.2378 24.4448C46.8996 22.8737 44.1858 21.6901 41.2576 20.9644C37.9902 20.1238 35.1049 19.651 32.4966 19.3796L34.8779 13.5876C37.8475 13.9257 40.7749 14.4647 43.6278 15.1987C46.519 15.9395 49.2454 17.0342 51.7077 18.4427V18.4427ZM46.574 30.9417L44.1041 36.9438C41.7659 35.3727 39.0521 34.1891 36.1239 33.4633C32.8565 32.6228 29.9713 32.15 27.3629 31.8785L29.7442 26.0866C32.7138 26.4246 35.6412 26.9636 38.4942 27.6976C41.3868 28.4358 44.1137 29.5306 46.574 30.9417V30.9417ZM41.4348 43.4362L38.9649 49.4384C36.6267 47.8672 33.9129 46.6836 30.9847 45.9579C27.7173 45.1173 24.8321 44.6445 22.2237 44.3731L24.605 38.5811C27.5746 38.9192 30.502 39.4582 33.355 40.1922C36.2476 40.9303 38.9745 42.0252 41.4348 43.4362ZM80.5437 52.9451L78.1624 58.737C75.5233 57.6086 72.7572 56.6765 69.8998 55.9527C66.9909 55.1812 63.9157 54.879 60.8564 55.064L63.3263 49.0618C66.3636 49.0653 69.3814 49.4449 72.27 50.187C75.1232 50.9164 77.8914 51.8391 80.5437 52.9451V52.9451ZM90.8166 27.9516L88.4353 33.7435C85.795 32.6169 83.0291 31.6848 80.1727 30.9592C77.2637 30.1877 74.1886 29.8855 71.1292 30.0705L73.5936 24.064C76.633 24.0693 79.6526 24.4504 82.5429 25.1935C85.3961 25.9229 88.1643 26.8456 90.8166 27.9516V27.9516ZM85.6829 40.4505L83.3016 46.2425C80.6625 45.114 77.8964 44.1819 75.039 43.4581C72.1301 42.6866 69.0549 42.3844 65.9956 42.5694L68.4599 36.5629C71.4972 36.5663 74.5151 36.946 77.4037 37.688C80.2588 38.4188 83.0289 39.3431 85.6829 40.4505V40.4505ZM49.1104 1.86794C56.3862 3.70555 62.4579 7.72876 66.0177 13.071C72.8682 10.4042 80.7699 9.97178 88.0199 11.8671C101.992 15.457 110 23.3679 110 23.3679L87.3221 78.4727C86.6244 80.1669 83.7446 80.5609 82.4598 79.0987C79.6964 75.951 74.3745 71.8401 64.4228 69.2834C54.9086 66.8406 47.9806 69.5198 44.1816 71.8139C42.6753 72.7245 40.5155 72.0765 39.9617 70.6406C38.5662 67.0201 34.9388 61.7096 25.5077 59.2887C15.545 56.7276 8.1795 57.5856 3.59963 58.8509C1.46752 59.4375 -0.553826 57.7914 0.138416 56.0972L22.7775 0.961711C22.7775 0.961711 35.1382 -1.71757 49.1104 1.86794ZM49.7362 62.4845C55.4213 61.1319 61.4959 61.1992 67.1308 62.6772C74.0588 64.4546 78.91 66.8318 82.0777 68.8238L100.048 25.1234C98.0657 23.5561 93.4748 20.5616 85.3063 18.4646C77.6141 16.4902 71.3064 18.18 67.1474 20.1195L49.7362 62.4845ZM11.5576 50.7123C15.6059 50.5722 21.2989 50.905 28.2268 52.6868C33.8846 54.1078 38.8493 56.8752 42.4427 60.6108L59.854 18.2457C57.9379 14.7434 54.0945 10.4443 46.3968 8.46983C38.2339 6.37281 32.2917 6.66176 29.5227 7.00761L11.5576 50.7123V50.7123Z" fill="#13293E"/>
</svg>
