<svg width="85" height="51" viewBox="0 0 85 51" fill="none" xmlns="http://www.w3.org/2000/svg">
<path d="M22.6667 0C13.3167 0 5.66667 7.65 5.66667 17C5.66667 22.6213 8.43483 27.625 12.6622 30.7247C5.19067 34.4307 0 42.1147 0 51H5.66667C5.66667 41.582 13.2487 34 22.6667 34C32.0847 34 39.6667 41.582 39.6667 51H45.3333C45.3333 41.582 52.9153 34 62.3333 34C71.7513 34 79.3333 41.582 79.3333 51H85C85 42.1118 79.8093 34.4307 72.3378 30.7247C74.5011 29.1484 76.262 27.084 77.4775 24.6992C78.693 22.3145 79.3289 19.6766 79.3333 17C79.3333 7.65 71.6833 0 62.3333 0C52.9833 0 45.3333 7.65 45.3333 17C45.3333 22.6213 48.1015 27.625 52.3288 30.7247C48.1891 32.76 44.7626 36.0008 42.5 40.0208C40.2374 36.0008 36.8109 32.76 32.6712 30.7247C34.8344 29.1484 36.5953 27.084 37.8109 24.6992C39.0264 22.3145 39.6622 19.6766 39.6667 17C39.6667 7.65 32.0167 0 22.6667 0ZM22.6667 5.66667C28.9652 5.66667 34 10.7015 34 17C34 23.2985 28.9652 28.3333 22.6667 28.3333C16.3682 28.3333 11.3333 23.2985 11.3333 17C11.3333 10.7015 16.3682 5.66667 22.6667 5.66667ZM62.3333 5.66667C68.6318 5.66667 73.6667 10.7015 73.6667 17C73.6667 23.2985 68.6318 28.3333 62.3333 28.3333C56.0348 28.3333 51 23.2985 51 17C51 10.7015 56.0348 5.66667 62.3333 5.66667Z" fill="white"/>
</svg>
