<svg width="43" height="43" viewBox="0 0 43 43" fill="none" xmlns="http://www.w3.org/2000/svg">
<circle cx="21.9074" cy="21.9074" r="19.9074" fill="white"/>
<path d="M21.5 0C9.64454 0 0 9.64454 0 21.5C0 33.3555 9.64454 43 21.5 43C33.3555 43 43 33.3555 43 21.5C43 9.64454 33.3555 0 21.5 0ZM21.5 3.58333C31.4169 3.58333 39.4167 11.5831 39.4167 21.5C39.4167 31.4169 31.4169 39.4167 21.5 39.4167C11.5831 39.4167 3.58333 31.4169 3.58333 21.5C3.58333 11.5831 11.5831 3.58333 21.5 3.58333ZM11.9809 14.3333C11.1938 15.1203 10.7511 16.1873 10.75 17.3003C10.7509 18.4139 11.1937 19.4815 11.9811 20.2689C12.7685 21.0563 13.8361 21.4991 14.9497 21.5C16.1035 21.5 17.1606 21.0306 17.9167 20.2673L11.9809 14.3333ZM31.0191 14.3333L25.0833 20.2691C25.472 20.6601 25.9344 20.9702 26.4436 21.1815C26.9529 21.3928 27.499 21.501 28.0503 21.5C29.1639 21.4991 30.2315 21.0563 31.0189 20.2689C31.8063 19.4815 32.2491 18.4139 32.25 17.3003C32.25 16.1465 31.7806 15.0894 31.0173 14.3333H31.0191ZM26.092 24.8038C25.8296 24.8081 25.5677 24.8267 25.3073 24.8594C23.2988 25.1604 21.7795 26.2587 20.4357 27.1545C19.092 28.0503 17.9095 28.7491 17.0208 28.8906C16.1322 29.0304 15.3349 28.8906 13.8299 27.3785L11.2517 29.9567C13.2816 31.9992 15.5911 32.7337 17.578 32.4202C19.5668 32.1049 21.0575 31.0137 22.394 30.1233C23.7306 29.2346 24.8791 28.5842 25.809 28.4445C26.7406 28.3047 27.658 28.423 29.2257 29.9567L31.6892 27.3802C29.8545 25.5886 27.9016 24.777 26.0903 24.8056L26.092 24.8038Z" fill="#f60e0e"/>
</svg>
